<svg xmlns="http://www.w3.org/2000/svg" xmlns:xlink="http://www.w3.org/1999/xlink" width="113" height="113" viewBox="0 0 113 113">
  <defs>
    <filter id="Trazado_982547" x="0" y="0" width="113" height="113" filterUnits="userSpaceOnUse">
      <feOffset dy="3" input="SourceAlpha"/>
      <feGaussianBlur stdDeviation="3" result="blur"/>
      <feFlood flood-opacity="0.161"/>
      <feComposite operator="in" in2="blur"/>
      <feComposite in="SourceGraphic"/>
    </filter>
  </defs>
  <g id="Grupo_1148924" data-name="Grupo 1148924" transform="translate(-324 -3704.178)">
    <g id="Grupo_1147086" data-name="Grupo 1147086" transform="translate(333 3710.178)">
      <g transform="matrix(1, 0, 0, 1, -9, -6)" filter="url(#Trazado_982547)">
        <g id="Trazado_982547-2" data-name="Trazado 982547" transform="translate(9 6)" fill="#fdeffe">
          <path d="M 47.5 93.5 C 41.28937149047852 93.5 35.26533508300781 92.28397369384766 29.59518623352051 89.88570404052734 C 24.11771965026855 87.56893157958984 19.19813346862793 84.25196075439453 14.97309303283691 80.02691650390625 C 10.74804019927979 75.80186462402344 7.431066513061523 70.88229370117188 5.114293098449707 65.40481567382812 C 2.716026782989502 59.73468017578125 1.5 53.71062850952148 1.5 47.5 C 1.5 41.28937149047852 2.716026782989502 35.26533508300781 5.114293098449707 29.59518623352051 C 7.431066513061523 24.11771965026855 10.74804019927979 19.19813346862793 14.97309303283691 14.97309303283691 C 19.19813346862793 10.74804019927979 24.11771965026855 7.431066513061523 29.59518623352051 5.114293098449707 C 35.26533508300781 2.716026782989502 41.28937149047852 1.5 47.5 1.5 C 53.71062850952148 1.5 59.73468017578125 2.716026782989502 65.40481567382812 5.114293098449707 C 70.88229370117188 7.431066513061523 75.80186462402344 10.74804019927979 80.02691650390625 14.97309303283691 C 84.25196075439453 19.19813346862793 87.56893157958984 24.11771965026855 89.88570404052734 29.59518623352051 C 92.28397369384766 35.26533508300781 93.5 41.28937149047852 93.5 47.5 C 93.5 53.71062850952148 92.28397369384766 59.73468017578125 89.88570404052734 65.40481567382812 C 87.56893157958984 70.88229370117188 84.25196075439453 75.80186462402344 80.02691650390625 80.02691650390625 C 75.80186462402344 84.25196075439453 70.88229370117188 87.56893157958984 65.40481567382812 89.88570404052734 C 59.73468017578125 92.28397369384766 53.71062850952148 93.5 47.5 93.5 Z" stroke="none"/>
          <path d="M 47.5 3 C 41.49121475219727 3 35.66376876831055 4.176155090332031 30.17950439453125 6.495796203613281 C 24.88084411621094 8.736953735351562 20.12152099609375 11.94598388671875 16.03375244140625 16.03375244140625 C 11.94598388671875 20.12152099609375 8.736953735351562 24.88084411621094 6.495796203613281 30.17950439453125 C 4.176155090332031 35.66376876831055 3 41.49121475219727 3 47.5 C 3 53.50878524780273 4.176155090332031 59.33623123168945 6.495796203613281 64.82049560546875 C 8.736953735351562 70.11915588378906 11.94598388671875 74.87847900390625 16.03375244140625 78.96624755859375 C 20.12152099609375 83.05401611328125 24.88084411621094 86.26304626464844 30.17950439453125 88.50419616699219 C 35.66376876831055 90.82384490966797 41.49121475219727 92 47.5 92 C 53.50878524780273 92 59.33623123168945 90.82384490966797 64.82049560546875 88.50419616699219 C 70.11915588378906 86.26304626464844 74.87847900390625 83.05401611328125 78.96624755859375 78.96624755859375 C 83.05401611328125 74.87847900390625 86.26304626464844 70.11915588378906 88.50419616699219 64.82049560546875 C 90.82384490966797 59.33623123168945 92 53.50878524780273 92 47.5 C 92 41.49121475219727 90.82384490966797 35.66376876831055 88.50419616699219 30.17950439453125 C 86.26304626464844 24.88084411621094 83.05401611328125 20.12152099609375 78.96624755859375 16.03375244140625 C 74.87847900390625 11.94598388671875 70.11915588378906 8.736953735351562 64.82049560546875 6.495796203613281 C 59.33623123168945 4.176155090332031 53.50878524780273 3 47.5 3 M 47.5 0 C 73.7335205078125 0 95 21.2664794921875 95 47.5 C 95 73.7335205078125 73.7335205078125 95 47.5 95 C 21.2664794921875 95 0 73.7335205078125 0 47.5 C 0 21.2664794921875 21.2664794921875 0 47.5 0 Z" stroke="none" fill="#ee70f7"/>
        </g>
      </g>
      <g id="_036-gears" data-name="036-gears" transform="translate(14.745 14.187)">
        <path id="Trazado_986554" data-name="Trazado 986554" d="M57.13,31.091v3.033a2.23,2.23,0,0,1-1.792,2.186l-5.559,1.112a17.72,17.72,0,0,1-1.626,3.924L51.3,46.064a2.229,2.229,0,0,1-.279,2.813l-2.145,2.145a2.23,2.23,0,0,1-2.813.279l-4.718-3.145a17.711,17.711,0,0,1-3.924,1.626l-1.112,5.559a2.23,2.23,0,0,1-2.186,1.792H31.087A2.23,2.23,0,0,1,28.9,55.341l-1.112-5.559a17.726,17.726,0,0,1-3.924-1.626L19.147,51.3a2.229,2.229,0,0,1-2.813-.279l-2.145-2.145a2.23,2.23,0,0,1-.279-2.813l3.145-4.718a17.717,17.717,0,0,1-1.626-3.924L9.87,36.311a2.23,2.23,0,0,1-1.792-2.186V31.091A2.229,2.229,0,0,1,9.87,28.905l5.559-1.112a17.72,17.72,0,0,1,1.626-3.924l-3.144-4.718a2.229,2.229,0,0,1,.279-2.813l2.145-2.145a2.23,2.23,0,0,1,2.813-.279l4.718,3.145a17.711,17.711,0,0,1,3.924-1.626L28.9,9.874a2.23,2.23,0,0,1,2.186-1.792h3.033a2.229,2.229,0,0,1,2.186,1.792l1.112,5.559a17.726,17.726,0,0,1,3.924,1.626l4.718-3.145a2.229,2.229,0,0,1,2.813.279l2.145,2.145a2.23,2.23,0,0,1,.279,2.813l-3.145,4.718a17.72,17.72,0,0,1,1.626,3.924L55.338,28.9A2.23,2.23,0,0,1,57.13,31.091Z" transform="translate(-7.028 -7.031)" fill="#bfbfbf"/>
        <path id="Trazado_986555" data-name="Trazado 986555" d="M135.455,124.691a10.764,10.764,0,1,1-10.764-10.764A10.764,10.764,0,0,1,135.455,124.691Z" transform="translate(-99.114 -99.114)" fill="#e2e2e2"/>
        <path id="Trazado_986556" data-name="Trazado 986556" d="M166.252,160.9a5.353,5.353,0,1,1-5.353-5.353A5.353,5.353,0,0,1,166.252,160.9Z" transform="translate(-135.323 -135.323)" fill="#6d6d6d"/>
        <path id="Trazado_986557" data-name="Trazado 986557" d="M163,162.586a5.354,5.354,0,0,1-3.727,5.1,5.354,5.354,0,0,1,0-10.2A5.354,5.354,0,0,1,163,162.586Z" transform="translate(-135.322 -137.009)" fill="#999"/>
        <path id="Trazado_986558" data-name="Trazado 986558" d="M288.23,271.118v1.993a1.465,1.465,0,0,1-1.178,1.437l-3.653.731a11.644,11.644,0,0,1-1.068,2.579l2.067,3.1a1.465,1.465,0,0,1-.183,1.849l-1.409,1.409a1.465,1.465,0,0,1-1.849.183l-3.1-2.067a11.652,11.652,0,0,1-2.578,1.069l-.731,3.653a1.465,1.465,0,0,1-1.437,1.178h-1.993a1.465,1.465,0,0,1-1.437-1.178l-.731-3.653a11.64,11.64,0,0,1-2.579-1.069l-3.1,2.067a1.465,1.465,0,0,1-1.849-.183l-1.409-1.409a1.465,1.465,0,0,1-.183-1.849l2.067-3.1a11.649,11.649,0,0,1-1.068-2.579l-3.653-.731A1.465,1.465,0,0,1,256,273.112v-1.993a1.466,1.466,0,0,1,1.178-1.437l3.653-.731a11.643,11.643,0,0,1,1.068-2.579l-2.067-3.1a1.465,1.465,0,0,1,.183-1.849l1.409-1.409a1.465,1.465,0,0,1,1.849-.183l3.1,2.067a11.653,11.653,0,0,1,2.579-1.069l.731-3.653A1.465,1.465,0,0,1,271.117,256h1.993a1.465,1.465,0,0,1,1.437,1.178l.731,3.653a11.642,11.642,0,0,1,2.578,1.069l3.1-2.067a1.465,1.465,0,0,1,1.849.183l1.409,1.409a1.465,1.465,0,0,1,.183,1.849l-2.067,3.1a11.655,11.655,0,0,1,1.068,2.579l3.653.731A1.465,1.465,0,0,1,288.23,271.118Z" transform="translate(-222.712 -222.714)" fill="#fe9d52"/>
        <path id="Trazado_986559" data-name="Trazado 986559" d="M334.1,326.037a8.058,8.058,0,1,1-8.058-8.058A8.058,8.058,0,0,1,334.1,326.037Z" transform="translate(-276.636 -276.636)" fill="#abc5ff"/>
        <path id="Trazado_986560" data-name="Trazado 986560" d="M352.441,347.606a4.835,4.835,0,1,1-4.835-4.835A4.835,4.835,0,0,1,352.441,347.606Z" transform="translate(-298.205 -298.205)" fill="#5d7eac"/>
        <path id="Trazado_986561" data-name="Trazado 986561" d="M349.217,349.454a3.419,3.419,0,1,1-3.223-4.559A4.836,4.836,0,0,1,349.217,349.454Z" transform="translate(-298.204 -300.052)" fill="#809ded"/>
        <path id="Trazado_986562" data-name="Trazado 986562" d="M16.39,22.415A9.716,9.716,0,0,0,31.267,33.449a1.051,1.051,0,0,1,1.233,1.7A11.82,11.82,0,0,1,14.4,21.731a1.051,1.051,0,0,1,1.988.684Zm18.291,9a1.05,1.05,0,0,0,1.415-.456A11.816,11.816,0,0,0,17.329,17.116,1.051,1.051,0,0,0,18.8,18.621,9.715,9.715,0,0,1,34.225,30,1.051,1.051,0,0,0,34.681,31.417Zm-.514,9.826a1.051,1.051,0,0,0-1.4-.5,16.737,16.737,0,0,1-2.659.994,1.05,1.05,0,0,0-.747.806L28.249,48.1a1.182,1.182,0,0,1-1.156.947H24.06A1.182,1.182,0,0,1,22.9,48.1l-1.112-5.559a1.051,1.051,0,0,0-.747-.806,16.7,16.7,0,0,1-3.691-1.53,1.051,1.051,0,0,0-1.1.041l-4.718,3.145a1.182,1.182,0,0,1-1.487-.147L7.905,41.1a1.182,1.182,0,0,1-.147-1.487L10.9,34.9a1.051,1.051,0,0,0,.041-1.1,16.7,16.7,0,0,1-1.53-3.691,1.051,1.051,0,0,0-.806-.747L3.049,28.248A1.182,1.182,0,0,1,2.1,27.093V24.059A1.182,1.182,0,0,1,3.049,22.9l5.559-1.112a1.051,1.051,0,0,0,.806-.747,16.7,16.7,0,0,1,1.53-3.691,1.051,1.051,0,0,0-.041-1.1L7.758,11.537a1.182,1.182,0,0,1,.147-1.487L10.05,7.905a1.182,1.182,0,0,1,1.487-.147L16.255,10.9a1.051,1.051,0,0,0,1.1.041,16.7,16.7,0,0,1,3.691-1.53,1.051,1.051,0,0,0,.747-.806L22.9,3.049A1.182,1.182,0,0,1,24.06,2.1h3.033a1.182,1.182,0,0,1,1.156.947l1.112,5.559a1.051,1.051,0,0,0,.747.806,16.7,16.7,0,0,1,3.691,1.53,1.051,1.051,0,0,0,1.1-.041l4.718-3.145a1.182,1.182,0,0,1,1.487.147l2.145,2.145a1.182,1.182,0,0,1,.147,1.487L40.25,16.255a1.051,1.051,0,0,0-.041,1.1,16.7,16.7,0,0,1,1.53,3.691,1.051,1.051,0,0,0,.806.747L48.1,22.9a1.182,1.182,0,0,1,.947,1.156v3.033a1.182,1.182,0,0,1-.947,1.156l-5.559,1.112a1.051,1.051,0,0,0-.806.747,16.729,16.729,0,0,1-1.025,2.722,1.051,1.051,0,0,0,1.9.909,18.852,18.852,0,0,0,.968-2.441l4.94-.988a3.29,3.29,0,0,0,2.637-3.217V24.06a3.29,3.29,0,0,0-2.637-3.217l-4.939-.988a18.808,18.808,0,0,0-1.227-2.96L45.144,12.7a3.29,3.29,0,0,0-.41-4.14L42.589,6.418a3.29,3.29,0,0,0-4.14-.41L34.258,8.8A18.821,18.821,0,0,0,31.3,7.576L30.31,2.637A3.289,3.289,0,0,0,27.093,0H24.06a3.29,3.29,0,0,0-3.217,2.637l-.988,4.939A18.809,18.809,0,0,0,16.895,8.8L12.7,6.009a3.289,3.289,0,0,0-4.14.41L6.419,8.564a3.29,3.29,0,0,0-.41,4.14L8.8,16.895a18.821,18.821,0,0,0-1.227,2.96l-4.94.988A3.289,3.289,0,0,0,0,24.06v3.033A3.29,3.29,0,0,0,2.637,30.31l4.939.988A18.806,18.806,0,0,0,8.8,34.259L6.009,38.45a3.29,3.29,0,0,0,.41,4.14l2.145,2.145a3.29,3.29,0,0,0,4.14.41l4.192-2.794a18.821,18.821,0,0,0,2.96,1.227l.988,4.94a3.289,3.289,0,0,0,3.217,2.637h3.033a3.29,3.29,0,0,0,3.217-2.637l.988-4.939a18.83,18.83,0,0,0,2.37-.934A1.051,1.051,0,0,0,34.167,41.243ZM49.4,45.617A3.788,3.788,0,0,1,53.185,49.4a1.051,1.051,0,0,0,2.1,0A5.886,5.886,0,1,0,49.4,55.288,5.831,5.831,0,0,0,53,54.062,1.051,1.051,0,0,0,51.712,52.4a3.748,3.748,0,0,1-2.311.787,3.784,3.784,0,1,1,0-7.568ZM25.577,31.98a6.4,6.4,0,1,1,6.4-6.4A6.411,6.411,0,0,1,25.577,31.98Zm0-2.1a4.3,4.3,0,1,0-4.3-4.3A4.307,4.307,0,0,0,25.577,29.878Zm38.97,16.059-3.039-.608a12.734,12.734,0,0,0-.666-1.609l1.72-2.579a2.523,2.523,0,0,0-.314-3.175l-1.409-1.409a2.523,2.523,0,0,0-3.175-.314l-2.579,1.72a12.694,12.694,0,0,0-1.609-.666l-.608-3.039A2.523,2.523,0,0,0,50.4,32.234H48.4a2.523,2.523,0,0,0-2.467,2.023L45.33,37.3a12.733,12.733,0,0,0-1.609.666l-2.579-1.72a2.523,2.523,0,0,0-3.175.314l-1.409,1.409a2.523,2.523,0,0,0-.314,3.175l1.72,2.579a12.7,12.7,0,0,0-.859,2.233,1.051,1.051,0,1,0,2.025.566,10.607,10.607,0,0,1,.972-2.346,1.051,1.051,0,0,0-.041-1.1l-2.067-3.1a.415.415,0,0,1,.052-.523l1.409-1.409a.416.416,0,0,1,.523-.052l3.1,2.067a1.051,1.051,0,0,0,1.1.041,10.61,10.61,0,0,1,2.346-.972,1.05,1.05,0,0,0,.747-.806L48,34.669a.415.415,0,0,1,.406-.333H50.4a.415.415,0,0,1,.406.333l.731,3.653a1.051,1.051,0,0,0,.747.806,10.607,10.607,0,0,1,2.346.972,1.051,1.051,0,0,0,1.1-.041l3.1-2.067a.415.415,0,0,1,.523.052l1.409,1.409a.416.416,0,0,1,.052.523l-2.067,3.1a1.051,1.051,0,0,0-.041,1.1,10.61,10.61,0,0,1,.972,2.346,1.05,1.05,0,0,0,.806.747L64.134,48a.415.415,0,0,1,.333.406V50.4a.415.415,0,0,1-.333.406l-3.653.731a1.051,1.051,0,0,0-.806.747,10.607,10.607,0,0,1-.972,2.346,1.051,1.051,0,0,0,.041,1.1l2.067,3.1a.415.415,0,0,1-.052.523l-1.409,1.409a.415.415,0,0,1-.523.052l-3.1-2.067a1.051,1.051,0,0,0-1.1-.041,10.61,10.61,0,0,1-2.346.972,1.05,1.05,0,0,0-.747.806L50.8,64.134a.415.415,0,0,1-.406.333H48.4A.415.415,0,0,1,48,64.134l-.731-3.653a1.051,1.051,0,0,0-.747-.806,10.607,10.607,0,0,1-2.346-.972,1.051,1.051,0,0,0-1.1.041l-3.1,2.067a.415.415,0,0,1-.523-.052L38.044,59.35a.416.416,0,0,1-.052-.523l2.067-3.1a1.051,1.051,0,0,0,.041-1.1,10.609,10.609,0,0,1-.972-2.346,1.051,1.051,0,0,0-.806-.747L34.669,50.8a.415.415,0,0,1-.333-.406V48.4A.415.415,0,0,1,34.669,48l.224-.045a1.051,1.051,0,1,0-.413-2.061l-.224.045A2.523,2.523,0,0,0,32.233,48.4V50.4a2.523,2.523,0,0,0,2.023,2.467l3.039.608a12.733,12.733,0,0,0,.666,1.609l-1.72,2.579a2.523,2.523,0,0,0,.314,3.175l1.409,1.409a2.523,2.523,0,0,0,3.175.314l2.579-1.72a12.694,12.694,0,0,0,1.609.666l.608,3.039A2.524,2.524,0,0,0,48.4,66.569H50.4a2.523,2.523,0,0,0,2.467-2.023l.608-3.039a12.734,12.734,0,0,0,1.609-.666l2.579,1.72a2.523,2.523,0,0,0,3.175-.314l1.409-1.409a2.523,2.523,0,0,0,.314-3.175l-1.72-2.579a12.694,12.694,0,0,0,.666-1.609l3.039-.608A2.523,2.523,0,0,0,66.569,50.4V48.4A2.523,2.523,0,0,0,64.546,45.937Z"/>
      </g>
    </g>
  </g>
</svg>
