<svg xmlns="http://www.w3.org/2000/svg" xmlns:xlink="http://www.w3.org/1999/xlink" width="113" height="113" viewBox="0 0 113 113">
  <defs>
    <filter id="Trazado_982547" x="0" y="0" width="113" height="113" filterUnits="userSpaceOnUse">
      <feOffset dy="3" input="SourceAlpha"/>
      <feGaussianBlur stdDeviation="3" result="blur"/>
      <feFlood flood-opacity="0.161"/>
      <feComposite operator="in" in2="blur"/>
      <feComposite in="SourceGraphic"/>
    </filter>
  </defs>
  <g id="Grupo_1148925" data-name="Grupo 1148925" transform="translate(-744 -3704.178)">
    <g id="Grupo_1147087" data-name="Grupo 1147087" transform="translate(753 3710.178)">
      <g transform="matrix(1, 0, 0, 1, -9, -6)" filter="url(#Trazado_982547)">
        <g id="Trazado_982547-2" data-name="Trazado 982547" transform="translate(9 6)" fill="#fdeffe">
          <path d="M 47.5 93.5 C 41.28937149047852 93.5 35.26533508300781 92.28397369384766 29.59518623352051 89.88570404052734 C 24.11771965026855 87.56893157958984 19.19813346862793 84.25196075439453 14.97309303283691 80.02691650390625 C 10.74804019927979 75.80186462402344 7.431066513061523 70.88229370117188 5.114293098449707 65.40481567382812 C 2.716026782989502 59.73468017578125 1.5 53.71062850952148 1.5 47.5 C 1.5 41.28937149047852 2.716026782989502 35.26533508300781 5.114293098449707 29.59518623352051 C 7.431066513061523 24.11771965026855 10.74804019927979 19.19813346862793 14.97309303283691 14.97309303283691 C 19.19813346862793 10.74804019927979 24.11771965026855 7.431066513061523 29.59518623352051 5.114293098449707 C 35.26533508300781 2.716026782989502 41.28937149047852 1.5 47.5 1.5 C 53.71062850952148 1.5 59.73468017578125 2.716026782989502 65.40481567382812 5.114293098449707 C 70.88229370117188 7.431066513061523 75.80186462402344 10.74804019927979 80.02691650390625 14.97309303283691 C 84.25196075439453 19.19813346862793 87.56893157958984 24.11771965026855 89.88570404052734 29.59518623352051 C 92.28397369384766 35.26533508300781 93.5 41.28937149047852 93.5 47.5 C 93.5 53.71062850952148 92.28397369384766 59.73468017578125 89.88570404052734 65.40481567382812 C 87.56893157958984 70.88229370117188 84.25196075439453 75.80186462402344 80.02691650390625 80.02691650390625 C 75.80186462402344 84.25196075439453 70.88229370117188 87.56893157958984 65.40481567382812 89.88570404052734 C 59.73468017578125 92.28397369384766 53.71062850952148 93.5 47.5 93.5 Z" stroke="none"/>
          <path d="M 47.5 3 C 41.49121475219727 3 35.66376876831055 4.176155090332031 30.17950439453125 6.495796203613281 C 24.88084411621094 8.736953735351562 20.12152099609375 11.94598388671875 16.03375244140625 16.03375244140625 C 11.94598388671875 20.12152099609375 8.736953735351562 24.88084411621094 6.495796203613281 30.17950439453125 C 4.176155090332031 35.66376876831055 3 41.49121475219727 3 47.5 C 3 53.50878524780273 4.176155090332031 59.33623123168945 6.495796203613281 64.82049560546875 C 8.736953735351562 70.11915588378906 11.94598388671875 74.87847900390625 16.03375244140625 78.96624755859375 C 20.12152099609375 83.05401611328125 24.88084411621094 86.26304626464844 30.17950439453125 88.50419616699219 C 35.66376876831055 90.82384490966797 41.49121475219727 92 47.5 92 C 53.50878524780273 92 59.33623123168945 90.82384490966797 64.82049560546875 88.50419616699219 C 70.11915588378906 86.26304626464844 74.87847900390625 83.05401611328125 78.96624755859375 78.96624755859375 C 83.05401611328125 74.87847900390625 86.26304626464844 70.11915588378906 88.50419616699219 64.82049560546875 C 90.82384490966797 59.33623123168945 92 53.50878524780273 92 47.5 C 92 41.49121475219727 90.82384490966797 35.66376876831055 88.50419616699219 30.17950439453125 C 86.26304626464844 24.88084411621094 83.05401611328125 20.12152099609375 78.96624755859375 16.03375244140625 C 74.87847900390625 11.94598388671875 70.11915588378906 8.736953735351562 64.82049560546875 6.495796203613281 C 59.33623123168945 4.176155090332031 53.50878524780273 3 47.5 3 M 47.5 0 C 73.7335205078125 0 95 21.2664794921875 95 47.5 C 95 73.7335205078125 73.7335205078125 95 47.5 95 C 21.2664794921875 95 0 73.7335205078125 0 47.5 C 0 21.2664794921875 21.2664794921875 0 47.5 0 Z" stroke="none" fill="#ee70f7"/>
        </g>
      </g>
      <g id="_006-truck" data-name="006-truck" transform="translate(14.78 -60.311)">
        <path id="Trazado_986563" data-name="Trazado 986563" d="M57.041,106.9v15.386H8.084V95.713a1.4,1.4,0,0,1,1.4-1.4H51.446a1.4,1.4,0,0,1,1.4,1.4V106.9Z" transform="translate(-7.035 -7.036)" fill="#abc5ff"/>
        <path id="Trazado_986564" data-name="Trazado 986564" d="M355.808,169.767h10.507a2.8,2.8,0,0,1,2.68,1.994l3.6,11.994v5.6a2.8,2.8,0,0,1-2.8,2.8H353.01V172.565A2.8,2.8,0,0,1,355.808,169.767Z" transform="translate(-307.2 -72.697)" fill="#ffb933"/>
        <path id="Trazado_986565" data-name="Trazado 986565" d="M433.677,183.755v5.6a2.8,2.8,0,0,1-2.8,2.8h-4.2a2.8,2.8,0,0,0,2.8-2.8v-5.6l-3.6-11.994a2.8,2.8,0,0,0-2.679-1.994h4.2a2.8,2.8,0,0,1,2.679,1.994Z" transform="translate(-368.284 -72.697)" fill="#ff9600"/>
        <path id="Trazado_986566" data-name="Trazado 986566" d="M438.254,221.275h-8.393a1.4,1.4,0,0,1-1.4-1.4v-5.6a1.4,1.4,0,0,1,1.4-1.4h5.875Z" transform="translate(-372.862 -110.217)" fill="#abc5ff"/>
        <path id="Trazado_986567" data-name="Trazado 986567" d="M458.891,221.275h-4.2l-2.518-8.393h4.2Z" transform="translate(-393.499 -110.217)" fill="#5d7eac"/>
        <path id="Trazado_986568" data-name="Trazado 986568" d="M57.041,291.133v4.2H10.882a2.8,2.8,0,0,1-2.8-2.8v-4.2H54.243A2.8,2.8,0,0,1,57.041,291.133Z" transform="translate(-7.035 -175.879)" fill="#444"/>
        <g id="Grupo_1148964" data-name="Grupo 1148964" transform="translate(1.049 112.456)">
          <path id="Trazado_986569" data-name="Trazado 986569" d="M57.041,291.133H8.084v-2.8H54.243A2.8,2.8,0,0,1,57.041,291.133Z" transform="translate(-8.084 -288.335)" fill="#6d6d6d"/>
          <path id="Trazado_986570" data-name="Trazado 986570" d="M20.393,328.983a6.155,6.155,0,1,1-6.155-6.155A6.154,6.154,0,0,1,20.393,328.983Zm10.771-6.155a6.155,6.155,0,1,0,6.155,6.155A6.154,6.154,0,0,0,31.164,322.828Zm16.925,0a6.155,6.155,0,1,0,6.155,6.155A6.154,6.154,0,0,0,48.089,322.828Zm18.184,0a6.155,6.155,0,1,0,6.155,6.155A6.154,6.154,0,0,0,66.273,322.828Z" transform="translate(-8.084 -318.352)" fill="#6d6d6d"/>
        </g>
        <path id="Trazado_986571" data-name="Trazado 986571" d="M17.876,329.849a6.157,6.157,0,0,1-4.9,6.025,6.156,6.156,0,0,1,0-12.051A6.157,6.157,0,0,1,17.876,329.849Zm12.029-6.025a6.156,6.156,0,0,0,0,12.051,6.156,6.156,0,0,0,0-12.051Zm35.109,0a6.156,6.156,0,0,0,0,12.051,6.156,6.156,0,0,0,0-12.051Zm-18.184,0a6.156,6.156,0,0,0,0,12.051,6.156,6.156,0,0,0,0-12.051Z" transform="translate(-7.036 -206.763)" fill="#999"/>
        <path id="Trazado_986572" data-name="Trazado 986572" d="M42.343,354.778a2.308,2.308,0,1,1-2.308-2.308A2.308,2.308,0,0,1,42.343,354.778ZM56.96,352.47a2.308,2.308,0,1,0,2.308,2.308A2.308,2.308,0,0,0,56.96,352.47Zm16.925,0a2.308,2.308,0,1,0,2.308,2.308A2.308,2.308,0,0,0,73.885,352.47Zm18.184,0a2.308,2.308,0,1,0,2.308,2.308A2.308,2.308,0,0,0,92.069,352.47Z" transform="translate(-32.831 -231.691)" fill="#444"/>
        <path id="Trazado_986573" data-name="Trazado 986573" d="M41.054,119.73a3.357,3.357,0,1,0,3.357,3.357A3.361,3.361,0,0,0,41.054,119.73Zm0,4.616a1.259,1.259,0,1,1,1.259-1.259A1.26,1.26,0,0,1,41.054,124.346ZM24.129,119.73a3.357,3.357,0,1,0,3.357,3.357A3.361,3.361,0,0,0,24.129,119.73Zm0,4.616a1.259,1.259,0,1,1,1.259-1.259A1.26,1.26,0,0,1,24.129,124.346ZM7.2,119.73a3.357,3.357,0,1,0,3.357,3.357A3.361,3.361,0,0,0,7.2,119.73Zm0,4.616a1.259,1.259,0,1,1,1.259-1.259A1.26,1.26,0,0,1,7.2,124.346ZM34.62,109.309a1.049,1.049,0,0,1-1.049-1.049V91.475a1.049,1.049,0,0,1,2.1,0V108.26A1.049,1.049,0,0,1,34.62,109.309Zm-11.19,0a1.049,1.049,0,0,1-1.049-1.049V91.475a1.049,1.049,0,0,1,2.1,0V108.26A1.049,1.049,0,0,1,23.429,109.309Zm5.6,0a1.049,1.049,0,0,1-1.049-1.049V91.475a1.049,1.049,0,0,1,2.1,0V108.26A1.049,1.049,0,0,1,29.024,109.309Zm-11.19,0a1.049,1.049,0,0,1-1.049-1.049V91.475a1.049,1.049,0,0,1,2.1,0V108.26A1.049,1.049,0,0,1,17.834,109.309Zm41.4,10.421a3.357,3.357,0,1,0,3.357,3.357A3.361,3.361,0,0,0,59.238,119.73Zm0,4.616a1.259,1.259,0,1,1,1.259-1.259A1.26,1.26,0,0,1,59.238,124.346ZM39.166,108.26V91.475a1.049,1.049,0,0,1,2.1,0V108.26a1.049,1.049,0,0,1-2.1,0Zm27.224,2.472-2.5-8.346c0-.015-.009-.03-.013-.045L62.8,98.762a3.823,3.823,0,0,0-3.684-2.741H48.607a3.826,3.826,0,0,0-1.749.421V88.677a2.451,2.451,0,0,0-2.448-2.448H10.84a1.049,1.049,0,0,0,0,2.1H44.411a.35.35,0,0,1,.35.35V108.26a1.049,1.049,0,1,0,2.1,0V99.867a1.75,1.75,0,0,1,1.749-1.749H59.115a1.738,1.738,0,0,1,1.675,1.246l.675,2.251H57a2.451,2.451,0,0,0-2.448,2.448v5.6A2.451,2.451,0,0,0,57,112.106h7.343v4.546A1.752,1.752,0,0,1,64,117.688a7.193,7.193,0,0,0-10.232.713H51.055v-3.147a3.851,3.851,0,0,0-3.847-3.847H40.215a1.049,1.049,0,0,0,0,2.1h6.994a1.75,1.75,0,0,1,1.749,1.749V118.4H46.521a7.195,7.195,0,0,0-10.934,0H29.6a7.195,7.195,0,0,0-10.934,0H12.671a7.193,7.193,0,0,0-10.232-.712,1.748,1.748,0,0,1-.34-1.036V113.5h33.92a1.049,1.049,0,1,0,0-2.1H2.1V88.677a.35.35,0,0,1,.35-.35h4.2a1.049,1.049,0,1,0,0-2.1h-4.2A2.451,2.451,0,0,0,0,88.677v27.975a3.845,3.845,0,0,0,1.069,2.661,7.2,7.2,0,1,0,13.338,3.773,7.166,7.166,0,0,0-.481-2.588h3.479a7.2,7.2,0,1,0,13.446,0h3.479a7.2,7.2,0,1,0,13.446,0h4.738a7.2,7.2,0,1,0,12.857-1.186,3.859,3.859,0,0,0,1.07-2.661v-5.6h0v0h0A1.029,1.029,0,0,0,66.39,110.732ZM57,110.008a.35.35,0,0,1-.35-.35v-5.6a.35.35,0,0,1,.35-.35h5.094l1.888,6.294H57ZM7.2,128.192a5.105,5.105,0,1,1,5.105-5.105A5.111,5.111,0,0,1,7.2,128.192Zm16.925,0a5.105,5.105,0,1,1,5.105-5.105A5.111,5.111,0,0,1,24.129,128.192Zm16.925,0a5.105,5.105,0,1,1,5.105-5.105A5.111,5.111,0,0,1,41.054,128.192Zm18.184,0a5.105,5.105,0,1,1,5.105-5.105A5.111,5.111,0,0,1,59.238,128.192Zm-47-18.883a1.049,1.049,0,0,1-1.049-1.049V91.475a1.049,1.049,0,0,1,2.1,0V108.26A1.049,1.049,0,0,1,12.239,109.309ZM7.693,91.475V108.26a1.049,1.049,0,0,1-2.1,0V91.475a1.049,1.049,0,0,1,2.1,0Z" transform="translate(0)"/>
      </g>
    </g>
  </g>
</svg>
