<svg xmlns="http://www.w3.org/2000/svg" xmlns:xlink="http://www.w3.org/1999/xlink" width="113" height="113" viewBox="0 0 113 113">
  <defs>
    <filter id="Trazado_982547" x="0" y="0" width="113" height="113" filterUnits="userSpaceOnUse">
      <feOffset dy="3" input="SourceAlpha"/>
      <feGaussianBlur stdDeviation="3" result="blur"/>
      <feFlood flood-opacity="0.161"/>
      <feComposite operator="in" in2="blur"/>
      <feComposite in="SourceGraphic"/>
    </filter>
  </defs>
  <g id="Grupo_1148926" data-name="Grupo 1148926" transform="translate(-1164 -3704.178)">
    <g id="Grupo_1147088" data-name="Grupo 1147088" transform="translate(1173 3710.178)">
      <g transform="matrix(1, 0, 0, 1, -9, -6)" filter="url(#Trazado_982547)">
        <g id="Trazado_982547-2" data-name="Trazado 982547" transform="translate(9 6)" fill="#fdeffe">
          <path d="M 47.5 93.5 C 41.28937149047852 93.5 35.26533508300781 92.28397369384766 29.59518623352051 89.88570404052734 C 24.11771965026855 87.56893157958984 19.19813346862793 84.25196075439453 14.97309303283691 80.02691650390625 C 10.74804019927979 75.80186462402344 7.431066513061523 70.88229370117188 5.114293098449707 65.40481567382812 C 2.716026782989502 59.73468017578125 1.5 53.71062850952148 1.5 47.5 C 1.5 41.28937149047852 2.716026782989502 35.26533508300781 5.114293098449707 29.59518623352051 C 7.431066513061523 24.11771965026855 10.74804019927979 19.19813346862793 14.97309303283691 14.97309303283691 C 19.19813346862793 10.74804019927979 24.11771965026855 7.431066513061523 29.59518623352051 5.114293098449707 C 35.26533508300781 2.716026782989502 41.28937149047852 1.5 47.5 1.5 C 53.71062850952148 1.5 59.73468017578125 2.716026782989502 65.40481567382812 5.114293098449707 C 70.88229370117188 7.431066513061523 75.80186462402344 10.74804019927979 80.02691650390625 14.97309303283691 C 84.25196075439453 19.19813346862793 87.56893157958984 24.11771965026855 89.88570404052734 29.59518623352051 C 92.28397369384766 35.26533508300781 93.5 41.28937149047852 93.5 47.5 C 93.5 53.71062850952148 92.28397369384766 59.73468017578125 89.88570404052734 65.40481567382812 C 87.56893157958984 70.88229370117188 84.25196075439453 75.80186462402344 80.02691650390625 80.02691650390625 C 75.80186462402344 84.25196075439453 70.88229370117188 87.56893157958984 65.40481567382812 89.88570404052734 C 59.73468017578125 92.28397369384766 53.71062850952148 93.5 47.5 93.5 Z" stroke="none"/>
          <path d="M 47.5 3 C 41.49121475219727 3 35.66376876831055 4.176155090332031 30.17950439453125 6.495796203613281 C 24.88084411621094 8.736953735351562 20.12152099609375 11.94598388671875 16.03375244140625 16.03375244140625 C 11.94598388671875 20.12152099609375 8.736953735351562 24.88084411621094 6.495796203613281 30.17950439453125 C 4.176155090332031 35.66376876831055 3 41.49121475219727 3 47.5 C 3 53.50878524780273 4.176155090332031 59.33623123168945 6.495796203613281 64.82049560546875 C 8.736953735351562 70.11915588378906 11.94598388671875 74.87847900390625 16.03375244140625 78.96624755859375 C 20.12152099609375 83.05401611328125 24.88084411621094 86.26304626464844 30.17950439453125 88.50419616699219 C 35.66376876831055 90.82384490966797 41.49121475219727 92 47.5 92 C 53.50878524780273 92 59.33623123168945 90.82384490966797 64.82049560546875 88.50419616699219 C 70.11915588378906 86.26304626464844 74.87847900390625 83.05401611328125 78.96624755859375 78.96624755859375 C 83.05401611328125 74.87847900390625 86.26304626464844 70.11915588378906 88.50419616699219 64.82049560546875 C 90.82384490966797 59.33623123168945 92 53.50878524780273 92 47.5 C 92 41.49121475219727 90.82384490966797 35.66376876831055 88.50419616699219 30.17950439453125 C 86.26304626464844 24.88084411621094 83.05401611328125 20.12152099609375 78.96624755859375 16.03375244140625 C 74.87847900390625 11.94598388671875 70.11915588378906 8.736953735351562 64.82049560546875 6.495796203613281 C 59.33623123168945 4.176155090332031 53.50878524780273 3 47.5 3 M 47.5 0 C 73.7335205078125 0 95 21.2664794921875 95 47.5 C 95 73.7335205078125 73.7335205078125 95 47.5 95 C 21.2664794921875 95 0 73.7335205078125 0 47.5 C 0 21.2664794921875 21.2664794921875 0 47.5 0 Z" stroke="none" fill="#ee70f7"/>
        </g>
      </g>
      <g id="_018-power-tower" data-name="018-power-tower" transform="translate(20.785 16.46)">
        <path id="Trazado_986574" data-name="Trazado 986574" d="M69.967,35.717H65.654L67.8,47.156H47.234l2.151-11.439H41.423a.6.6,0,0,1-.577-.769L42.7,28.588a.6.6,0,0,1,.577-.433h7.53L52.1,21.3H45.705a.6.6,0,0,1-.577-.769l1.854-6.361a.6.6,0,0,1,.577-.433h5.959l.971-5.164a.6.6,0,0,1,.59-.49H59.96a.6.6,0,0,1,.59.49l.971,5.164h2.31a.6.6,0,0,1,.577.433l1.854,6.361a.6.6,0,0,1-.577.769H62.943l1.289,6.855h3.881a.6.6,0,0,1,.577.433l1.854,6.361A.6.6,0,0,1,69.967,35.717Z" transform="translate(-36.272 -7.184)" fill="#cedeec"/>
        <path id="Trazado_986575" data-name="Trazado 986575" d="M141.881,35.716h-3.649a.6.6,0,0,0,.577-.769l-1.854-6.361a.6.6,0,0,0-.577-.433h3.649a.6.6,0,0,1,.577.433l1.854,6.361A.6.6,0,0,1,141.881,35.716ZM132.672,14.17l1.854,6.361a.6.6,0,0,1-.577.769H137.6a.6.6,0,0,0,.577-.769l-1.854-6.361a.6.6,0,0,0-.577-.433H132.1A.6.6,0,0,1,132.672,14.17Zm-4.448-6.086H124.17a.6.6,0,0,1,.59.49l.971,5.164h-3.949L120.361,21.3h6.793l1.289,6.855h-9.371l-1.422,7.562h12.214l2.151,11.439h4.054L128.815,8.574A.6.6,0,0,0,128.225,8.084Z" transform="translate(-104.537 -7.183)" fill="#abc5ff"/>
        <path id="Trazado_986576" data-name="Trazado 986576" d="M40.421,284.766l48.056-7.208v25.229H40.421Z" transform="translate(-35.916 -246.622)" fill="#bfbfbf"/>
        <path id="Trazado_986577" data-name="Trazado 986577" d="M439.242,278.1l3.6-.541v25.229h-3.6Z" transform="translate(-390.285 -246.621)" fill="#999"/>
        <path id="Trazado_986578" data-name="Trazado 986578" d="M318.337,417.684V427.3H299.115v-9.611h19.222Z" transform="translate(-265.776 -371.13)" fill="#809ded"/>
        <path id="Trazado_986579" data-name="Trazado 986579" d="M366.225,417.684V427.3h-3.6v-9.611ZM353.01,427.3h3.6v-9.611h-3.6Z" transform="translate(-313.664 -371.13)" fill="#5d7eac"/>
        <path id="Trazado_986580" data-name="Trazado 986580" d="M56.165,55.264h-2.7V30.936a.9.9,0,0,0-1.035-.891L31.182,33.232l-.714-3.8h6.876a1.5,1.5,0,0,0,1.442-1.922l-1.854-6.361A1.509,1.509,0,0,0,35.49,20.07H28.707l-.95-5.052h5.3A1.5,1.5,0,0,0,34.5,13.1L32.649,6.735a1.509,1.509,0,0,0-1.442-1.082H26l-.833-4.429A1.5,1.5,0,0,0,23.688,0H18.807a1.5,1.5,0,0,0-1.476,1.224L16.5,5.653H11.287A1.509,1.509,0,0,0,9.846,6.735L7.992,13.1a1.5,1.5,0,0,0,1.442,1.922h5.3l-.95,5.052H7a1.509,1.509,0,0,0-1.442,1.081L3.709,27.512a1.5,1.5,0,0,0,1.442,1.922h6.876L10.736,36.3l-6.365.955a.9.9,0,0,0-.767.891v17.12H.9a.9.9,0,0,0,0,1.8h8.41a.9.9,0,1,0,0-1.8h-3.9V38.92L22.87,36.3a.9.9,0,1,0-.267-1.782l-9.98,1.5L14,28.718c0-.012,0-.023.007-.035l1.281-6.811h11.93l1.083,5.76H16.88a.9.9,0,0,0,0,1.8H28.634L29.4,33.5l-3.341.5a.9.9,0,0,0,.267,1.782l25.335-3.8V45.653H33.339a.9.9,0,0,0-.9.9v8.71H12.915a.9.9,0,1,0,0,1.8h43.25a.9.9,0,1,0,0-1.8Zm-43.8-27.632H5.551l1.679-5.76h6.219ZM19.056,1.8h4.382l.724,3.851H18.332Zm-3.98,11.413H9.834l1.679-5.76H16.16Zm.545,6.855L16.705,14.3c0-.013.005-.027.008-.041l1.28-6.808H24.5l1.083,5.76H19.122a.9.9,0,0,0,0,1.8h6.8l.95,5.052H15.621ZM26.335,7.455h4.647l1.679,5.76H27.418Zm2.711,14.417h6.219l1.679,5.76H30.129ZM51.66,55.264H43.851V50.158a.9.9,0,0,0-1.8,0v5.106H34.24V47.455H51.66Z"/>
      </g>
    </g>
  </g>
</svg>
