<svg xmlns="http://www.w3.org/2000/svg" xmlns:xlink="http://www.w3.org/1999/xlink" width="113" height="113" viewBox="0 0 113 113">
  <defs>
    <filter id="Trazado_982547" x="0" y="0" width="113" height="113" filterUnits="userSpaceOnUse">
      <feOffset dy="3" input="SourceAlpha"/>
      <feGaussianBlur stdDeviation="3" result="blur"/>
      <feFlood flood-opacity="0.161"/>
      <feComposite operator="in" in2="blur"/>
      <feComposite in="SourceGraphic"/>
    </filter>
  </defs>
  <g id="Grupo_1148931" data-name="Grupo 1148931" transform="translate(-324 -3704.178)">
    <g id="Grupo_1147086" data-name="Grupo 1147086" transform="translate(333 3710.178)">
      <g transform="matrix(1, 0, 0, 1, -9, -6)" filter="url(#Trazado_982547)">
        <g id="Trazado_982547-2" data-name="Trazado 982547" transform="translate(9 6)" fill="#fdeffe">
          <path d="M 47.5 93.5 C 41.28937149047852 93.5 35.26533508300781 92.28397369384766 29.59518623352051 89.88570404052734 C 24.11771965026855 87.56893157958984 19.19813346862793 84.25196075439453 14.97309303283691 80.02691650390625 C 10.74804019927979 75.80186462402344 7.431066513061523 70.88229370117188 5.114293098449707 65.40481567382812 C 2.716026782989502 59.73468017578125 1.5 53.71062850952148 1.5 47.5 C 1.5 41.28937149047852 2.716026782989502 35.26533508300781 5.114293098449707 29.59518623352051 C 7.431066513061523 24.11771965026855 10.74804019927979 19.19813346862793 14.97309303283691 14.97309303283691 C 19.19813346862793 10.74804019927979 24.11771965026855 7.431066513061523 29.59518623352051 5.114293098449707 C 35.26533508300781 2.716026782989502 41.28937149047852 1.5 47.5 1.5 C 53.71062850952148 1.5 59.73468017578125 2.716026782989502 65.40481567382812 5.114293098449707 C 70.88229370117188 7.431066513061523 75.80186462402344 10.74804019927979 80.02691650390625 14.97309303283691 C 84.25196075439453 19.19813346862793 87.56893157958984 24.11771965026855 89.88570404052734 29.59518623352051 C 92.28397369384766 35.26533508300781 93.5 41.28937149047852 93.5 47.5 C 93.5 53.71062850952148 92.28397369384766 59.73468017578125 89.88570404052734 65.40481567382812 C 87.56893157958984 70.88229370117188 84.25196075439453 75.80186462402344 80.02691650390625 80.02691650390625 C 75.80186462402344 84.25196075439453 70.88229370117188 87.56893157958984 65.40481567382812 89.88570404052734 C 59.73468017578125 92.28397369384766 53.71062850952148 93.5 47.5 93.5 Z" stroke="none"/>
          <path d="M 47.5 3 C 41.49121475219727 3 35.66376876831055 4.176155090332031 30.17950439453125 6.495796203613281 C 24.88084411621094 8.736953735351562 20.12152099609375 11.94598388671875 16.03375244140625 16.03375244140625 C 11.94598388671875 20.12152099609375 8.736953735351562 24.88084411621094 6.495796203613281 30.17950439453125 C 4.176155090332031 35.66376876831055 3 41.49121475219727 3 47.5 C 3 53.50878524780273 4.176155090332031 59.33623123168945 6.495796203613281 64.82049560546875 C 8.736953735351562 70.11915588378906 11.94598388671875 74.87847900390625 16.03375244140625 78.96624755859375 C 20.12152099609375 83.05401611328125 24.88084411621094 86.26304626464844 30.17950439453125 88.50419616699219 C 35.66376876831055 90.82384490966797 41.49121475219727 92 47.5 92 C 53.50878524780273 92 59.33623123168945 90.82384490966797 64.82049560546875 88.50419616699219 C 70.11915588378906 86.26304626464844 74.87847900390625 83.05401611328125 78.96624755859375 78.96624755859375 C 83.05401611328125 74.87847900390625 86.26304626464844 70.11915588378906 88.50419616699219 64.82049560546875 C 90.82384490966797 59.33623123168945 92 53.50878524780273 92 47.5 C 92 41.49121475219727 90.82384490966797 35.66376876831055 88.50419616699219 30.17950439453125 C 86.26304626464844 24.88084411621094 83.05401611328125 20.12152099609375 78.96624755859375 16.03375244140625 C 74.87847900390625 11.94598388671875 70.11915588378906 8.736953735351562 64.82049560546875 6.495796203613281 C 59.33623123168945 4.176155090332031 53.50878524780273 3 47.5 3 M 47.5 0 C 73.7335205078125 0 95 21.2664794921875 95 47.5 C 95 73.7335205078125 73.7335205078125 95 47.5 95 C 21.2664794921875 95 0 73.7335205078125 0 47.5 C 0 21.2664794921875 21.2664794921875 0 47.5 0 Z" stroke="none" fill="#ee70f7"/>
        </g>
      </g>
      <g id="_021-analysis" data-name="021-analysis" transform="translate(42.34 36.92)">
        <path id="Trazado_986699" data-name="Trazado 986699" d="M281.659,282.666l16.314,15a2.153,2.153,0,0,1,.077,3.1l-1.235,1.255a2.153,2.153,0,0,1-3.1-.029L278.467,285.91l-5.933-6.728,3.036-2.615Z" transform="translate(-268.013 -264.625)" fill="#e1dee2"/>
        <path id="Trazado_986700" data-name="Trazado 986700" d="M281.66,282.666l-6.089-6.1-3.036,2.615,5.933,6.728,1.583,1.669q.825-.693,1.6-1.462a24.969,24.969,0,0,0,1.707-1.891Z" transform="translate(-268.014 -264.625)" fill="#cac5cb"/>
        <circle id="Elipse_11581" data-name="Elipse 11581" cx="22.259" cy="22.259" r="22.259" transform="translate(-25.988 -18.132)" fill="#b3adb5"/>
        <path id="Trazado_986701" data-name="Trazado 986701" d="M14.09,38.135A23.906,23.906,0,0,1,30.855,15.321q-.556-.028-1.119-.028a22.26,22.26,0,0,0-2.015,44.429A23.9,23.9,0,0,1,14.09,38.135Z" transform="translate(-33.465 -33.425)" fill="#a59ca6"/>
        <path id="Trazado_986702" data-name="Trazado 986702" d="M247.792,21.028l0,7a3.328,3.328,0,0,0,3.324,3.324h10.467a22.307,22.307,0,0,0-13.793-10.32Z" transform="translate(-246.119 -38.5)" fill="#a59ca6"/>
        <ellipse id="Elipse_11582" data-name="Elipse 11582" cx="18.817" cy="18.817" rx="18.817" ry="18.817" transform="translate(-30.34 4.127) rotate(-45)" fill="#cfeffc"/>
        <path id="Trazado_986703" data-name="Trazado 986703" d="M48.4,59.913a18.81,18.81,0,0,0-2.342,32.968A23.9,23.9,0,0,1,48.4,59.913Z" transform="translate(-59.93 -72.909)" fill="#a9e4f9"/>
        <path id="Trazado_986704" data-name="Trazado 986704" d="M247.8,52.078V55.5a3.328,3.328,0,0,0,3.324,3.324h6.326a18.883,18.883,0,0,0-9.65-6.746Z" transform="translate(-246.125 -65.976)" fill="#a9e4f9"/>
        <circle id="Elipse_11583" data-name="Elipse 11583" cx="2.063" cy="2.063" r="2.063" transform="translate(-18.537 -0.608)" fill="#ee878a"/>
        <circle id="Elipse_11584" data-name="Elipse 11584" cx="2.063" cy="2.063" r="2.063" transform="translate(-10.397 10.667)" fill="#fbe88c"/>
        <circle id="Elipse_11585" data-name="Elipse 11585" cx="2.063" cy="2.063" r="2.063" transform="translate(-4.28 0.002)" fill="#ee878a"/>
        <path id="Trazado_986705" data-name="Trazado 986705" d="M268.774,8.746h25.2A1.029,1.029,0,0,1,295,9.775v7.381a1.029,1.029,0,0,1-1.029,1.029h-25.2a1.029,1.029,0,0,1-1.029-1.029V9.775A1.029,1.029,0,0,1,268.774,8.746Z" transform="translate(-263.775 -27.631)" fill="#ee878a"/>
        <circle id="Elipse_11586" data-name="Elipse 11586" cx="2.063" cy="2.063" r="2.063" transform="translate(3.132 5.67)" fill="#fbe88c"/>
        <g id="Grupo_1148969" data-name="Grupo 1148969" transform="translate(-26.848 -19.746)">
          <path id="Trazado_986706" data-name="Trazado 986706" d="M49.584,39.446a17.989,17.989,0,0,1,4.061.463.861.861,0,0,0,.389-1.677,19.674,19.674,0,0,0-21.711,28.61.861.861,0,0,0,1.509-.828A17.95,17.95,0,0,1,49.584,39.446Z" transform="translate(-26.465 -33.529)"/>
          <path id="Trazado_986707" data-name="Trazado 986707" d="M57.043,1.269h-25.2a1.892,1.892,0,0,0-1.89,1.89V10.54a1.892,1.892,0,0,0,1.89,1.89h7.541a.861.861,0,1,0,0-1.721H31.847a.169.169,0,0,1-.169-.168V3.159a.169.169,0,0,1,.169-.169h25.2a.169.169,0,0,1,.169.169V10.54a.169.169,0,0,1-.169.168H43.056a.861.861,0,1,0,0,1.721h4.422L44.2,15.639c-.155-.342-.317-.683-.489-1.02a.861.861,0,0,0-1.532.785c.257.5.49,1.01.705,1.524l-1.339,1.311a19.59,19.59,0,0,0-1.851-3.692.861.861,0,1,0-1.449.929,17.867,17.867,0,0,1,1.942,4.092l-6.752,6.611a2.916,2.916,0,0,0-3.089.189l-2.974-2.275a2.924,2.924,0,1,0-4.878.98l-3.338,5.82a2.908,2.908,0,0,0-1.581.083l-4.87-6.746a2.924,2.924,0,1,0-1.4,1.008l4.87,6.746a2.924,2.924,0,1,0,4.468-.233l3.338-5.82a2.911,2.911,0,0,0,2.338-.472L29.3,27.734a2.924,2.924,0,1,0,5.34-.325L40.7,21.478A17.949,17.949,0,0,1,9.346,36.648a.861.861,0,1,0-1.32,1.1A19.671,19.671,0,0,0,42.132,20.073l1.4-1.373A21.4,21.4,0,1,1,23.12,3.744a21.566,21.566,0,0,1,4.092.392.861.861,0,1,0,.327-1.69A23.121,23.121,0,1,0,23.12,48.262a23,23,0,0,0,14.094-4.806L51.929,58.969a2.989,2.989,0,0,0,2.159.94h.029a2.989,2.989,0,0,0,2.147-.9L57.5,57.755a3.014,3.014,0,0,0-.108-4.333l-10.2-9.375a.861.861,0,1,0-1.165,1.267l10.2,9.375a1.293,1.293,0,0,1,.046,1.859L55.037,57.8a1.293,1.293,0,0,1-1.859-.017L38.54,42.353a23.307,23.307,0,0,0,2.029-2.059l2.717,2.5a.861.861,0,1,0,1.165-1.267l-2.8-2.574A23.129,23.129,0,0,0,44.9,17.364l5.039-4.934h7.1a1.892,1.892,0,0,0,1.89-1.89V3.159a1.891,1.891,0,0,0-1.889-1.89Zm-46.665,22.4a1.2,1.2,0,1,1,1.2-1.2A1.2,1.2,0,0,1,10.377,23.667Zm8.135,11.278a1.2,1.2,0,1,1,1.2-1.2A1.2,1.2,0,0,1,18.512,34.946Zm6.111-10.672a1.2,1.2,0,1,1,1.2-1.2A1.2,1.2,0,0,1,24.623,24.274Zm7.416,5.682a1.2,1.2,0,1,1,1.2-1.2A1.2,1.2,0,0,1,32.04,29.956Z" transform="translate(0 -1.269)"/>
        </g>
      </g>
    </g>
  </g>
</svg>
