<svg xmlns="http://www.w3.org/2000/svg" xmlns:xlink="http://www.w3.org/1999/xlink" width="113" height="113" viewBox="0 0 113 113">
  <defs>
    <filter id="Trazado_982547" x="0" y="0" width="113" height="113" filterUnits="userSpaceOnUse">
      <feOffset dy="3" input="SourceAlpha"/>
      <feGaussianBlur stdDeviation="3" result="blur"/>
      <feFlood flood-opacity="0.161"/>
      <feComposite operator="in" in2="blur"/>
      <feComposite in="SourceGraphic"/>
    </filter>
  </defs>
  <g id="Grupo_1148932" data-name="Grupo 1148932" transform="translate(-744 -3704.178)">
    <g id="Grupo_1147087" data-name="Grupo 1147087" transform="translate(753 3710.178)">
      <g transform="matrix(1, 0, 0, 1, -9, -6)" filter="url(#Trazado_982547)">
        <g id="Trazado_982547-2" data-name="Trazado 982547" transform="translate(9 6)" fill="#fdeffe">
          <path d="M 47.5 93.5 C 41.28937149047852 93.5 35.26533508300781 92.28397369384766 29.59518623352051 89.88570404052734 C 24.11771965026855 87.56893157958984 19.19813346862793 84.25196075439453 14.97309303283691 80.02691650390625 C 10.74804019927979 75.80186462402344 7.431066513061523 70.88229370117188 5.114293098449707 65.40481567382812 C 2.716026782989502 59.73468017578125 1.5 53.71062850952148 1.5 47.5 C 1.5 41.28937149047852 2.716026782989502 35.26533508300781 5.114293098449707 29.59518623352051 C 7.431066513061523 24.11771965026855 10.74804019927979 19.19813346862793 14.97309303283691 14.97309303283691 C 19.19813346862793 10.74804019927979 24.11771965026855 7.431066513061523 29.59518623352051 5.114293098449707 C 35.26533508300781 2.716026782989502 41.28937149047852 1.5 47.5 1.5 C 53.71062850952148 1.5 59.73468017578125 2.716026782989502 65.40481567382812 5.114293098449707 C 70.88229370117188 7.431066513061523 75.80186462402344 10.74804019927979 80.02691650390625 14.97309303283691 C 84.25196075439453 19.19813346862793 87.56893157958984 24.11771965026855 89.88570404052734 29.59518623352051 C 92.28397369384766 35.26533508300781 93.5 41.28937149047852 93.5 47.5 C 93.5 53.71062850952148 92.28397369384766 59.73468017578125 89.88570404052734 65.40481567382812 C 87.56893157958984 70.88229370117188 84.25196075439453 75.80186462402344 80.02691650390625 80.02691650390625 C 75.80186462402344 84.25196075439453 70.88229370117188 87.56893157958984 65.40481567382812 89.88570404052734 C 59.73468017578125 92.28397369384766 53.71062850952148 93.5 47.5 93.5 Z" stroke="none"/>
          <path d="M 47.5 3 C 41.49121475219727 3 35.66376876831055 4.176155090332031 30.17950439453125 6.495796203613281 C 24.88084411621094 8.736953735351562 20.12152099609375 11.94598388671875 16.03375244140625 16.03375244140625 C 11.94598388671875 20.12152099609375 8.736953735351562 24.88084411621094 6.495796203613281 30.17950439453125 C 4.176155090332031 35.66376876831055 3 41.49121475219727 3 47.5 C 3 53.50878524780273 4.176155090332031 59.33623123168945 6.495796203613281 64.82049560546875 C 8.736953735351562 70.11915588378906 11.94598388671875 74.87847900390625 16.03375244140625 78.96624755859375 C 20.12152099609375 83.05401611328125 24.88084411621094 86.26304626464844 30.17950439453125 88.50419616699219 C 35.66376876831055 90.82384490966797 41.49121475219727 92 47.5 92 C 53.50878524780273 92 59.33623123168945 90.82384490966797 64.82049560546875 88.50419616699219 C 70.11915588378906 86.26304626464844 74.87847900390625 83.05401611328125 78.96624755859375 78.96624755859375 C 83.05401611328125 74.87847900390625 86.26304626464844 70.11915588378906 88.50419616699219 64.82049560546875 C 90.82384490966797 59.33623123168945 92 53.50878524780273 92 47.5 C 92 41.49121475219727 90.82384490966797 35.66376876831055 88.50419616699219 30.17950439453125 C 86.26304626464844 24.88084411621094 83.05401611328125 20.12152099609375 78.96624755859375 16.03375244140625 C 74.87847900390625 11.94598388671875 70.11915588378906 8.736953735351562 64.82049560546875 6.495796203613281 C 59.33623123168945 4.176155090332031 53.50878524780273 3 47.5 3 M 47.5 0 C 73.7335205078125 0 95 21.2664794921875 95 47.5 C 95 73.7335205078125 73.7335205078125 95 47.5 95 C 21.2664794921875 95 0 73.7335205078125 0 47.5 C 0 21.2664794921875 21.2664794921875 0 47.5 0 Z" stroke="none" fill="#ee70f7"/>
        </g>
      </g>
      <g id="_001-strategy" data-name="001-strategy" transform="translate(7.113 20.187)">
        <g id="Grupo_1148967" data-name="Grupo 1148967" transform="translate(13.097 0.835)">
          <path id="Trazado_986680" data-name="Trazado 986680" d="M34.817,21.633H84.111V58.755H34.817Z" transform="translate(-33.141 -20.059)" fill="#f9f7f7"/>
          <path id="Trazado_986681" data-name="Trazado 986681" d="M84.111,26.2V21.633H34.817V58.755H84.111V54.19H45.863A3.387,3.387,0,0,1,42.476,50.8V29.585A3.387,3.387,0,0,1,45.863,26.2Z" transform="translate(-33.141 -20.059)" fill="#f2eae7"/>
          <path id="Trazado_986682" data-name="Trazado 986682" d="M115.24,433.684h28.346l-1.634-3.781H113.362l-1.439,3.781Z" transform="translate(-101.662 -382.873)" fill="#cac5cb"/>
          <path id="Trazado_986683" data-name="Trazado 986683" d="M350.154,359.948l-3.582-14.264-.829-2.944-4.129.145.7,2.8,3.665,14.594a.679.679,0,0,0,.658.513H349.5A.679.679,0,0,0,350.154,359.948Z" transform="translate(-305.78 -305.415)" fill="#e1dee2"/>
          <path id="Trazado_986684" data-name="Trazado 986684" d="M99.216,345.429l-.746,2.645-3.582,14.264a.679.679,0,0,0,.658.844h2.861a.679.679,0,0,0,.658-.513l3.665-14.594.492-2.645Z" transform="translate(-86.506 -307.805)" fill="#e1dee2"/>
          <g id="Grupo_1148966" data-name="Grupo 1148966" transform="translate(0)">
            <path id="Trazado_986685" data-name="Trazado 986685" d="M123.878,348.074l-.419,1.67h4.261l.419-1.67.492-2.645h-4.008Z" transform="translate(-111.914 -307.805)" fill="#cac5cb"/>
            <path id="Trazado_986686" data-name="Trazado 986686" d="M346.573,345.684l-.829-2.944-4.129.145.7,2.8.419,1.67h4.261Z" transform="translate(-305.78 -305.415)" fill="#cac5cb"/>
            <path id="Trazado_986687" data-name="Trazado 986687" d="M71.552,334.052H20.618a.856.856,0,0,0-.856.856v2.2a.856.856,0,0,0,.856.856H71.552a.856.856,0,0,0,.856-.856v-2.2A.856.856,0,0,0,71.552,334.052Z" transform="translate(-19.762 -297.694)" fill="#b3adb5"/>
            <path id="Trazado_986688" data-name="Trazado 986688" d="M71.552,7.5H20.618a.856.856,0,0,0-.856.856v2.2a.856.856,0,0,0,.856.856H71.552a.856.856,0,0,0,.856-.856v-2.2A.856.856,0,0,0,71.552,7.5Z" transform="translate(-19.762 -7.5)" fill="#b3adb5"/>
            <g id="Grupo_1148965" data-name="Grupo 1148965" transform="translate(8.757 11.435)">
              <circle id="Elipse_11579" data-name="Elipse 11579" cx="2.063" cy="2.063" r="2.063" fill="#ee878a"/>
              <circle id="Elipse_11580" data-name="Elipse 11580" cx="2.063" cy="2.063" r="2.063" transform="translate(14.317 8.13)" fill="#ee878a"/>
            </g>
          </g>
        </g>
        <g id="Grupo_1148968" data-name="Grupo 1148968" transform="translate(12.262 0)">
          <path id="Trazado_986689" data-name="Trazado 986689" d="M66.579,3.89v-2.2A1.693,1.693,0,0,0,64.887,0H13.953a1.693,1.693,0,0,0-1.691,1.691v2.2a1.693,1.693,0,0,0,1.676,1.691V36.358a1.693,1.693,0,0,0-1.676,1.691v2.2a1.693,1.693,0,0,0,1.691,1.691H23.991L20.67,55.165a1.514,1.514,0,0,0,1.468,1.882H25A1.512,1.512,0,0,0,26.468,55.9l.859-3.421h24.3l.859,3.421a1.512,1.512,0,0,0,1.468,1.145h2.861a1.514,1.514,0,0,0,1.468-1.882L54.961,41.939h9.927a1.693,1.693,0,0,0,1.691-1.691v-2.2A1.693,1.693,0,0,0,64.9,36.358V5.581A1.693,1.693,0,0,0,66.579,3.89Zm-41.7,51.486H22.339l3.374-13.438h2.539Zm2.869-4.566.53-2.111H45.168a.835.835,0,0,0,0-1.67H28.7l1.278-5.09h19l1.278,5.09H48.727a.835.835,0,1,0,0,1.67h1.949l.53,2.111Zm28.867,4.566H54.074L50.7,41.939h2.539Zm8.3-15.129a.021.021,0,0,1-.021.021H13.953a.021.021,0,0,1-.021-.021v-2.2a.021.021,0,0,1,.021-.021h8.829a.835.835,0,0,0,0-1.67H15.608V5.582h40.1a.835.835,0,0,0,0-1.67H13.953a.021.021,0,0,1-.021-.021v-2.2a.021.021,0,0,1,.021-.021H64.887a.021.021,0,0,1,.021.021v2.2a.021.021,0,0,1-.021.021H59.272a.835.835,0,1,0,0,1.67h3.96V36.358H26.341a.835.835,0,0,0,0,1.67H64.887a.021.021,0,0,1,.021.021v2.2Z" transform="translate(-12.262 0)"/>
          <path id="Trazado_986690" data-name="Trazado 986690" d="M136.607,233.75l1.267,1.237-1.267,1.237a.835.835,0,0,0,1.167,1.195l1.3-1.265,1.295,1.264a.835.835,0,1,0,1.167-1.195l-1.266-1.236,1.266-1.236a.835.835,0,1,0-1.167-1.195l-1.295,1.264-1.3-1.265a.835.835,0,0,0-1.167,1.195Z" transform="translate(-122.539 -206.452)"/>
          <path id="Trazado_986691" data-name="Trazado 986691" d="M372.578,113.654a.835.835,0,0,0,1.181.014l1.3-1.265,1.295,1.264a.835.835,0,1,0,1.167-1.195l-1.266-1.236L377.516,110a.835.835,0,1,0-1.167-1.195l-1.295,1.264-1.3-1.265A.835.835,0,0,0,372.592,110l1.267,1.237-1.267,1.237A.835.835,0,0,0,372.578,113.654Z" transform="translate(-332.25 -96.479)"/>
          <path id="Trazado_986692" data-name="Trazado 986692" d="M154.061,117.776a.835.835,0,0,0,.835-.835v-1.75a7.192,7.192,0,0,1,7.183-7.183h11.431l-.918.918a.835.835,0,1,0,1.181,1.181l2.241-2.241a.979.979,0,0,0,0-1.384l-2.242-2.242a.835.835,0,0,0-1.181,1.181l.918.918H162.08a8.864,8.864,0,0,0-8.854,8.854v1.75A.835.835,0,0,0,154.061,117.776Z" transform="translate(-137.531 -92.416)"/>
          <path id="Trazado_986693" data-name="Trazado 986693" d="M96.71,105.6a2.9,2.9,0,1,0-2.9,2.9A2.9,2.9,0,0,0,96.71,105.6Zm-2.9,1.228A1.228,1.228,0,1,1,95.04,105.6,1.229,1.229,0,0,1,93.813,106.828Z" transform="translate(-82.158 -91.268)"/>
          <path id="Trazado_986694" data-name="Trazado 986694" d="M222.4,175.727a2.9,2.9,0,1,0,2.9,2.9A2.9,2.9,0,0,0,222.4,175.727Zm0,4.125a1.228,1.228,0,1,1,1.228-1.228A1.229,1.229,0,0,1,222.4,179.852Z" transform="translate(-196.427 -156.162)"/>
          <path id="Trazado_986695" data-name="Trazado 986695" d="M317.129,201.385h.722a.835.835,0,1,0,0-1.67h-.722a.835.835,0,1,0,0,1.67Z" transform="translate(-282.444 -177.479)"/>
          <path id="Trazado_986696" data-name="Trazado 986696" d="M349.086,200.55a.835.835,0,0,0,.835.835h8.7a.835.835,0,1,0,0-1.67h-8.7A.835.835,0,0,0,349.086,200.55Z" transform="translate(-311.585 -177.479)"/>
          <path id="Trazado_986697" data-name="Trazado 986697" d="M329.483,236.32H317.129a.835.835,0,1,0,0,1.67h12.354a.835.835,0,0,0,0-1.67Z" transform="translate(-282.444 -210.009)"/>
          <path id="Trazado_986698" data-name="Trazado 986698" d="M329.483,272.924H317.129a.835.835,0,1,0,0,1.67h12.354a.835.835,0,0,0,0-1.67Z" transform="translate(-282.444 -242.537)"/>
        </g>
      </g>
    </g>
  </g>
</svg>
