<svg xmlns="http://www.w3.org/2000/svg" xmlns:xlink="http://www.w3.org/1999/xlink" width="108" height="108" viewBox="0 0 108 108">
  <defs>
    <filter id="Fondo" x="0" y="0" width="108" height="108" filterUnits="userSpaceOnUse">
      <feOffset dy="3" input="SourceAlpha"/>
      <feGaussianBlur stdDeviation="3" result="blur"/>
      <feFlood flood-opacity="0.161"/>
      <feComposite operator="in" in2="blur"/>
      <feComposite in="SourceGraphic"/>
    </filter>
  </defs>
  <g id="Icono" transform="translate(8.5 -689)">
    <g transform="matrix(1, 0, 0, 1, -8.5, 689)" filter="url(#Fondo)">
      <g id="Fondo-2" data-name="Fondo" transform="translate(9 6)" fill="#fee1ca">
        <path d="M 45 88.5 C 39.12687683105469 88.5 33.43022537231445 87.35007476806641 28.06830024719238 85.08217620849609 C 22.88852500915527 82.89131164550781 18.23629951477051 79.75458526611328 14.2408504486084 75.75914764404297 C 10.24541282653809 71.76370239257812 7.108687400817871 67.11147308349609 4.917825222015381 61.93170166015625 C 2.649924993515015 56.56977462768555 1.5 50.87312316894531 1.5 45 C 1.5 39.12687683105469 2.649924993515015 33.43022537231445 4.917825222015381 28.06830024719238 C 7.108687400817871 22.88852500915527 10.24541282653809 18.23629951477051 14.2408504486084 14.2408504486084 C 18.23629951477051 10.24541282653809 22.88852500915527 7.108687400817871 28.06830024719238 4.917825222015381 C 33.43022537231445 2.649924993515015 39.12687683105469 1.5 45 1.5 C 50.87312316894531 1.5 56.56977462768555 2.649924993515015 61.93170166015625 4.917825222015381 C 67.11147308349609 7.108687400817871 71.76370239257812 10.24541282653809 75.75914764404297 14.2408504486084 C 79.75458526611328 18.23629951477051 82.89131164550781 22.88852500915527 85.08217620849609 28.06830024719238 C 87.35007476806641 33.43022537231445 88.5 39.12687683105469 88.5 45 C 88.5 50.87312316894531 87.35007476806641 56.56977462768555 85.08217620849609 61.93170166015625 C 82.89131164550781 67.11147308349609 79.75458526611328 71.76370239257812 75.75914764404297 75.75914764404297 C 71.76370239257812 79.75458526611328 67.11147308349609 82.89131164550781 61.93170166015625 85.08217620849609 C 56.56977462768555 87.35007476806641 50.87312316894531 88.5 45 88.5 Z" stroke="none"/>
        <path d="M 45 3 C 39.32871246337891 3 33.82865524291992 4.110054016113281 28.65262985229492 6.299339294433594 C 23.65165710449219 8.414573669433594 19.15968322753906 11.44334411621094 15.301513671875 15.301513671875 C 11.44334411621094 19.15968322753906 8.414573669433594 23.65165710449219 6.299339294433594 28.65262985229492 C 4.110054016113281 33.82865524291992 3 39.32871246337891 3 45 C 3 50.67128753662109 4.110054016113281 56.17134475708008 6.299339294433594 61.34737396240234 C 8.414573669433594 66.34834289550781 11.44334411621094 70.84031677246094 15.301513671875 74.698486328125 C 19.15968322753906 78.55665588378906 23.65165710449219 81.58542633056641 28.65262985229492 83.70066070556641 C 33.82865524291992 85.88994598388672 39.32871246337891 87 45 87 C 50.67128753662109 87 56.17134475708008 85.88994598388672 61.34737396240234 83.70066070556641 C 66.34834289550781 81.58542633056641 70.84031677246094 78.55665588378906 74.698486328125 74.698486328125 C 78.55665588378906 70.84031677246094 81.58542633056641 66.34834289550781 83.70066070556641 61.34737396240234 C 85.88994598388672 56.17134475708008 87 50.67128753662109 87 45 C 87 39.32871246337891 85.88994598388672 33.82865524291992 83.70066070556641 28.65262985229492 C 81.58542633056641 23.65165710449219 78.55665588378906 19.15968322753906 74.698486328125 15.301513671875 C 70.84031677246094 11.44334411621094 66.34834289550781 8.414573669433594 61.34737396240234 6.299339294433594 C 56.17134475708008 4.110054016113281 50.67128753662109 3 45 3 M 45 0 C 69.85281372070312 0 90 20.14718627929688 90 45 C 90 69.85281372070312 69.85281372070312 90 45 90 C 20.14718627929688 90 0 69.85281372070312 0 45 C 0 20.14718627929688 20.14718627929688 0 45 0 Z" stroke="none" fill="#8a552c"/>
      </g>
    </g>
    <g id="Layer_2" data-name="Layer 2" transform="translate(19.547 712.205)">
      <g id="_1" data-name="1" transform="translate(-0.001 -0.001)">
        <path id="Trazado_986605" data-name="Trazado 986605" d="M51.719,43.553H.76L6.3,28.04H46.182Z" transform="translate(0.074 2.703)" fill="#bac4d3"/>
        <path id="Trazado_986606" data-name="Trazado 986606" d="M47.22,40.231,1.48,41.339l4.747-13.3H45.005Z" transform="translate(0.143 2.703)" fill="#dfebf7"/>
        <path id="Trazado_986607" data-name="Trazado 986607" d="M51.792,44.515H.833a.822.822,0,0,1-.68-.351.866.866,0,0,1-.11-.767L5.591,27.839a.822.822,0,0,1,.778-.559H46.255a.822.822,0,0,1,.778.559l5.591,15.5a.866.866,0,0,1-.11.767A.822.822,0,0,1,51.792,44.515ZM2.006,42.793H50.619L45.674,28.946H6.951Z" transform="translate(0.001 2.629)" fill="#2c3d60"/>
        <path id="Trazado_986608" data-name="Trazado 986608" d="M6.906.76H44.6a1.1,1.1,0,0,1,1.1,1.1V30.625H5.81V1.856A1.1,1.1,0,0,1,6.906.76Z" transform="translate(0.561 0.074)" fill="#b5daff"/>
        <path id="Trazado_986609" data-name="Trazado 986609" d="M45.5,30.474H7.83L10.045,4.995,45.5,2.78Z" transform="translate(0.755 0.269)" fill="#8eb6ff"/>
        <path id="Trazado_986610" data-name="Trazado 986610" d="M45.769,31.575H5.883A.833.833,0,0,1,5.05,30.7V1.941A1.941,1.941,0,0,1,6.991,0H44.661a1.941,1.941,0,0,1,2,1.941V30.7a.833.833,0,0,1-.888.877ZM6.717,29.909H44.935V1.941a.274.274,0,0,0-.274-.274H6.991a.274.274,0,0,0-.274.274Z" transform="translate(0.487 0.001)" fill="#2c3d60"/>
        <path id="Trazado_986611" data-name="Trazado 986611" d="M.76,42.19H51.719v4.44a1.1,1.1,0,0,1-1.1,1.1H1.856a1.1,1.1,0,0,1-1.1-1.1Z" transform="translate(0.074 4.066)" fill="#bac4d3"/>
        <path id="Trazado_986612" data-name="Trazado 986612" d="M50.684,48.629H1.941A1.941,1.941,0,0,1,0,46.689V42.3a.833.833,0,0,1,.833-.833H51.792a.833.833,0,0,1,.833.833v4.385a1.941,1.941,0,0,1-1.941,1.941ZM1.666,43.147v3.6a.274.274,0,0,0,.274.274H50.684a.274.274,0,0,0,.274-.274v-3.6Z" transform="translate(0.001 3.997)" fill="#2c3d60"/>
        <path id="Trazado_986613" data-name="Trazado 986613" d="M26.7,39.056H25.6a.833.833,0,1,1,0-1.666h1.1a.833.833,0,1,1,0,1.666Z" transform="translate(2.387 3.603)" fill="#2c3d60"/>
        <path id="Trazado_986614" data-name="Trazado 986614" d="M26.708,36.016h-1.1a.833.833,0,1,1,0-1.655h1.1a.833.833,0,0,1,0,1.655Z" transform="translate(2.379 3.311)" fill="#2c3d60"/>
        <path id="Trazado_986615" data-name="Trazado 986615" d="M30.74,39.056h-1.1a.833.833,0,1,1,0-1.666h1.1a.833.833,0,1,1,0,1.666Z" transform="translate(2.777 3.603)" fill="#2c3d60"/>
        <path id="Trazado_986616" data-name="Trazado 986616" d="M30.748,36.016h-1.1a.833.833,0,1,1,0-1.655h1.1a.833.833,0,1,1,0,1.655Z" transform="translate(2.768 3.311)" fill="#2c3d60"/>
        <path id="Trazado_986617" data-name="Trazado 986617" d="M36.992,39.056H33.7a.833.833,0,0,1,0-1.666h3.289a.833.833,0,0,1,0,1.666Z" transform="translate(3.168 3.603)" fill="#2c3d60"/>
        <path id="Trazado_986618" data-name="Trazado 986618" d="M35.894,36.016H33.7a.833.833,0,1,1,0-1.655h2.193a.833.833,0,1,1,0,1.655Z" transform="translate(3.158 3.311)" fill="#2c3d60"/>
        <path id="Trazado_986619" data-name="Trazado 986619" d="M41.946,39.056H39.753a.833.833,0,0,1,0-1.666h2.193a.833.833,0,0,1,0,1.666Z" transform="translate(3.751 3.603)" fill="#2c3d60"/>
        <path id="Trazado_986620" data-name="Trazado 986620" d="M40.944,36.016H38.752a.833.833,0,1,1,0-1.655h2.193a.833.833,0,1,1,0,1.655Z" transform="translate(3.645 3.311)" fill="#2c3d60"/>
        <path id="Trazado_986621" data-name="Trazado 986621" d="M26.708,32.986h-1.1a.833.833,0,1,1,0-1.655h1.1a.833.833,0,0,1,0,1.655Z" transform="translate(2.379 3.019)" fill="#2c3d60"/>
        <path id="Trazado_986622" data-name="Trazado 986622" d="M30.748,32.986h-1.1a.833.833,0,1,1,0-1.655h1.1a.833.833,0,1,1,0,1.655Z" transform="translate(2.768 3.019)" fill="#2c3d60"/>
        <path id="Trazado_986623" data-name="Trazado 986623" d="M34.788,32.986h-1.1a.833.833,0,1,1,0-1.655h1.1a.833.833,0,1,1,0,1.655Z" transform="translate(3.158 3.019)" fill="#2c3d60"/>
        <path id="Trazado_986624" data-name="Trazado 986624" d="M39.934,32.986H37.742a.833.833,0,1,1,0-1.655h2.193a.833.833,0,1,1,0,1.655Z" transform="translate(3.548 3.019)" fill="#2c3d60"/>
        <path id="Trazado_986625" data-name="Trazado 986625" d="M22.65,39.056h-1.1a.833.833,0,1,1,0-1.666h1.1a.833.833,0,0,1,0,1.666Z" transform="translate(1.997 3.603)" fill="#2c3d60"/>
        <path id="Trazado_986626" data-name="Trazado 986626" d="M22.641,36.016h-1.1a.833.833,0,0,1,0-1.655h1.1a.833.833,0,1,1,0,1.655Z" transform="translate(2.006 3.311)" fill="#2c3d60"/>
        <path id="Trazado_986627" data-name="Trazado 986627" d="M18.61,39.056h-1.1a.833.833,0,1,1,0-1.666h1.1a.833.833,0,0,1,0,1.666Z" transform="translate(1.608 3.603)" fill="#2c3d60"/>
        <path id="Trazado_986628" data-name="Trazado 986628" d="M18.618,36.016h-1.1a.833.833,0,1,1,0-1.655h1.1a.833.833,0,1,1,0,1.655Z" transform="translate(1.599 3.311)" fill="#2c3d60"/>
        <path id="Trazado_986629" data-name="Trazado 986629" d="M14.762,39.056H11.473a.833.833,0,1,1,0-1.666h3.289a.833.833,0,0,1,0,1.666Z" transform="translate(1.026 3.603)" fill="#2c3d60"/>
        <path id="Trazado_986630" data-name="Trazado 986630" d="M14.674,36.016H12.482a.833.833,0,1,1,0-1.655h2.193a.833.833,0,1,1,0,1.655Z" transform="translate(1.114 3.311)" fill="#2c3d60"/>
        <path id="Trazado_986631" data-name="Trazado 986631" d="M8.606,39.056H6.413a.833.833,0,1,1,0-1.666H8.606a.833.833,0,0,1,0,1.666Z" transform="translate(0.538 3.603)" fill="#2c3d60"/>
        <path id="Trazado_986632" data-name="Trazado 986632" d="M9.624,36.016H7.432a.833.833,0,1,1,0-1.655H9.624a.833.833,0,1,1,0,1.655Z" transform="translate(0.627 3.311)" fill="#2c3d60"/>
        <path id="Trazado_986633" data-name="Trazado 986633" d="M22.641,32.986h-1.1a.833.833,0,0,1,0-1.655h1.1a.833.833,0,1,1,0,1.655Z" transform="translate(2.006 3.019)" fill="#2c3d60"/>
        <path id="Trazado_986634" data-name="Trazado 986634" d="M18.618,32.986h-1.1a.833.833,0,1,1,0-1.655h1.1a.833.833,0,1,1,0,1.655Z" transform="translate(1.599 3.019)" fill="#2c3d60"/>
        <path id="Trazado_986635" data-name="Trazado 986635" d="M14.578,32.986h-1.1a.833.833,0,1,1,0-1.655h1.1a.833.833,0,1,1,0,1.655Z" transform="translate(1.21 3.019)" fill="#2c3d60"/>
        <path id="Trazado_986636" data-name="Trazado 986636" d="M10.634,32.986H8.442a.833.833,0,1,1,0-1.655h2.193a.833.833,0,1,1,0,1.655Z" transform="translate(0.725 3.019)" fill="#2c3d60"/>
        <path id="Trazado_986637" data-name="Trazado 986637" d="M39.394,12.417a.8.8,0,0,1-.614-.274A18.013,18.013,0,0,0,25.317,5.915a18.013,18.013,0,0,0-13.463,6.227.833.833,0,1,1-1.239-1.1,19.625,19.625,0,0,1,14.7-6.786,19.625,19.625,0,0,1,14.7,6.775.833.833,0,0,1-.066,1.173A.844.844,0,0,1,39.394,12.417Z" transform="translate(0.996 0.411)" fill="#2c3d60"/>
        <path id="Trazado_986638" data-name="Trazado 986638" d="M15.5,16.508a.822.822,0,0,1-.6-1.392,13.573,13.573,0,0,1,10-4.385h0a13.573,13.573,0,0,1,10,4.385.822.822,0,1,1-1.206,1.1,11.852,11.852,0,0,0-17.542,0,.811.811,0,0,1-.647.3Z" transform="translate(1.414 1.035)" fill="#2c3d60"/>
        <path id="Trazado_986639" data-name="Trazado 986639" d="M29.169,20.586a.822.822,0,0,1-.6-.263,5.482,5.482,0,0,0-8.179,0,.833.833,0,0,1-1.217-1.1,7.17,7.17,0,0,1,10.613,0,.833.833,0,0,1,0,1.173.8.8,0,0,1-.614.186Z" transform="translate(1.836 1.627)" fill="#2c3d60"/>
        <path id="Trazado_986640" data-name="Trazado 986640" d="M23.318,23.1a1.1,1.1,0,1,0,.778-.324,1.1,1.1,0,0,0-.778.324Z" transform="translate(2.217 2.195)" fill="#2c3d60"/>
      </g>
    </g>
  </g>
</svg>
