<svg xmlns="http://www.w3.org/2000/svg" xmlns:xlink="http://www.w3.org/1999/xlink" width="108" height="108" viewBox="0 0 108 108">
  <defs>
    <filter id="Fondo" x="0" y="0" width="108" height="108" filterUnits="userSpaceOnUse">
      <feOffset dy="3" input="SourceAlpha"/>
      <feGaussianBlur stdDeviation="3" result="blur"/>
      <feFlood flood-opacity="0.161"/>
      <feComposite operator="in" in2="blur"/>
      <feComposite in="SourceGraphic"/>
    </filter>
  </defs>
  <g id="Icono" transform="translate(8.5 -689)">
    <g transform="matrix(1, 0, 0, 1, -8.5, 689)" filter="url(#Fondo)">
      <g id="Fondo-2" data-name="Fondo" transform="translate(9 6)" fill="#fee1ca">
        <path d="M 45 88.5 C 39.12687683105469 88.5 33.43022537231445 87.35007476806641 28.06830024719238 85.08217620849609 C 22.88852500915527 82.89131164550781 18.23629951477051 79.75458526611328 14.2408504486084 75.75914764404297 C 10.24541282653809 71.76370239257812 7.108687400817871 67.11147308349609 4.917825222015381 61.93170166015625 C 2.649924993515015 56.56977462768555 1.5 50.87312316894531 1.5 45 C 1.5 39.12687683105469 2.649924993515015 33.43022537231445 4.917825222015381 28.06830024719238 C 7.108687400817871 22.88852500915527 10.24541282653809 18.23629951477051 14.2408504486084 14.2408504486084 C 18.23629951477051 10.24541282653809 22.88852500915527 7.108687400817871 28.06830024719238 4.917825222015381 C 33.43022537231445 2.649924993515015 39.12687683105469 1.5 45 1.5 C 50.87312316894531 1.5 56.56977462768555 2.649924993515015 61.93170166015625 4.917825222015381 C 67.11147308349609 7.108687400817871 71.76370239257812 10.24541282653809 75.75914764404297 14.2408504486084 C 79.75458526611328 18.23629951477051 82.89131164550781 22.88852500915527 85.08217620849609 28.06830024719238 C 87.35007476806641 33.43022537231445 88.5 39.12687683105469 88.5 45 C 88.5 50.87312316894531 87.35007476806641 56.56977462768555 85.08217620849609 61.93170166015625 C 82.89131164550781 67.11147308349609 79.75458526611328 71.76370239257812 75.75914764404297 75.75914764404297 C 71.76370239257812 79.75458526611328 67.11147308349609 82.89131164550781 61.93170166015625 85.08217620849609 C 56.56977462768555 87.35007476806641 50.87312316894531 88.5 45 88.5 Z" stroke="none"/>
        <path d="M 45 3 C 39.32871246337891 3 33.82865524291992 4.110054016113281 28.65262985229492 6.299339294433594 C 23.65165710449219 8.414573669433594 19.15968322753906 11.44334411621094 15.301513671875 15.301513671875 C 11.44334411621094 19.15968322753906 8.414573669433594 23.65165710449219 6.299339294433594 28.65262985229492 C 4.110054016113281 33.82865524291992 3 39.32871246337891 3 45 C 3 50.67128753662109 4.110054016113281 56.17134475708008 6.299339294433594 61.34737396240234 C 8.414573669433594 66.34834289550781 11.44334411621094 70.84031677246094 15.301513671875 74.698486328125 C 19.15968322753906 78.55665588378906 23.65165710449219 81.58542633056641 28.65262985229492 83.70066070556641 C 33.82865524291992 85.88994598388672 39.32871246337891 87 45 87 C 50.67128753662109 87 56.17134475708008 85.88994598388672 61.34737396240234 83.70066070556641 C 66.34834289550781 81.58542633056641 70.84031677246094 78.55665588378906 74.698486328125 74.698486328125 C 78.55665588378906 70.84031677246094 81.58542633056641 66.34834289550781 83.70066070556641 61.34737396240234 C 85.88994598388672 56.17134475708008 87 50.67128753662109 87 45 C 87 39.32871246337891 85.88994598388672 33.82865524291992 83.70066070556641 28.65262985229492 C 81.58542633056641 23.65165710449219 78.55665588378906 19.15968322753906 74.698486328125 15.301513671875 C 70.84031677246094 11.44334411621094 66.34834289550781 8.414573669433594 61.34737396240234 6.299339294433594 C 56.17134475708008 4.110054016113281 50.67128753662109 3 45 3 M 45 0 C 69.85281372070312 0 90 20.14718627929688 90 45 C 90 69.85281372070312 69.85281372070312 90 45 90 C 20.14718627929688 90 0 69.85281372070312 0 45 C 0 20.14718627929688 20.14718627929688 0 45 0 Z" stroke="none" fill="#8a552c"/>
      </g>
    </g>
    <g id="Layer_2" data-name="Layer 2" transform="translate(21.728 713.011)">
      <g id="_1" data-name="1">
        <rect id="Rect치ngulo_408304" data-name="Rect치ngulo 408304" width="40.655" height="40.655" transform="translate(0.805 9.359)" fill="#bac4d3"/>
        <path id="Trazado_986581" data-name="Trazado 986581" d="M36.058,43.079.76,46.287V8.84H38.207Z" transform="translate(0.045 0.519)" fill="#fff"/>
        <path id="Trazado_986582" data-name="Trazado 986582" d="M35.1,43.122,1.49,46.171,4.9,13.943a1.059,1.059,0,0,1,.953-.953L38.111,9.56,36.079,42.116A1.059,1.059,0,0,1,35.1,43.122Z" transform="translate(0.088 0.561)" fill="#dfebf7"/>
        <path id="Trazado_986583" data-name="Trazado 986583" d="M37.182,50.344H.8a.8.8,0,0,1-.8-.8V8.885a.8.8,0,0,1,.8-.8H41.46a.8.8,0,0,1,.8.8v2.192a.8.8,0,1,1-1.609,0V9.689H1.609V48.735H37.182a.8.8,0,1,1,0,1.609Z" transform="translate(0 0.475)" fill="#2c3d60"/>
        <path id="Trazado_986584" data-name="Trazado 986584" d="M39.2,34.506a.8.8,0,0,1-.8-.8V25.1a.8.8,0,0,1,1.609,0v8.6A.8.8,0,0,1,39.2,34.506Z" transform="translate(2.255 1.427)" fill="#2c3d60"/>
        <rect id="Rect치ngulo_408305" data-name="Rect치ngulo 408305" width="40.655" height="8.555" transform="translate(0.805 0.805)" fill="#b5daff"/>
        <path id="Trazado_986585" data-name="Trazado 986585" d="M41.3,9.2H2.78l.9-4.51a1.059,1.059,0,0,1,1.059-.858l36.6-1.059Z" transform="translate(0.163 0.163)" fill="#8eb6ff"/>
        <path id="Trazado_986586" data-name="Trazado 986586" d="M41.46,10.164H.8a.8.8,0,0,1-.8-.8V.8A.8.8,0,0,1,.8,0H41.46a.8.8,0,0,1,.8.8V9.359A.8.8,0,0,1,41.46,10.164ZM1.609,8.555H40.655V1.609H1.609Z" fill="#2c3d60"/>
        <path id="Trazado_986587" data-name="Trazado 986587" d="M5.416,4.273A1.059,1.059,0,0,0,5.152,4.1a.815.815,0,0,0-.879.169,1.059,1.059,0,0,0-.169.265.773.773,0,0,0,0,.614,1.059,1.059,0,0,0,.169.265.836.836,0,0,0,.572.233.794.794,0,0,0,.307-.064,1.059,1.059,0,0,0,.265-.169,1.059,1.059,0,0,0,.169-.265.773.773,0,0,0,0-.614A1.059,1.059,0,0,0,5.416,4.273Z" transform="translate(0.237 0.237)" fill="#2c3d60"/>
        <path id="Trazado_986588" data-name="Trazado 986588" d="M9.456,4.273a.8.8,0,0,0-1.133,0,.836.836,0,0,0-.18.265.794.794,0,0,0-.064.307.762.762,0,0,0,.064.307.836.836,0,0,0,.18.265.826.826,0,0,0,.254.169.794.794,0,0,0,.307.064.815.815,0,0,0,.572-.233,1.059,1.059,0,0,0,.169-.265.762.762,0,0,0,.064-.307.794.794,0,0,0-.064-.307A1.059,1.059,0,0,0,9.456,4.273Z" transform="translate(0.475 0.237)" fill="#2c3d60"/>
        <path id="Trazado_986589" data-name="Trazado 986589" d="M13.665,4.538a1.059,1.059,0,0,0-.169-.265.826.826,0,0,0-.254-.169.8.8,0,0,0-.625,0,.826.826,0,0,0-.254.169,1.059,1.059,0,0,0-.169.265.794.794,0,0,0-.064.307.762.762,0,0,0,.064.307,1.059,1.059,0,0,0,.169.265.826.826,0,0,0,.254.169.794.794,0,0,0,.307.064.847.847,0,0,0,.318-.064.667.667,0,0,0,.254-.169,1.059,1.059,0,0,0,.169-.265.773.773,0,0,0,0-.614Z" transform="translate(0.712 0.237)" fill="#2c3d60"/>
        <path id="Trazado_986590" data-name="Trazado 986590" d="M25.95,31.544A8.565,8.565,0,1,1,17.406,23a8.565,8.565,0,0,1,8.544,8.544Z" transform="translate(0.518 1.351)" fill="#bac4d3"/>
        <path id="Trazado_986591" data-name="Trazado 986591" d="M42.767,43.394a.847.847,0,0,1-.318-.064L14.637,31.558a.8.8,0,0,1,0-1.472L43.508,17.244a.806.806,0,1,1,.656,1.472l-27.2,12.091L43.074,41.849a.8.8,0,0,1,.434,1.059.826.826,0,0,1-.741.487Z" transform="translate(0.831 1.009)" fill="#2c3d60"/>
        <path id="Trazado_986592" data-name="Trazado 986592" d="M23.95,30.533A8.565,8.565,0,1,1,15.385,22a8.565,8.565,0,0,1,8.565,8.533Z" transform="translate(0.401 1.292)" fill="#ea426a"/>
        <path id="Trazado_986593" data-name="Trazado 986593" d="M21.832,29.466a8.544,8.544,0,0,0-3.695-7.041,8.555,8.555,0,0,0-7.591,15.15,8.533,8.533,0,0,0,11.286-8.11Z" transform="translate(0.402 1.29)" fill="#ff5d5d"/>
        <path id="Trazado_986594" data-name="Trazado 986594" d="M15.43,39.949a9.37,9.37,0,1,1,9.359-9.37,9.37,9.37,0,0,1-9.359,9.37Zm0-17.12a7.76,7.76,0,1,0,7.75,7.75,7.76,7.76,0,0,0-7.75-7.75Z" transform="translate(0.355 1.246)" fill="#2c3d60"/>
        <path id="Trazado_986595" data-name="Trazado 986595" d="M18.292,30.236a3.176,3.176,0,1,1-3.176-3.176,3.176,3.176,0,0,1,3.176,3.176Z" transform="translate(0.701 1.589)" fill="#dfebf7"/>
        <path id="Trazado_986596" data-name="Trazado 986596" d="M15.133,34.3a4.013,4.013,0,1,1,4-4.013,4.013,4.013,0,0,1-4,4.013Zm0-6.416a2.414,2.414,0,1,0,2.4,2.4,2.414,2.414,0,0,0-2.4-2.4Z" transform="translate(0.652 1.543)" fill="#2c3d60"/>
        <path id="Trazado_986597" data-name="Trazado 986597" d="M45.394,40.285a6.352,6.352,0,0,0-2.382-4.955,6.744,6.744,0,0,0-1.472-.18A6.352,6.352,0,0,0,37.5,46.51a6.162,6.162,0,0,0,1.472.191,6.416,6.416,0,0,0,6.426-6.416Z" transform="translate(2.058 2.064)" fill="#8eb6ff"/>
        <path id="Trazado_986598" data-name="Trazado 986598" d="M42.307,41.239a1.059,1.059,0,1,1-1.059-1.059A1.059,1.059,0,0,1,42.307,41.239Z" transform="translate(2.36 2.36)" fill="#2c3d60"/>
        <path id="Trazado_986599" data-name="Trazado 986599" d="M42.876,35.295a6.352,6.352,0,0,1-4.044,11.339,6.162,6.162,0,0,1-1.472-.191A6.463,6.463,0,1,0,42.876,35.21Z" transform="translate(2.194 2.068)" fill="#8396ff"/>
        <path id="Trazado_986600" data-name="Trazado 986600" d="M41.581,48.8A7.221,7.221,0,1,1,48.8,41.581,7.221,7.221,0,0,1,41.581,48.8Zm0-12.842a5.622,5.622,0,1,0,5.611,5.622,5.622,5.622,0,0,0-5.611-5.622Z" transform="translate(2.018 2.018)" fill="#2c3d60"/>
        <path id="Trazado_986601" data-name="Trazado 986601" d="M45.069,16.886a5.368,5.368,0,0,1-5.357,5.357,5.58,5.58,0,0,1-.942-.1A5.294,5.294,0,1,0,43.333,13a5.294,5.294,0,0,1,1.736,3.886Z" transform="translate(2.277 0.763)" fill="#e78251"/>
        <path id="Trazado_986602" data-name="Trazado 986602" d="M37.14,18.235a5.294,5.294,0,0,0,1.726,3.917,5.579,5.579,0,0,0,.942.1,5.294,5.294,0,0,0,3.621-9.243,5.463,5.463,0,0,0-.942-.1,5.357,5.357,0,0,0-5.347,5.325Z" transform="translate(2.181 0.758)" fill="#feb166"/>
        <path id="Trazado_986603" data-name="Trazado 986603" d="M43.317,18a1.059,1.059,0,1,1-1.059-1.059A1.059,1.059,0,0,1,43.317,18Z" transform="translate(2.42 0.995)" fill="#2c3d60"/>
        <path id="Trazado_986604" data-name="Trazado 986604" d="M42.531,24.432a6.151,6.151,0,1,1,6.151-6.151,6.151,6.151,0,0,1-6.151,6.151Zm0-10.7a4.553,4.553,0,1,0,4.542,4.553,4.553,4.553,0,0,0-4.542-4.553Z" transform="translate(2.136 0.712)" fill="#2c3d60"/>
      </g>
    </g>
  </g>
</svg>
