<svg xmlns="http://www.w3.org/2000/svg" width="820" height="315.982" viewBox="0 0 820 315.982">
  <g id="Grupo_1148974" data-name="Grupo 1148974" transform="translate(-390 -5296.574)">
    <g id="Grupo_1148913" data-name="Grupo 1148913" transform="translate(390 5296.574)">
      <path id="Trazado_986423" data-name="Trazado 986423" d="M134.723,264.24a129.515,129.515,0,0,1-91.581-221.1A129.515,129.515,0,1,1,226.3,226.306a128.668,128.668,0,0,1-91.581,37.934" transform="translate(-3.84 -3.84)" fill="#f8f8f8"/>
      <path id="Trazado_986424" data-name="Trazado 986424" d="M130.884,2.736a128.182,128.182,0,0,1,49.88,246.225A128.181,128.181,0,0,1,81,12.806a127.34,127.34,0,0,1,49.88-10.069m0-2.736A130.884,130.884,0,1,0,261.767,130.884,130.884,130.884,0,0,0,130.884,0" transform="translate(0)" fill="#3c97da"/>
      <path id="Trazado_986425" data-name="Trazado 986425" d="M0,130.884,130.884,0V130.884Z" transform="translate(130.884 130.884) rotate(45)" fill="#3c97da"/>
      <g id="_003-protected" data-name="003-protected" transform="translate(67.42 38.637)">
        <path id="Trazado_986514" data-name="Trazado 986514" d="M75.764,93.194l-3.941,2.071a2.166,2.166,0,0,1-2.015,0l-3.941-2.071C44.226,81.82,30.9,60.83,30.9,38.119V24.247a2.153,2.153,0,0,1,1.91-2.15c7.459-.787,13.39-6.127,14.335-12.881a2.178,2.178,0,0,1,2.148-1.895H92.338a2.178,2.178,0,0,1,2.148,1.895c.945,6.754,6.876,12.094,14.335,12.881a2.153,2.153,0,0,1,1.91,2.15V38.119C110.731,60.83,97.405,81.82,75.764,93.194Z" transform="translate(-6.022 -6.023)" fill="#e1e6e9"/>
        <path id="Trazado_986515" data-name="Trazado 986515" d="M291.192,22.1c-7.459-.787-13.39-6.127-14.335-12.881a2.178,2.178,0,0,0-2.148-1.895h-2.931c.422,9.364,7.094,16,14.314,16.766a2.153,2.153,0,0,1,1.91,2.15V40.109c0,22.711-13.326,43.7-34.967,55.075l-.455.239a2.162,2.162,0,0,0,1.614-.158l3.941-2.071C279.776,81.819,293.1,60.83,293.1,38.118V24.246A2.154,2.154,0,0,0,291.192,22.1Z" transform="translate(-188.393 -6.022)" fill="#cbcbcb"/>
        <path id="Trazado_986516" data-name="Trazado 986516" d="M98.8,115.394A62.006,62.006,0,0,1,75.192,93.956a53.719,53.719,0,0,1-8.5-28.8V57.286A2.78,2.78,0,0,1,68.44,54.7,24.4,24.4,0,0,0,81.562,42.64a2.774,2.774,0,0,1,2.508-1.573h32.376a2.774,2.774,0,0,1,2.508,1.573A24.4,24.4,0,0,0,132.076,54.7a2.78,2.78,0,0,1,1.751,2.587v7.874a53.718,53.718,0,0,1-8.5,28.8,62.007,62.007,0,0,1-23.605,21.438l-.163.086a2.789,2.789,0,0,1-2.595,0Z" transform="translate(-35.465 -33.785)" fill="#fe9d52"/>
        <path id="Trazado_986517" data-name="Trazado 986517" d="M287.818,54.7l-.136-.056-.227-.093q-.193-.08-.385-.163l-.221-.1c-.136-.06-.272-.123-.407-.185l-.184-.085q-.292-.138-.579-.283l-.043-.022q-.266-.135-.528-.276l-.185-.1c-.127-.07-.253-.14-.379-.212l-.208-.12q-.178-.1-.353-.21l-.2-.124q-.184-.114-.365-.231l-.177-.113q-.248-.162-.491-.33l-.037-.025q-.261-.181-.517-.368l-.159-.118q-.176-.131-.35-.264l-.185-.144q-.16-.126-.318-.254l-.183-.15q-.162-.134-.321-.271l-.163-.14q-.2-.172-.389-.347l-.08-.072q-.231-.212-.456-.43l-.129-.127c-.107-.1-.213-.21-.318-.317l-.159-.164q-.141-.146-.279-.294l-.16-.174q-.138-.151-.273-.3c-.049-.055-.1-.11-.146-.166q-.159-.183-.313-.369l-.09-.108q-.2-.241-.389-.487l-.1-.127q-.142-.184-.28-.371c-.044-.06-.087-.12-.131-.181q-.119-.164-.235-.331l-.134-.194q-.114-.167-.224-.336c-.041-.063-.082-.125-.123-.188-.082-.128-.163-.257-.242-.386-.029-.048-.059-.095-.088-.143q-.161-.266-.314-.536c-.022-.038-.042-.077-.063-.115q-.12-.214-.236-.431c-.034-.064-.067-.128-.1-.192q-.095-.182-.186-.365-.052-.105-.1-.211c-.026-.053-.053-.106-.079-.16a2.774,2.774,0,0,0-2.508-1.573H256V115.8a2.788,2.788,0,0,0,1.3-.32l.163-.086a62.006,62.006,0,0,0,23.605-21.438,53.717,53.717,0,0,0,8.5-28.8V57.284A2.78,2.78,0,0,0,287.818,54.7Z" transform="translate(-191.206 -33.783)" fill="#ffcaa2"/>
        <path id="Trazado_986518" data-name="Trazado 986518" d="M287.818,54.7l-.136-.056-.227-.093q-.193-.08-.385-.163l-.221-.1c-.136-.06-.272-.123-.407-.185l-.184-.085q-.292-.138-.579-.283l-.043-.022q-.266-.135-.528-.276l-.185-.1c-.127-.07-.253-.14-.379-.212l-.208-.12q-.178-.1-.353-.21l-.2-.124q-.184-.114-.365-.231l-.177-.113q-.248-.162-.491-.33l-.037-.025q-.261-.181-.517-.368l-.159-.118q-.176-.131-.35-.264l-.185-.144q-.16-.126-.318-.254l-.183-.15q-.162-.134-.321-.271l-.164-.14q-.2-.172-.389-.347l-.08-.072q-.231-.212-.456-.43l-.129-.127c-.107-.1-.213-.21-.318-.317l-.159-.164q-.141-.146-.279-.294l-.16-.174q-.138-.151-.273-.3c-.049-.055-.1-.11-.146-.166q-.159-.183-.313-.369l-.09-.108q-.2-.241-.389-.487l-.1-.127q-.142-.184-.28-.371c-.044-.06-.087-.12-.131-.181q-.119-.164-.235-.331l-.134-.194q-.114-.167-.224-.336c-.041-.063-.082-.125-.123-.188-.082-.128-.163-.257-.242-.386-.029-.048-.059-.095-.088-.143q-.161-.266-.314-.536c-.022-.038-.042-.077-.063-.115q-.12-.214-.236-.431c-.034-.064-.067-.128-.1-.192q-.095-.182-.186-.365-.052-.105-.1-.211c-.026-.053-.053-.106-.079-.16a2.774,2.774,0,0,0-2.508-1.573h-4.48a24.878,24.878,0,0,1,1.969,2.971c.03.051.052.106.079.16l.1.211q.092.184.186.365c.034.064.066.129.1.192q.116.217.236.431c.021.038.042.077.064.115q.153.27.314.536c.029.048.059.095.088.143q.119.194.242.386c.04.063.082.125.123.188.074.113.148.225.224.336l.134.194q.116.166.235.331l.131.181q.138.187.28.371l.1.127q.191.246.389.487l.09.108c.1.124.207.247.313.369l.146.166q.135.153.273.3l.16.174q.138.148.279.294l.159.164q.157.16.318.317l.129.127q.225.218.456.43l.08.072q.193.176.389.347l.163.14q.159.136.321.271l.183.15q.158.128.318.254l.185.144q.173.134.35.264l.159.118q.256.187.517.368l.037.025q.243.168.491.33l.177.113q.181.117.365.231l.2.124q.176.106.353.21l.208.12q.188.107.379.212l.185.1q.262.141.528.276l.043.022q.287.145.579.283l.184.085c.135.063.27.125.407.185l.221.1q.192.083.385.163l.227.093.136.056a2.78,2.78,0,0,1,1.751,2.587v7.874a53.718,53.718,0,0,1-8.5,28.8A66.159,66.159,0,0,1,256,115.723v.073a2.788,2.788,0,0,0,1.3-.32l.163-.086a62.006,62.006,0,0,0,23.605-21.438,53.717,53.717,0,0,0,8.5-28.8V57.283A2.78,2.78,0,0,0,287.818,54.7Z" transform="translate(-191.207 -33.782)" fill="#fe9d52"/>
        <path id="Trazado_986519" data-name="Trazado 986519" d="M164.592,162.183l-17.336-18.2a1.861,1.861,0,0,1,.064-2.631l4.523-4.309a1.861,1.861,0,0,1,2.631.064l8.939,9.384a1.861,1.861,0,0,0,2.871-.216l17.65-25.2a1.861,1.861,0,0,1,2.592-.457l5.116,3.584a1.861,1.861,0,0,1,.457,2.592l-24.634,35.17A1.861,1.861,0,0,1,164.592,162.183Z" transform="translate(-101.323 -98.956)" fill="#ffd278"/>
        <path id="Trazado_986520" data-name="Trazado 986520" d="M113.983,266.057a1.3,1.3,0,0,0-1.611.88c-4.719,16.1-16.073,29.566-31.969,37.92l-3.941,2.072a.866.866,0,0,1-.807,0l-3.941-2.072c-15.807-8.308-27.135-21.69-31.9-37.682a1.3,1.3,0,0,0-2.488.741,62.533,62.533,0,0,0,12.225,22.5,69.368,69.368,0,0,0,20.954,16.738l3.941,2.072a3.462,3.462,0,0,0,3.222,0l3.941-2.072a69.343,69.343,0,0,0,21.039-16.84,62.479,62.479,0,0,0,12.213-22.648A1.3,1.3,0,0,0,113.983,266.057Z" transform="translate(-11.265 -218.836)"/>
        <path id="Trazado_986521" data-name="Trazado 986521" d="M102.936,14.783c-6.9-.728-12.318-5.567-13.186-11.77A3.5,3.5,0,0,0,86.316,0H43.271a3.5,3.5,0,0,0-3.434,3.013c-.868,6.2-6.29,11.042-13.186,11.77a3.441,3.441,0,0,0-3.072,3.441V32.1a59.452,59.452,0,0,0,.882,10.188,1.3,1.3,0,1,0,2.558-.446,56.854,56.854,0,0,1-.844-9.742V18.224a.86.86,0,0,1,.748-.859c8.083-.853,14.451-6.607,15.484-13.992a.878.878,0,0,1,.862-.776H86.316a.877.877,0,0,1,.862.776c1.033,7.386,7.4,13.139,15.484,13.992a.86.86,0,0,1,.748.859V32.1a56.836,56.836,0,0,1-.794,9.45,1.3,1.3,0,0,0,2.56.433,59.455,59.455,0,0,0,.83-9.883V18.224A3.44,3.44,0,0,0,102.936,14.783Z" transform="translate(0)"/>
        <path id="Trazado_986522" data-name="Trazado 986522" d="M92.171,110.519l.164.086a4.087,4.087,0,0,0,3.8,0l.163-.086a63.305,63.305,0,0,0,24.1-21.891A55.013,55.013,0,0,0,129.1,59.137V51.262a4.055,4.055,0,0,0-2.572-3.794,22.966,22.966,0,0,1-12.427-11.41,4.089,4.089,0,0,0-3.681-2.313H78.049a4.089,4.089,0,0,0-3.681,2.313,22.964,22.964,0,0,1-12.427,11.41,4.055,4.055,0,0,0-2.572,3.794v7.874a55.012,55.012,0,0,0,8.706,29.491A63.3,63.3,0,0,0,92.171,110.519ZM61.965,59.137V51.262a1.473,1.473,0,0,1,.931-1.38A25.552,25.552,0,0,0,76.712,37.173a1.481,1.481,0,0,1,1.336-.832h32.375a1.481,1.481,0,0,1,1.336.832,25.552,25.552,0,0,0,13.816,12.709,1.473,1.473,0,0,1,.931,1.38v7.874a52.419,52.419,0,0,1-8.3,28.1,60.707,60.707,0,0,1-23.113,20.984l-.163.086a1.49,1.49,0,0,1-1.386,0l-.163-.086h0A60.706,60.706,0,0,1,70.266,87.236,52.421,52.421,0,0,1,61.965,59.137Z" transform="translate(-29.443 -27.761)"/>
        <path id="Trazado_986523" data-name="Trazado 986523" d="M159.916,158.035q.119,0,.24-.009a3.147,3.147,0,0,0,2.351-1.338l24.635-35.169a3.159,3.159,0,0,0-.775-4.4l-5.116-3.584a3.159,3.159,0,0,0-4.4.775l-17.65,25.2a.563.563,0,0,1-.868.065l-8.939-9.384a3.163,3.163,0,0,0-4.466-.108l-4.523,4.309a3.159,3.159,0,0,0-.109,4.466l17.336,18.2A3.144,3.144,0,0,0,159.916,158.035Zm-17.9-21.372a.559.559,0,0,1,.174-.394l4.523-4.309a.564.564,0,0,1,.8.02l8.939,9.384a3.159,3.159,0,0,0,4.875-.367l17.649-25.2a.563.563,0,0,1,.784-.138l5.116,3.584a.563.563,0,0,1,.138.784L160.38,155.2a.563.563,0,0,1-.868.065l-17.336-18.2A.561.561,0,0,1,142.02,136.663Z" transform="translate(-95.303 -92.932)"/>
      </g>
    </g>
    <path id="Trazado_986734" data-name="Trazado 986734" d="M14.93,10.082H7.238v4.071H16V17H4V1.166H15.617v2.8H7.238V7.332H14.93ZM8.076-.1l2.062-3.212h3.416L10.289-.1ZM23.7,14.819v2.288l-1.45.054a3.892,3.892,0,0,1-2.965-.752,2.239,2.239,0,0,1-.516-1.622V7.579H17.132V5.4h1.633V2.133h3.029V5.4h1.9V7.579h-1.9v6.188a1.394,1.394,0,0,0,.183.9,2.011,2.011,0,0,0,1.117.177q.14,0,.3-.005T23.7,14.819Zm5.113-9.528V17H25.7V5.291Zm0-4.222V3.895H25.7V1.069ZM41.9,9.491H38.767a2.717,2.717,0,0,0-.44-1.182,1.847,1.847,0,0,0-1.6-.709,2.108,2.108,0,0,0-2.116,1.536,6.423,6.423,0,0,0-.3,2.17,5.905,5.905,0,0,0,.3,2.073,2.043,2.043,0,0,0,2.063,1.461,1.819,1.819,0,0,0,1.525-.58,2.887,2.887,0,0,0,.548-1.5h3.126a5.122,5.122,0,0,1-1.01,2.643A4.908,4.908,0,0,1,36.6,17.408a4.989,4.989,0,0,1-4.157-1.676,6.781,6.781,0,0,1-1.332-4.351,6.881,6.881,0,0,1,1.472-4.694A5.123,5.123,0,0,1,36.64,5.012a6.114,6.114,0,0,1,3.6.988A4.6,4.6,0,0,1,41.9,9.491Zm2.546-2.933q1.214-1.547,4.168-1.547a7.405,7.405,0,0,1,3.416.763,2.928,2.928,0,0,1,1.493,2.879v5.371q0,.559.021,1.354a1.7,1.7,0,0,0,.183.816,1.1,1.1,0,0,0,.451.354V17h-3.33a3.41,3.41,0,0,1-.193-.666q-.054-.312-.086-.709A6.29,6.29,0,0,1,49.111,16.8a4.394,4.394,0,0,1-2.234.569,3.842,3.842,0,0,1-2.626-.908,3.238,3.238,0,0,1-1.037-2.573,3.339,3.339,0,0,1,1.665-3.126,7.393,7.393,0,0,1,2.686-.752l1.042-.129a4.779,4.779,0,0,0,1.214-.269.92.92,0,0,0,.655-.87,1.032,1.032,0,0,0-.5-.994,3.12,3.12,0,0,0-1.466-.274,1.91,1.91,0,0,0-1.536.537,2.232,2.232,0,0,0-.43,1.074H43.59A4.493,4.493,0,0,1,44.449,6.559Zm2.277,8.229a1.6,1.6,0,0,0,1.053.354,3.118,3.118,0,0,0,1.821-.58,2.474,2.474,0,0,0,.865-2.116V11.307a3.327,3.327,0,0,1-.585.3,4.9,4.9,0,0,1-.811.209l-.687.129A4.439,4.439,0,0,0,47,12.359a1.4,1.4,0,0,0-.709,1.3A1.344,1.344,0,0,0,46.727,14.787Zm20.389-.859,2.417-8.637h3.255L68.77,16.807a16.171,16.171,0,0,1-1.837,4.13,3.491,3.491,0,0,1-2.707.8q-.408,0-.655-.005t-.741-.038V19.245l.387.021a4.825,4.825,0,0,0,.859-.032,1.543,1.543,0,0,0,.688-.247,1.652,1.652,0,0,0,.5-.763,1.612,1.612,0,0,0,.188-.709l-4.3-12.225h3.405Zm23.4-7.38A6.282,6.282,0,0,1,91.93,11a7.054,7.054,0,0,1-1.391,4.716,4.5,4.5,0,0,1-3.583,1.622,3.739,3.739,0,0,1-2.32-.7,4.5,4.5,0,0,1-.988-1.128v6.1H80.618V5.291h2.933V7.021a4.915,4.915,0,0,1,1.053-1.2,3.868,3.868,0,0,1,2.428-.784A4.6,4.6,0,0,1,90.512,6.548Zm-1.74,4.6a4.608,4.608,0,0,0-.618-2.4,2.15,2.15,0,0,0-2-1.042,2.279,2.279,0,0,0-2.288,1.579,5.989,5.989,0,0,0-.322,2.127,3.392,3.392,0,0,0,1.085,2.868,2.471,2.471,0,0,0,1.525.483,2.21,2.21,0,0,0,1.95-.988A4.609,4.609,0,0,0,88.772,11.146Zm11.258-3.029a2.539,2.539,0,0,0-2.481,1.2,4.68,4.68,0,0,0-.354,2.084V17H94.11V5.291h2.922V7.332a6.473,6.473,0,0,1,1.235-1.6,3.363,3.363,0,0,1,2.234-.72q.086,0,.145.005t.263.016V8.17q-.29-.032-.516-.043T100.029,8.116Zm5.822-2.825V17h-3.1V5.291Zm0-4.222V3.895h-3.1V1.069Zm1.815,4.222H111.1l2.438,8.637,2.492-8.637h3.287L115.1,17h-3.233Zm13.825,1.268q1.214-1.547,4.168-1.547a7.405,7.405,0,0,1,3.416.763,2.928,2.928,0,0,1,1.493,2.879v5.371q0,.559.021,1.354a1.7,1.7,0,0,0,.183.816,1.1,1.1,0,0,0,.451.354V17h-3.33a3.41,3.41,0,0,1-.193-.666q-.054-.312-.086-.709a6.29,6.29,0,0,1-1.461,1.171,4.394,4.394,0,0,1-2.234.569,3.842,3.842,0,0,1-2.626-.908,3.238,3.238,0,0,1-1.037-2.573,3.339,3.339,0,0,1,1.665-3.126,7.393,7.393,0,0,1,2.686-.752l1.042-.129a4.779,4.779,0,0,0,1.214-.269.92.92,0,0,0,.655-.87,1.032,1.032,0,0,0-.5-.994,3.12,3.12,0,0,0-1.466-.274,1.91,1.91,0,0,0-1.536.537,2.232,2.232,0,0,0-.43,1.074h-2.954A4.493,4.493,0,0,1,121.492,6.559Zm2.277,8.229a1.6,1.6,0,0,0,1.053.354,3.118,3.118,0,0,0,1.821-.58,2.474,2.474,0,0,0,.865-2.116V11.307a3.327,3.327,0,0,1-.585.3,4.9,4.9,0,0,1-.811.209l-.687.129a4.439,4.439,0,0,0-1.386.419,1.4,1.4,0,0,0-.709,1.3A1.344,1.344,0,0,0,123.77,14.787Zm19.647-5.3H140.28a2.717,2.717,0,0,0-.44-1.182,1.847,1.847,0,0,0-1.6-.709,2.108,2.108,0,0,0-2.116,1.536,6.423,6.423,0,0,0-.3,2.17,5.905,5.905,0,0,0,.3,2.073,2.043,2.043,0,0,0,2.063,1.461,1.819,1.819,0,0,0,1.525-.58,2.887,2.887,0,0,0,.548-1.5h3.126a5.122,5.122,0,0,1-1.01,2.643,4.908,4.908,0,0,1-4.265,2.009,4.989,4.989,0,0,1-4.157-1.676,6.781,6.781,0,0,1-1.332-4.351,6.881,6.881,0,0,1,1.472-4.694,5.123,5.123,0,0,1,4.061-1.676,6.114,6.114,0,0,1,3.6.988A4.6,4.6,0,0,1,143.417,9.491Zm5.253-4.2V17h-3.1V5.291Zm0-4.222V3.895h-3.1V1.069Zm13.621.118V17h-2.976V15.378a4.318,4.318,0,0,1-1.493,1.515,4.192,4.192,0,0,1-2.084.473,4.351,4.351,0,0,1-3.454-1.66,6.373,6.373,0,0,1-1.4-4.259,7.33,7.33,0,0,1,1.38-4.716,4.491,4.491,0,0,1,3.69-1.719,3.777,3.777,0,0,1,1.891.467,3.719,3.719,0,0,1,1.343,1.294V1.188Zm-8.25,10.033a4.6,4.6,0,0,0,.645,2.589,2.146,2.146,0,0,0,1.934.978,2.26,2.26,0,0,0,1.977-.967,4.271,4.271,0,0,0,.677-2.5,3.839,3.839,0,0,0-1.085-3.072,2.335,2.335,0,0,0-1.547-.559A2.15,2.15,0,0,0,154.67,8.7,4.7,4.7,0,0,0,154.041,11.221Zm11.473-4.662q1.214-1.547,4.168-1.547a7.405,7.405,0,0,1,3.416.763,2.928,2.928,0,0,1,1.493,2.879v5.371q0,.559.021,1.354a1.7,1.7,0,0,0,.183.816,1.1,1.1,0,0,0,.451.354V17h-3.33a3.411,3.411,0,0,1-.193-.666q-.054-.312-.086-.709a6.29,6.29,0,0,1-1.461,1.171,4.394,4.394,0,0,1-2.234.569,3.842,3.842,0,0,1-2.626-.908,3.238,3.238,0,0,1-1.037-2.573,3.339,3.339,0,0,1,1.665-3.126,7.393,7.393,0,0,1,2.686-.752l1.042-.129a4.779,4.779,0,0,0,1.214-.269.92.92,0,0,0,.655-.87,1.032,1.032,0,0,0-.5-.994,3.12,3.12,0,0,0-1.466-.274,1.91,1.91,0,0,0-1.536.537,2.232,2.232,0,0,0-.43,1.074h-2.954A4.493,4.493,0,0,1,165.514,6.559Zm2.277,8.229a1.6,1.6,0,0,0,1.053.354,3.118,3.118,0,0,0,1.821-.58,2.474,2.474,0,0,0,.865-2.116V11.307a3.327,3.327,0,0,1-.585.3,4.9,4.9,0,0,1-.811.209l-.687.129a4.439,4.439,0,0,0-1.386.419,1.4,1.4,0,0,0-.709,1.3A1.344,1.344,0,0,0,167.791,14.787Zm20.174-13.6V17h-2.976V15.378a4.318,4.318,0,0,1-1.493,1.515,4.192,4.192,0,0,1-2.084.473,4.351,4.351,0,0,1-3.454-1.66,6.373,6.373,0,0,1-1.4-4.259,7.33,7.33,0,0,1,1.38-4.716,4.491,4.491,0,0,1,3.69-1.719,3.777,3.777,0,0,1,1.891.467,3.719,3.719,0,0,1,1.343,1.294V1.188Zm-8.25,10.033a4.6,4.6,0,0,0,.645,2.589,2.146,2.146,0,0,0,1.934.978,2.26,2.26,0,0,0,1.977-.967,4.271,4.271,0,0,0,.677-2.5,3.839,3.839,0,0,0-1.085-3.072,2.335,2.335,0,0,0-1.547-.559A2.15,2.15,0,0,0,180.343,8.7,4.7,4.7,0,0,0,179.715,11.221Z" transform="translate(424.56 5439.336)" fill="#212429"/>
    <g id="Grupo_1148914" data-name="Grupo 1148914" transform="translate(669.467 5296.574)">
      <path id="Trazado_986426" data-name="Trazado 986426" d="M1354.621,264.24a129.516,129.516,0,0,1-91.582-221.1A129.516,129.516,0,1,1,1446.2,226.306a128.666,128.666,0,0,1-91.581,37.934" transform="translate(-1223.738 -3.84)" fill="#f8f8f8"/>
      <path id="Trazado_986427" data-name="Trazado 986427" d="M1350.782,2.736a128.182,128.182,0,0,1,49.88,246.226A128.181,128.181,0,0,1,1300.9,12.806a127.342,127.342,0,0,1,49.88-10.069m0-2.736a130.884,130.884,0,1,0,130.884,130.884A130.884,130.884,0,0,0,1350.782,0" transform="translate(-1219.898)" fill="#ee70f7"/>
      <path id="Trazado_986428" data-name="Trazado 986428" d="M0,130.884,130.884,0V130.884Z" transform="translate(130.884 130.884) rotate(45)" fill="#ee70f7"/>
      <g id="_019-browser-1" data-name="019-browser-1" transform="translate(83.908 -12.29)">
        <path id="Trazado_986524" data-name="Trazado 986524" d="M93.577,132.608H9.494A2.208,2.208,0,0,1,7.286,130.4V66.454a2.208,2.208,0,0,1,2.208-2.208H93.577a2.208,2.208,0,0,1,2.208,2.208V130.4A2.208,2.208,0,0,1,93.577,132.608Z" transform="translate(-5.845 -5.845)" fill="#e1e6e9"/>
        <path id="Trazado_986525" data-name="Trazado 986525" d="M420.713,64.246H415.06a2.208,2.208,0,0,1,2.207,2.208V130.4a2.208,2.208,0,0,1-2.207,2.208h5.653a2.208,2.208,0,0,0,2.207-2.208V66.454A2.208,2.208,0,0,0,420.713,64.246Z" transform="translate(-332.98 -5.845)" fill="#c7d2d8"/>
        <path id="Trazado_986526" data-name="Trazado 986526" d="M95.785,77.018H7.286V66.454a2.208,2.208,0,0,1,2.208-2.208H93.577a2.208,2.208,0,0,1,2.208,2.208V77.018Z" transform="translate(-5.845 -5.845)" fill="#3c97da"/>
        <path id="Trazado_986527" data-name="Trazado 986527" d="M420.713,64.246H415.06a2.208,2.208,0,0,1,2.207,2.208V77.018h5.653V66.454A2.208,2.208,0,0,0,420.713,64.246Z" transform="translate(-332.98 -5.845)" fill="#1e9690"/>
        <path id="Trazado_986528" data-name="Trazado 986528" d="M66.912,193.716H42.631a1.31,1.31,0,0,1-1.31-1.31v-13a1.31,1.31,0,0,1,1.31-1.31h24.28a1.31,1.31,0,0,1,1.31,1.31v13A1.31,1.31,0,0,1,66.912,193.716Z" transform="translate(-33.15 -97.178)" fill="#fe9d52"/>
        <path id="Trazado_986529" data-name="Trazado 986529" d="M147.612,178.093h-5.7a1.31,1.31,0,0,1,1.31,1.31v13a1.31,1.31,0,0,1-1.31,1.31h5.7a1.31,1.31,0,0,0,1.31-1.31v-13A1.31,1.31,0,0,0,147.612,178.093Z" transform="translate(-113.85 -97.179)" fill="#ffbf4d"/>
        <path id="Trazado_986530" data-name="Trazado 986530" d="M66.819,305.9H42.631a1.31,1.31,0,0,1-1.31-1.31V291.64a1.31,1.31,0,0,1,1.31-1.31H66.819a1.31,1.31,0,0,1,1.31,1.31v12.948A1.31,1.31,0,0,1,66.819,305.9Z" transform="translate(-33.15 -187.22)" fill="#fe9d52"/>
        <path id="Trazado_986531" data-name="Trazado 986531" d="M147.52,290.33h-5.605a1.31,1.31,0,0,1,1.31,1.31v12.948a1.31,1.31,0,0,1-1.31,1.31h5.606a1.31,1.31,0,0,0,1.31-1.31V291.64A1.31,1.31,0,0,0,147.52,290.33Z" transform="translate(-113.85 -187.22)" fill="#ffbf4d"/>
        <path id="Trazado_986532" data-name="Trazado 986532" d="M384.047,366.469h-24.49a2.339,2.339,0,0,1-2.339-2.339V348.772a2.339,2.339,0,0,1,2.339-2.339h24.49a2.339,2.339,0,0,1,2.339,2.339V364.13A2.339,2.339,0,0,1,384.047,366.469Z" transform="translate(-286.577 -232.229)" fill="#fad3fc"/>
        <path id="Trazado_986533" data-name="Trazado 986533" d="M471.99,346.433h-5.151a2.339,2.339,0,0,1,2.339,2.339V364.13a2.339,2.339,0,0,1-2.339,2.339h5.151a2.339,2.339,0,0,0,2.339-2.339V348.772A2.339,2.339,0,0,0,471.99,346.433Z" transform="translate(-374.52 -232.229)" fill="#ee70f7"/>
        <g id="Grupo_1148963" data-name="Grupo 1148963" transform="translate(6.549 62.842)">
          <path id="Trazado_986534" data-name="Trazado 986534" d="M35.215,90.9a2.1,2.1,0,1,1,2.1-2.1A2.1,2.1,0,0,1,35.215,90.9Z" transform="translate(-33.117 -86.706)" fill="#e1e6e9"/>
          <path id="Trazado_986535" data-name="Trazado 986535" d="M67.62,90.9a2.1,2.1,0,1,1,2.1-2.1A2.1,2.1,0,0,1,67.62,90.9Z" transform="translate(-59.114 -86.706)" fill="#e1e6e9"/>
          <path id="Trazado_986536" data-name="Trazado 986536" d="M100.025,90.9a2.1,2.1,0,1,1,2.1-2.1A2.1,2.1,0,0,1,100.025,90.9Z" transform="translate(-85.111 -86.706)" fill="#e1e6e9"/>
        </g>
        <path id="Trazado_986537" data-name="Trazado 986537" d="M256.465,170.807H218.947a1.441,1.441,0,1,0,0,2.882h37.518a1.441,1.441,0,1,0,0-2.882Z" transform="translate(-174.493 -91.333)"/>
        <path id="Trazado_986538" data-name="Trazado 986538" d="M257.906,236.938a1.441,1.441,0,0,0-1.441-1.441H218.947a1.441,1.441,0,1,0,0,2.882h37.518A1.441,1.441,0,0,0,257.906,236.938Z" transform="translate(-174.493 -143.231)"/>
        <path id="Trazado_986539" data-name="Trazado 986539" d="M227.855,300.187H214.3a1.441,1.441,0,1,0,0,2.882h13.556a1.441,1.441,0,0,0,0-2.882Z" transform="translate(-170.765 -195.128)"/>
        <path id="Trazado_986540" data-name="Trazado 986540" d="M227.855,364.877H214.3a1.441,1.441,0,1,0,0,2.882h13.556a1.441,1.441,0,0,0,0-2.882Z" transform="translate(-170.765 -247.025)"/>
        <path id="Trazado_986541" data-name="Trazado 986541" d="M420.773,378.52a2.511,2.511,0,0,0-1.265,4.681v3.155a1.265,1.265,0,0,0,2.53,0V383.2a2.511,2.511,0,0,0-1.265-4.681Z" transform="translate(-335.548 -257.97)" fill="#2c2738"/>
        <path id="Trazado_986542" data-name="Trazado 986542" d="M97.47,112.763H96.232v-3.915a11.007,11.007,0,1,0-22.014,0v3.915H72.98a3.784,3.784,0,0,0-3.78,3.78v8.779H3.648a.767.767,0,0,1-.766-.766V72.614H88.5V96.987a1.441,1.441,0,1,0,2.882,0V60.608a3.652,3.652,0,0,0-3.648-3.648H3.648A3.652,3.652,0,0,0,0,60.608v63.947A3.652,3.652,0,0,0,3.648,128.2H69.2v3.7a3.784,3.784,0,0,0,3.78,3.78H97.47a3.784,3.784,0,0,0,3.78-3.78V116.543A3.784,3.784,0,0,0,97.47,112.763ZM2.882,60.608a.767.767,0,0,1,.766-.766H87.732a.767.767,0,0,1,.766.766v9.124H2.882ZM77.1,108.849a8.125,8.125,0,1,1,16.25,0v3.915H91.38v-8.194a1.441,1.441,0,1,0-2.882,0v8.194H77.1ZM98.368,131.9a.9.9,0,0,1-.9.9H72.98a.9.9,0,0,1-.9-.9V116.543a.9.9,0,0,1,.9-.9H97.47a.9.9,0,0,1,.9.9Z"/>
        <path id="Trazado_986543" data-name="Trazado 986543" d="M63.818,173.558a2.754,2.754,0,0,0-2.751-2.751H48.7a1.441,1.441,0,1,0,0,2.882H60.936v12.742H36.917V173.689h4.141a1.441,1.441,0,0,0,0-2.882H36.786a2.754,2.754,0,0,0-2.751,2.751v13a2.754,2.754,0,0,0,2.751,2.751H61.067a2.754,2.754,0,0,0,2.751-2.751v-13Z" transform="translate(-27.304 -91.333)"/>
        <path id="Trazado_986544" data-name="Trazado 986544" d="M60.974,283.044H36.786a2.754,2.754,0,0,0-2.751,2.751v12.947a2.754,2.754,0,0,0,2.751,2.751H60.974a2.754,2.754,0,0,0,2.751-2.751V285.8A2.754,2.754,0,0,0,60.974,283.044Zm-.131,15.568H36.917V285.926H60.843Z" transform="translate(-27.304 -181.375)"/>
      </g>
    </g>
    <path id="Trazado_986733" data-name="Trazado 986733" d="M18.369,13.745H12.536L11.44,17H7.981l5.65-15.834H17.37L22.977,17H19.389Zm-.924-2.729-1.977-6.23-2.041,6.23Zm14.8,4.329q-.043.054-.215.322a2.157,2.157,0,0,1-.408.473,4.263,4.263,0,0,1-1.391.881,4.741,4.741,0,0,1-1.574.236,3.508,3.508,0,0,1-3.5-1.869,7.152,7.152,0,0,1-.5-3.04V5.291H27.79v7.058a3.694,3.694,0,0,0,.236,1.5,1.636,1.636,0,0,0,1.644.892,2.148,2.148,0,0,0,2.148-1.268,4.589,4.589,0,0,0,.3-1.815V5.291h3.1V17H32.248Zm11.29-.526v2.288l-1.45.054a3.892,3.892,0,0,1-2.965-.752,2.239,2.239,0,0,1-.516-1.622V7.579H36.974V5.4h1.633V2.133h3.029V5.4h1.9V7.579h-1.9v6.188a1.394,1.394,0,0,0,.183.9,2.011,2.011,0,0,0,1.117.177q.14,0,.3-.005T43.538,14.819Zm11.73-8.046a6.833,6.833,0,0,1,1.482,4.394,6.788,6.788,0,0,1-1.482,4.41,5.447,5.447,0,0,1-4.5,1.832,5.447,5.447,0,0,1-4.5-1.832,6.788,6.788,0,0,1-1.482-4.41,6.833,6.833,0,0,1,1.482-4.394,5.409,5.409,0,0,1,4.5-1.858A5.409,5.409,0,0,1,55.268,6.773Zm-4.512.73a2.446,2.446,0,0,0-2.068.951,4.4,4.4,0,0,0-.725,2.712,4.423,4.423,0,0,0,.725,2.718,2.709,2.709,0,0,0,4.13,0,4.448,4.448,0,0,0,.72-2.718,4.423,4.423,0,0,0-.72-2.712A2.432,2.432,0,0,0,50.756,7.5Zm13.7.054a2.132,2.132,0,0,0-2.138,1.321,4.538,4.538,0,0,0-.3,1.783V17H58.963V5.313h2.954V7.021a5.2,5.2,0,0,1,1.117-1.3,3.883,3.883,0,0,1,2.4-.709,4.52,4.52,0,0,1,2.97.951,3.866,3.866,0,0,1,1.155,3.153V17H66.418V9.878a3.25,3.25,0,0,0-.247-1.418A1.738,1.738,0,0,0,64.453,7.558Zm17.692-.784a6.833,6.833,0,0,1,1.482,4.394,6.788,6.788,0,0,1-1.482,4.41,5.447,5.447,0,0,1-4.5,1.832,5.447,5.447,0,0,1-4.5-1.832,6.788,6.788,0,0,1-1.482-4.41,6.833,6.833,0,0,1,1.482-4.394,5.409,5.409,0,0,1,4.5-1.858A5.409,5.409,0,0,1,82.145,6.773Zm-4.512.73a2.446,2.446,0,0,0-2.068.951,4.4,4.4,0,0,0-.725,2.712,4.423,4.423,0,0,0,.725,2.718,2.709,2.709,0,0,0,4.13,0,4.448,4.448,0,0,0,.72-2.718,4.423,4.423,0,0,0-.72-2.712A2.432,2.432,0,0,0,77.633,7.5Zm14.76,1.01a1.5,1.5,0,0,0-1.515-.849,1.808,1.808,0,0,0-1.762.849,3.27,3.27,0,0,0-.247,1.439V17h-3.1V5.313h2.976V7.021a4.927,4.927,0,0,1,1.074-1.3,4.25,4.25,0,0,1,4.479-.1A3.437,3.437,0,0,1,95.3,7.031,3.893,3.893,0,0,1,96.8,5.517,4.556,4.556,0,0,1,98.9,5.033a4.076,4.076,0,0,1,1.525.3,3.4,3.4,0,0,1,1.364,1.053,3.364,3.364,0,0,1,.666,1.5,10.394,10.394,0,0,1,.107,1.729L102.544,17H99.408V9.545a2.447,2.447,0,0,0-.215-1.1,1.527,1.527,0,0,0-1.5-.816,1.76,1.76,0,0,0-1.751,1.053,3.306,3.306,0,0,0-.247,1.343V17H92.608V10.028A3.916,3.916,0,0,0,92.393,8.514Zm13.03-3.223h3.1V17h-3.1Zm-.2-1.579L107.282.5H110.7l-3.266,3.212Zm6.714,2.847q1.214-1.547,4.168-1.547a7.405,7.405,0,0,1,3.416.763,2.928,2.928,0,0,1,1.493,2.879v5.371q0,.559.021,1.354a1.7,1.7,0,0,0,.183.816,1.1,1.1,0,0,0,.451.354V17h-3.33a3.41,3.41,0,0,1-.193-.666q-.054-.312-.086-.709A6.29,6.29,0,0,1,116.6,16.8a4.394,4.394,0,0,1-2.234.569,3.842,3.842,0,0,1-2.626-.908,3.238,3.238,0,0,1-1.037-2.573,3.339,3.339,0,0,1,1.665-3.126,7.393,7.393,0,0,1,2.686-.752l1.042-.129a4.779,4.779,0,0,0,1.214-.269.92.92,0,0,0,.655-.87,1.032,1.032,0,0,0-.5-.994,3.12,3.12,0,0,0-1.466-.274,1.91,1.91,0,0,0-1.536.537,2.232,2.232,0,0,0-.43,1.074h-2.954A4.493,4.493,0,0,1,111.933,6.559Zm2.277,8.229a1.6,1.6,0,0,0,1.053.354,3.118,3.118,0,0,0,1.821-.58,2.474,2.474,0,0,0,.865-2.116V11.307a3.327,3.327,0,0,1-.585.3,4.9,4.9,0,0,1-.811.209l-.687.129a4.439,4.439,0,0,0-1.386.419,1.4,1.4,0,0,0-.709,1.3A1.344,1.344,0,0,0,114.21,14.787Zm20.389-.859,2.417-8.637h3.255l-4.018,11.516a16.171,16.171,0,0,1-1.837,4.13,3.491,3.491,0,0,1-2.707.8q-.408,0-.655-.005t-.741-.038V19.245l.387.021a4.825,4.825,0,0,0,.859-.032,1.543,1.543,0,0,0,.688-.247,1.652,1.652,0,0,0,.5-.763,1.612,1.612,0,0,0,.188-.709l-4.3-12.225h3.405Zm21.656-8.1a3.772,3.772,0,0,1,1.579,3.029h-3.062a1.811,1.811,0,0,0-.333-.935,2.1,2.1,0,0,0-1.719-.623,2.47,2.47,0,0,0-1.423.312.9.9,0,0,0-.424.73.8.8,0,0,0,.451.763,19.531,19.531,0,0,0,3.19.849,5.86,5.86,0,0,1,2.739,1.3,2.951,2.951,0,0,1,.9,2.2,3.558,3.558,0,0,1-1.294,2.841,7.766,7.766,0,0,1-8.078-.064,3.792,3.792,0,0,1-1.316-2.97h3.1a2.044,2.044,0,0,0,.419,1.16,2.832,2.832,0,0,0,2.105.612,3.209,3.209,0,0,0,1.434-.269.9.9,0,0,0,.1-1.59,17.48,17.48,0,0,0-3.19-.924,6.645,6.645,0,0,1-2.8-1.235,2.678,2.678,0,0,1-.816-2.105A3.652,3.652,0,0,1,149.1,6.124a5.113,5.113,0,0,1,3.583-1.166A6.633,6.633,0,0,1,156.255,5.828Zm14.19,7.734a3.884,3.884,0,0,1-1.085,2.116,5.316,5.316,0,0,1-4.211,1.708,5.938,5.938,0,0,1-3.942-1.439q-1.708-1.439-1.708-4.684A6.51,6.51,0,0,1,161.041,6.6a5.271,5.271,0,0,1,4-1.622,6.136,6.136,0,0,1,2.632.548,4.61,4.61,0,0,1,1.934,1.729,5.9,5.9,0,0,1,.892,2.417,15.608,15.608,0,0,1,.1,2.32h-8.014a2.91,2.91,0,0,0,1.106,2.471,2.606,2.606,0,0,0,1.525.44,2.2,2.2,0,0,0,1.536-.537,2.551,2.551,0,0,0,.569-.806Zm-3.029-3.588a2.665,2.665,0,0,0-.736-1.842,2.285,2.285,0,0,0-1.638-.628,2.079,2.079,0,0,0-1.649.666,3.324,3.324,0,0,0-.736,1.8Zm13.31-4.146a3.772,3.772,0,0,1,1.579,3.029h-3.062a1.811,1.811,0,0,0-.333-.935,2.1,2.1,0,0,0-1.719-.623,2.47,2.47,0,0,0-1.423.312.9.9,0,0,0-.424.73.8.8,0,0,0,.451.763,19.531,19.531,0,0,0,3.19.849,5.86,5.86,0,0,1,2.739,1.3,2.951,2.951,0,0,1,.9,2.2,3.558,3.558,0,0,1-1.294,2.841,7.766,7.766,0,0,1-8.078-.064,3.792,3.792,0,0,1-1.316-2.97h3.1a2.044,2.044,0,0,0,.419,1.16,2.832,2.832,0,0,0,2.105.612A3.209,3.209,0,0,0,179,14.766a.9.9,0,0,0,.1-1.59,17.48,17.48,0,0,0-3.19-.924,6.645,6.645,0,0,1-2.8-1.235,2.678,2.678,0,0,1-.816-2.105,3.652,3.652,0,0,1,1.273-2.788,5.113,5.113,0,0,1,3.583-1.166A6.633,6.633,0,0,1,180.726,5.828ZM188.2,19.052a2.587,2.587,0,0,0,1.665.419,2.237,2.237,0,0,0,2.213-1.106,5.6,5.6,0,0,0,.365-2.385v-.752a3.733,3.733,0,0,1-.945,1.128,3.8,3.8,0,0,1-2.374.7,4.493,4.493,0,0,1-3.6-1.584,6.406,6.406,0,0,1-1.348-4.292,7.234,7.234,0,0,1,1.3-4.388,4.294,4.294,0,0,1,3.685-1.778,4.033,4.033,0,0,1,1.536.269,3.678,3.678,0,0,1,1.8,1.7V5.291h2.976V16.4a6.221,6.221,0,0,1-.763,3.416q-1.311,1.977-5.027,1.977a6.85,6.85,0,0,1-3.663-.881,3.25,3.25,0,0,1-1.568-2.632h3.33A1.379,1.379,0,0,0,188.2,19.052ZM187.687,13a2.241,2.241,0,0,0,2.234,1.482,2.365,2.365,0,0,0,1.815-.811,3.755,3.755,0,0,0,.741-2.583,3.953,3.953,0,0,0-.7-2.535,2.3,2.3,0,0,0-1.885-.87A2.222,2.222,0,0,0,187.666,9.2a5.371,5.371,0,0,0-.322,1.987A4.535,4.535,0,0,0,187.687,13Zm20.41-6.23a6.833,6.833,0,0,1,1.482,4.394,6.788,6.788,0,0,1-1.482,4.41,6.446,6.446,0,0,1-9,0,6.788,6.788,0,0,1-1.482-4.41A6.833,6.833,0,0,1,199.1,6.773a6.38,6.38,0,0,1,9,0Zm-4.512.73a2.446,2.446,0,0,0-2.068.951,4.4,4.4,0,0,0-.725,2.712,4.423,4.423,0,0,0,.725,2.718,2.709,2.709,0,0,0,4.13,0,4.448,4.448,0,0,0,.72-2.718,4.423,4.423,0,0,0-.72-2.712A2.432,2.432,0,0,0,203.585,7.5Zm16.253-1.676a3.772,3.772,0,0,1,1.579,3.029h-3.062a1.811,1.811,0,0,0-.333-.935A2.1,2.1,0,0,0,216.3,7.3a2.47,2.47,0,0,0-1.423.312.9.9,0,0,0-.424.73.8.8,0,0,0,.451.763,19.531,19.531,0,0,0,3.19.849,5.86,5.86,0,0,1,2.739,1.3,2.951,2.951,0,0,1,.9,2.2,3.558,3.558,0,0,1-1.294,2.841,7.766,7.766,0,0,1-8.078-.064,3.792,3.792,0,0,1-1.316-2.97h3.1a2.044,2.044,0,0,0,.419,1.16,2.832,2.832,0,0,0,2.105.612,3.209,3.209,0,0,0,1.434-.269.9.9,0,0,0,.1-1.59,17.48,17.48,0,0,0-3.19-.924,6.645,6.645,0,0,1-2.8-1.235,2.678,2.678,0,0,1-.816-2.105,3.652,3.652,0,0,1,1.273-2.788,5.113,5.113,0,0,1,3.583-1.166A6.633,6.633,0,0,1,219.838,5.828ZM54.328,39.963a3.884,3.884,0,0,1-1.085,2.116,5.316,5.316,0,0,1-4.211,1.708,5.938,5.938,0,0,1-3.942-1.439q-1.708-1.439-1.708-4.684A6.51,6.51,0,0,1,44.923,33a5.271,5.271,0,0,1,4-1.622,6.136,6.136,0,0,1,2.632.548,4.61,4.61,0,0,1,1.934,1.729,5.9,5.9,0,0,1,.892,2.417,15.609,15.609,0,0,1,.1,2.32H46.465a2.91,2.91,0,0,0,1.106,2.471,2.606,2.606,0,0,0,1.525.44,2.2,2.2,0,0,0,1.536-.537,2.551,2.551,0,0,0,.569-.806ZM51.3,36.375a2.665,2.665,0,0,0-.736-1.842,2.285,2.285,0,0,0-1.638-.628,2.079,2.079,0,0,0-1.649.666,3.324,3.324,0,0,0-.736,1.8Zm10.753-2.417a2.132,2.132,0,0,0-2.138,1.321,4.538,4.538,0,0,0-.3,1.783V43.4H56.563V31.713h2.954v1.708a5.2,5.2,0,0,1,1.117-1.3,3.883,3.883,0,0,1,2.4-.709,4.52,4.52,0,0,1,2.97.951,3.866,3.866,0,0,1,1.155,3.153V43.4H64.018V36.278a3.25,3.25,0,0,0-.247-1.418A1.738,1.738,0,0,0,62.052,33.958Zm14.48-1q1.214-1.547,4.168-1.547a7.405,7.405,0,0,1,3.416.763,2.928,2.928,0,0,1,1.493,2.879v5.371q0,.559.021,1.354a1.7,1.7,0,0,0,.183.816,1.1,1.1,0,0,0,.451.354V43.4h-3.33a3.41,3.41,0,0,1-.193-.666q-.054-.312-.086-.709A6.29,6.29,0,0,1,81.194,43.2a4.394,4.394,0,0,1-2.234.569,3.842,3.842,0,0,1-2.626-.908A3.238,3.238,0,0,1,75.3,40.285a3.339,3.339,0,0,1,1.665-3.126,7.393,7.393,0,0,1,2.686-.752l1.042-.129a4.779,4.779,0,0,0,1.214-.269.92.92,0,0,0,.655-.87,1.032,1.032,0,0,0-.5-.994,3.12,3.12,0,0,0-1.466-.274,1.91,1.91,0,0,0-1.536.537,2.232,2.232,0,0,0-.43,1.074H75.673A4.493,4.493,0,0,1,76.532,32.959Zm2.277,8.229a1.6,1.6,0,0,0,1.053.354,3.118,3.118,0,0,0,1.821-.58,2.474,2.474,0,0,0,.865-2.116V37.707a3.327,3.327,0,0,1-.585.3,4.9,4.9,0,0,1-.811.209l-.687.129a4.439,4.439,0,0,0-1.386.419,1.4,1.4,0,0,0-.709,1.3A1.344,1.344,0,0,0,78.81,41.187Zm9.582-13.621h3.062V43.4H88.392Zm9.356,17.886a2.587,2.587,0,0,0,1.665.419,2.237,2.237,0,0,0,2.213-1.106,5.6,5.6,0,0,0,.365-2.385v-.752a3.733,3.733,0,0,1-.945,1.128,3.8,3.8,0,0,1-2.374.7,4.493,4.493,0,0,1-3.6-1.584,6.406,6.406,0,0,1-1.348-4.292,7.234,7.234,0,0,1,1.3-4.388A4.294,4.294,0,0,1,98.7,31.412a4.033,4.033,0,0,1,1.536.269,3.678,3.678,0,0,1,1.8,1.7V31.691h2.976V42.8a6.221,6.221,0,0,1-.763,3.416q-1.311,1.977-5.027,1.977a6.85,6.85,0,0,1-3.663-.881A3.25,3.25,0,0,1,94,44.678h3.33A1.379,1.379,0,0,0,97.748,45.452ZM97.232,39.4a2.241,2.241,0,0,0,2.234,1.482,2.365,2.365,0,0,0,1.815-.811,3.755,3.755,0,0,0,.741-2.583,3.953,3.953,0,0,0-.7-2.535,2.3,2.3,0,0,0-1.885-.87A2.222,2.222,0,0,0,97.211,35.6a5.371,5.371,0,0,0-.322,1.987A4.535,4.535,0,0,0,97.232,39.4Zm20.41-6.23a7.276,7.276,0,0,1,0,8.8,6.446,6.446,0,0,1-9,0,7.276,7.276,0,0,1,0-8.8,6.38,6.38,0,0,1,9,0Zm-4.512.73a2.446,2.446,0,0,0-2.068.951,4.4,4.4,0,0,0-.725,2.712,4.423,4.423,0,0,0,.725,2.718,2.709,2.709,0,0,0,4.13,0,4.448,4.448,0,0,0,.72-2.718,4.423,4.423,0,0,0-.72-2.712A2.432,2.432,0,0,0,113.131,33.9Zm14.072.612a2.539,2.539,0,0,0-2.481,1.2,4.68,4.68,0,0,0-.354,2.084v5.6h-3.083V31.691h2.922v2.041a6.473,6.473,0,0,1,1.235-1.6,3.363,3.363,0,0,1,2.234-.72q.086,0,.145.005t.263.016V34.57q-.29-.032-.516-.043T127.2,34.516Zm5.822-2.825V43.4h-3.1V31.691Zm0-4.222v2.825h-3.1V27.469Zm8.325,13.75v2.288l-1.45.054a3.892,3.892,0,0,1-2.965-.752,2.239,2.239,0,0,1-.516-1.622V33.979h-1.633V31.8h1.633V28.533h3.029V31.8h1.9v2.181h-1.9v6.188a1.394,1.394,0,0,0,.183.9,2.011,2.011,0,0,0,1.117.177q.14,0,.3-.005T141.351,41.219Zm8.54-6.306a1.5,1.5,0,0,0-1.515-.849,1.808,1.808,0,0,0-1.762.849,3.27,3.27,0,0,0-.247,1.439V43.4h-3.1V31.713h2.976v1.708a4.927,4.927,0,0,1,1.074-1.3,4.25,4.25,0,0,1,4.479-.1,3.437,3.437,0,0,1,1.01,1.407,3.893,3.893,0,0,1,1.493-1.515,4.556,4.556,0,0,1,2.105-.483,4.076,4.076,0,0,1,1.525.3,3.4,3.4,0,0,1,1.364,1.053,3.364,3.364,0,0,1,.666,1.5,10.4,10.4,0,0,1,.107,1.729l-.021,7.38h-3.137V35.945a2.447,2.447,0,0,0-.215-1.1,1.527,1.527,0,0,0-1.5-.816,1.76,1.76,0,0,0-1.751,1.053,3.306,3.306,0,0,0-.247,1.343V43.4h-3.083V36.428A3.915,3.915,0,0,0,149.891,34.914Zm22.752-1.74a7.276,7.276,0,0,1,0,8.8,6.446,6.446,0,0,1-9,0,7.276,7.276,0,0,1,0-8.8,6.38,6.38,0,0,1,9,0Zm-4.512.73a2.446,2.446,0,0,0-2.068.951,4.4,4.4,0,0,0-.725,2.712,4.423,4.423,0,0,0,.725,2.718,2.709,2.709,0,0,0,4.13,0,4.448,4.448,0,0,0,.72-2.718,4.423,4.423,0,0,0-.72-2.712A2.432,2.432,0,0,0,168.131,33.9Zm16.253-1.676a3.772,3.772,0,0,1,1.579,3.029H182.9a1.811,1.811,0,0,0-.333-.935,2.1,2.1,0,0,0-1.719-.623,2.47,2.47,0,0,0-1.423.312.9.9,0,0,0-.424.73.8.8,0,0,0,.451.763,19.531,19.531,0,0,0,3.19.849,5.86,5.86,0,0,1,2.739,1.3,2.951,2.951,0,0,1,.9,2.2,3.558,3.558,0,0,1-1.294,2.841,7.766,7.766,0,0,1-8.078-.064,3.792,3.792,0,0,1-1.316-2.97h3.1a2.044,2.044,0,0,0,.419,1.16,2.832,2.832,0,0,0,2.105.612,3.209,3.209,0,0,0,1.434-.269.9.9,0,0,0,.1-1.59,17.48,17.48,0,0,0-3.19-.924,6.645,6.645,0,0,1-2.8-1.235,2.678,2.678,0,0,1-.816-2.105,3.652,3.652,0,0,1,1.273-2.788,5.113,5.113,0,0,1,3.583-1.166A6.633,6.633,0,0,1,184.384,32.228Z" transform="translate(685 5439.23)" fill="#212429"/>
    <g id="Grupo_1148915" data-name="Grupo 1148915" transform="translate(948.232 5296.574)">
      <path id="Trazado_986429" data-name="Trazado 986429" d="M2574.518,264.24a129.516,129.516,0,0,1-91.581-221.1A129.516,129.516,0,1,1,2666.1,226.306a128.667,128.667,0,0,1-91.582,37.934" transform="translate(-2443.634 -3.84)" fill="#f8f8f8"/>
      <path id="Trazado_986430" data-name="Trazado 986430" d="M2570.678,2.736a128.182,128.182,0,0,1,49.88,246.225A128.181,128.181,0,0,1,2520.8,12.806a127.341,127.341,0,0,1,49.88-10.069m0-2.736a130.884,130.884,0,1,0,130.884,130.884A130.884,130.884,0,0,0,2570.678,0" transform="translate(-2439.794)" fill="#fe9d52"/>
      <path id="Trazado_986431" data-name="Trazado 986431" d="M0,130.884,130.884,0V130.884Z" transform="translate(130.884 130.884) rotate(45)" fill="#fe9d52"/>
      <g id="_009-gear" data-name="009-gear" transform="translate(84.819 38.637)">
        <path id="Trazado_986545" data-name="Trazado 986545" d="M161.176,182.64l-2.073,1.09a1.14,1.14,0,0,1-1.06,0l-2.073-1.09c-11.385-5.984-18.4-17.027-18.4-28.975v-7.3a1.133,1.133,0,0,1,1-1.131,8.269,8.269,0,0,0,7.542-6.777,1.146,1.146,0,0,1,1.13-1H169.9a1.146,1.146,0,0,1,1.13,1,8.269,8.269,0,0,0,7.542,6.777,1.133,1.133,0,0,1,1,1.131v7.3C179.573,165.613,172.562,176.655,161.176,182.64Z" transform="translate(-111.7 -113.086)" fill="#b0d5f0"/>
        <path id="Trazado_986546" data-name="Trazado 986546" d="M276,145.234a8.269,8.269,0,0,1-7.542-6.777,1.146,1.146,0,0,0-1.13-1H256v46.4a1.138,1.138,0,0,0,.53-.131l2.073-1.09c11.385-5.984,18.4-17.027,18.4-28.975v-7.3A1.133,1.133,0,0,0,276,145.234Z" transform="translate(-209.127 -113.086)" fill="#d7e9f7"/>
        <path id="Trazado_986547" data-name="Trazado 986547" d="M292.964,145.234a8.269,8.269,0,0,1-7.542-6.777,1.146,1.146,0,0,0-1.13-1h-4.129c.713,3.544,3.716,8.53,7.448,8.924a1.133,1.133,0,0,1,1,1.131v7.3a38.779,38.779,0,0,1-11.99,27.249c10.762-6.1,17.342-16.825,17.342-28.4v-7.3A1.133,1.133,0,0,0,292.964,145.234Z" transform="translate(-226.096 -113.086)" fill="#b0d5f0"/>
        <path id="Trazado_986548" data-name="Trazado 986548" d="M92.14,48.272l4.511-3.249-1.574-6.9L89.6,37.156l-2.7-5.615,2.655-4.884-4.411-5.532-5.352,1.5-4.873-3.886.273-5.552-6.375-3.07-4.171,3.675-6.076-1.387L56.4,7.286H49.33l-2.163,5.121L41.09,13.794l-4.171-3.675-6.375,3.07.273,5.552-4.873,3.886-5.352-1.5-4.411,5.532,2.655,4.884-2.7,5.615-5.474.969-1.574,6.9,4.511,3.249V54.5L9.083,57.754l1.574,6.9,5.474.969,2.7,5.615L16.181,76.12l4.411,5.532,5.352-1.5,4.873,3.886-.273,5.552,6.375,3.07,4.171-3.675,6.077,1.387,2.163,5.121H56.4l2.163-5.121,6.077-1.387,4.171,3.675,6.375-3.07-.273-5.552,4.873-3.886,5.352,1.5,4.411-5.532L86.9,71.236l2.7-5.615,5.474-.969,1.574-6.9L92.14,54.5C92.14,51.882,92.14,50.9,92.14,48.272ZM52.867,82.38A30.992,30.992,0,1,1,83.859,51.388,30.992,30.992,0,0,1,52.867,82.38Z" transform="translate(-5.994 -5.994)" fill="#ffd278"/>
        <path id="Trazado_986549" data-name="Trazado 986549" d="M95.348,60.72a34.628,34.628,0,1,0,34.628,34.628A34.628,34.628,0,0,0,95.348,60.72Zm0,65.619a30.992,30.992,0,1,1,30.992-30.992A30.992,30.992,0,0,1,95.348,126.339Z" transform="translate(-48.475 -49.953)" fill="#ffbf4d"/>
        <path id="Trazado_986550" data-name="Trazado 986550" d="M106.222,73.932a32.284,32.284,0,1,0,32.284,32.284A32.32,32.32,0,0,0,106.222,73.932Zm0,61.984a29.7,29.7,0,1,1,29.7-29.7A29.733,29.733,0,0,1,106.222,135.916Z" transform="translate(-59.349 -60.822)"/>
        <path id="Trazado_986551" data-name="Trazado 986551" d="M91.412,50.711l-3.974-2.862V42.94l3.974-2.862a1.292,1.292,0,0,0,.5-1.336l-1.574-6.9a1.292,1.292,0,0,0-1.034-.985l-4.822-.854-2.13-4.423,2.339-4.3a1.292,1.292,0,0,0-.125-1.423l-4.411-5.532a1.291,1.291,0,0,0-1.359-.438L74.084,15.21l-3.838-3.061.24-4.891a1.292,1.292,0,0,0-.73-1.228l-6.375-3.07a1.293,1.293,0,0,0-1.415.195L58.293,6.393,53.506,5.3,51.6.789A1.292,1.292,0,0,0,50.411,0H43.336a1.292,1.292,0,0,0-1.19.789L40.24,5.3,35.454,6.393,31.779,3.155a1.292,1.292,0,0,0-1.415-.195L23.99,6.03a1.292,1.292,0,0,0-.73,1.228l.24,4.891L19.662,15.21l-4.715-1.323a1.292,1.292,0,0,0-1.359.438L9.176,19.858a1.292,1.292,0,0,0-.125,1.423l2.339,4.3L9.26,30.006l-4.822.854a1.292,1.292,0,0,0-1.034.985l-1.574,6.9a1.292,1.292,0,0,0,.5,1.336L6.308,42.94v4.909L2.334,50.711a1.292,1.292,0,0,0-.5,1.336l1.574,6.9a1.292,1.292,0,0,0,1.034.985l4.822.854,2.13,4.423-2.339,4.3a1.292,1.292,0,0,0,.125,1.423l4.411,5.532a1.292,1.292,0,0,0,1.359.438l4.715-1.323L23.5,78.64l-.24,4.891a1.292,1.292,0,0,0,.73,1.228l6.375,3.07a1.292,1.292,0,0,0,1.415-.195L35.453,84.4l4.786,1.092L42.145,90a1.292,1.292,0,0,0,1.19.789h7.075A1.292,1.292,0,0,0,51.6,90l1.906-4.511L58.293,84.4l3.674,3.238a1.292,1.292,0,0,0,1.415.195l6.375-3.07a1.292,1.292,0,0,0,.73-1.228l-.24-4.891,3.838-3.061L78.8,76.9a1.292,1.292,0,0,0,1.359-.438l4.411-5.532a1.292,1.292,0,0,0,.125-1.423l-2.339-4.3,2.13-4.423,4.822-.854a1.292,1.292,0,0,0,1.034-.985l1.574-6.9A1.292,1.292,0,0,0,91.412,50.711Zm-3.4,6.824-4.63.82a1.292,1.292,0,0,0-.939.712l-2.7,5.616a1.292,1.292,0,0,0,.029,1.178l2.246,4.131-3.343,4.192-4.528-1.27a1.292,1.292,0,0,0-1.155.234l-4.873,3.886a1.292,1.292,0,0,0-.485,1.074l.231,4.7-4.831,2.326L59.5,82.02a1.293,1.293,0,0,0-1.142-.29l-6.077,1.387a1.291,1.291,0,0,0-.9.757l-1.83,4.332H44.192l-1.83-4.332a1.292,1.292,0,0,0-.9-.757L35.383,81.73a1.294,1.294,0,0,0-1.142.29l-3.528,3.109L25.883,82.8l.231-4.7a1.292,1.292,0,0,0-.485-1.074l-4.873-3.886a1.292,1.292,0,0,0-1.155-.234l-4.528,1.27-3.343-4.192,2.246-4.131a1.292,1.292,0,0,0,.029-1.178l-2.7-5.616a1.293,1.293,0,0,0-.939-.712l-4.63-.82L4.539,52.307l3.816-2.748a1.293,1.293,0,0,0,.537-1.049V42.278a1.292,1.292,0,0,0-.537-1.049L4.539,38.482l1.193-5.227,4.63-.82a1.292,1.292,0,0,0,.939-.712l2.7-5.615a1.292,1.292,0,0,0-.029-1.178L11.731,20.8l3.343-4.192,4.528,1.27a1.292,1.292,0,0,0,1.155-.234l4.873-3.886a1.292,1.292,0,0,0,.485-1.074l-.231-4.7L30.713,5.66l3.528,3.109a1.293,1.293,0,0,0,1.142.29L41.46,7.672a1.292,1.292,0,0,0,.9-.757l1.83-4.332h5.362l1.83,4.332a1.292,1.292,0,0,0,.9.757l6.077,1.387a1.292,1.292,0,0,0,1.142-.29L63.033,5.66l4.831,2.326-.231,4.7a1.292,1.292,0,0,0,.485,1.074l4.873,3.886a1.293,1.293,0,0,0,1.155.234l4.528-1.27L82.015,20.8,79.769,24.93a1.292,1.292,0,0,0-.029,1.178l2.7,5.615a1.293,1.293,0,0,0,.939.712l4.63.82,1.193,5.227L85.391,41.23a1.292,1.292,0,0,0-.537,1.049v6.233a1.292,1.292,0,0,0,.537,1.049l3.816,2.748Z" transform="translate(0)"/>
        <path id="Trazado_986552" data-name="Trazado 986552" d="M177.963,267.231a1.292,1.292,0,0,0-1.588.9,32.906,32.906,0,0,1-16.66,20.081l-2,1.052-2-1.052a32.92,32.92,0,0,1-16.645-20.029,1.292,1.292,0,1,0-2.491.688A35.509,35.509,0,0,0,154.508,290.5l2.073,1.09a2.431,2.431,0,0,0,2.262,0l2.073-1.09a35.5,35.5,0,0,0,17.949-21.685A1.292,1.292,0,0,0,177.963,267.231Z" transform="translate(-110.84 -219.806)"/>
        <path id="Trazado_986553" data-name="Trazado 986553" d="M166.313,132.284a2.451,2.451,0,0,0-2.41-2.11H141.256a2.451,2.451,0,0,0-2.41,2.11,6.951,6.951,0,0,1-6.4,5.671,2.418,2.418,0,0,0-2.161,2.416v7.3c0,.46.01.927.03,1.385a1.292,1.292,0,0,0,1.29,1.236h.057a1.292,1.292,0,0,0,1.235-1.347c-.018-.422-.028-.85-.028-1.273v-7.162a9.521,9.521,0,0,0,8.517-7.749H163.77a9.521,9.521,0,0,0,8.517,7.749v7.162c0,.422-.009.85-.028,1.271a1.292,1.292,0,1,0,2.582.112c.02-.459.03-.924.03-1.383v-7.3a2.418,2.418,0,0,0-2.161-2.416A6.95,6.95,0,0,1,166.313,132.284Z" transform="translate(-105.707 -107.091)"/>
      </g>
    </g>
    <path id="Trazado_986732" data-name="Trazado 986732" d="M2.087,1.166H5.4V14.153h7.842V17H2.087ZM18.426,5.291V17h-3.1V5.291Zm0-4.222V3.895h-3.1V1.069Zm9.539,7.444a1.5,1.5,0,0,0-1.515-.849,1.808,1.808,0,0,0-1.762.849,3.27,3.27,0,0,0-.247,1.439V17h-3.1V5.313h2.976V7.021a4.927,4.927,0,0,1,1.074-1.3,3.676,3.676,0,0,1,2.31-.687,3.653,3.653,0,0,1,2.17.591,3.437,3.437,0,0,1,1.01,1.407A3.893,3.893,0,0,1,32.37,5.517a4.556,4.556,0,0,1,2.105-.483,4.076,4.076,0,0,1,1.525.3,3.4,3.4,0,0,1,1.364,1.053,3.364,3.364,0,0,1,.666,1.5,10.4,10.4,0,0,1,.107,1.729L38.117,17H34.98V9.545a2.447,2.447,0,0,0-.215-1.1,1.527,1.527,0,0,0-1.5-.816A1.76,1.76,0,0,0,31.51,8.686a3.306,3.306,0,0,0-.247,1.343V17H28.18V10.028A3.916,3.916,0,0,0,27.965,8.514ZM44.1,5.291V17H41V5.291Zm0-4.222V3.895H41V1.069Zm8.325,13.75v2.288l-1.45.054a3.892,3.892,0,0,1-2.965-.752,2.239,2.239,0,0,1-.516-1.622V7.579H45.862V5.4h1.633V2.133h3.029V5.4h1.9V7.579h-1.9v6.188a1.394,1.394,0,0,0,.183.9,2.011,2.011,0,0,0,1.117.177q.14,0,.3-.005T52.425,14.819Zm2.406-8.261Q56.045,5.012,59,5.012a7.405,7.405,0,0,1,3.416.763,2.928,2.928,0,0,1,1.493,2.879v5.371q0,.559.021,1.354a1.7,1.7,0,0,0,.183.816,1.1,1.1,0,0,0,.451.354V17h-3.33a3.41,3.41,0,0,1-.193-.666q-.054-.312-.086-.709A6.29,6.29,0,0,1,59.494,16.8a4.394,4.394,0,0,1-2.234.569,3.842,3.842,0,0,1-2.626-.908A3.238,3.238,0,0,1,53.6,13.885a3.339,3.339,0,0,1,1.665-3.126,7.393,7.393,0,0,1,2.686-.752l1.042-.129A4.779,4.779,0,0,0,60.2,9.609a.92.92,0,0,0,.655-.87,1.032,1.032,0,0,0-.5-.994,3.12,3.12,0,0,0-1.466-.274,1.91,1.91,0,0,0-1.536.537,2.232,2.232,0,0,0-.43,1.074H53.972A4.493,4.493,0,0,1,54.832,6.559Zm2.277,8.229a1.6,1.6,0,0,0,1.053.354,3.118,3.118,0,0,0,1.821-.58,2.474,2.474,0,0,0,.865-2.116V11.307a3.327,3.327,0,0,1-.585.3,4.9,4.9,0,0,1-.811.209l-.687.129a4.439,4.439,0,0,0-1.386.419,1.4,1.4,0,0,0-.709,1.3A1.344,1.344,0,0,0,57.109,14.787Zm19.647-5.3H73.62a2.717,2.717,0,0,0-.44-1.182,1.847,1.847,0,0,0-1.6-.709,2.108,2.108,0,0,0-2.116,1.536,6.422,6.422,0,0,0-.3,2.17,5.905,5.905,0,0,0,.3,2.073,2.043,2.043,0,0,0,2.063,1.461,1.819,1.819,0,0,0,1.525-.58,2.887,2.887,0,0,0,.548-1.5h3.126a5.122,5.122,0,0,1-1.01,2.643,4.908,4.908,0,0,1-4.265,2.009,4.989,4.989,0,0,1-4.157-1.676,6.781,6.781,0,0,1-1.332-4.351,6.881,6.881,0,0,1,1.472-4.694,5.123,5.123,0,0,1,4.061-1.676A6.114,6.114,0,0,1,75.1,6,4.6,4.6,0,0,1,76.756,9.491Zm5.253-4.2V17H78.9V5.291Zm0-4.222V3.895H78.9V1.069Zm12.729,5.7a6.833,6.833,0,0,1,1.482,4.394,6.788,6.788,0,0,1-1.482,4.41,6.446,6.446,0,0,1-9,0,6.788,6.788,0,0,1-1.482-4.41,6.833,6.833,0,0,1,1.482-4.394,6.38,6.38,0,0,1,9,0Zm-4.512.73a2.446,2.446,0,0,0-2.068.951,4.4,4.4,0,0,0-.725,2.712,4.423,4.423,0,0,0,.725,2.718,2.709,2.709,0,0,0,4.13,0,4.448,4.448,0,0,0,.72-2.718,4.423,4.423,0,0,0-.72-2.712A2.432,2.432,0,0,0,90.227,7.5Zm13.7.054a2.132,2.132,0,0,0-2.138,1.321,4.538,4.538,0,0,0-.3,1.783V17H98.434V5.313h2.954V7.021a5.2,5.2,0,0,1,1.117-1.3,3.883,3.883,0,0,1,2.4-.709,4.52,4.52,0,0,1,2.97.951,3.866,3.866,0,0,1,1.155,3.153V17h-3.137V9.878a3.25,3.25,0,0,0-.247-1.418A1.738,1.738,0,0,0,103.923,7.558Zm17.95,6a3.884,3.884,0,0,1-1.085,2.116,5.316,5.316,0,0,1-4.211,1.708,5.938,5.938,0,0,1-3.942-1.439q-1.708-1.439-1.708-4.684A6.51,6.51,0,0,1,112.469,6.6a5.271,5.271,0,0,1,4-1.622,6.136,6.136,0,0,1,2.632.548,4.61,4.61,0,0,1,1.934,1.729,5.9,5.9,0,0,1,.892,2.417,15.61,15.61,0,0,1,.1,2.32H114.01a2.91,2.91,0,0,0,1.106,2.471,2.606,2.606,0,0,0,1.525.44,2.2,2.2,0,0,0,1.536-.537,2.551,2.551,0,0,0,.569-.806Zm-3.029-3.588a2.665,2.665,0,0,0-.736-1.842A2.285,2.285,0,0,0,116.47,7.5a2.079,2.079,0,0,0-1.649.666,3.324,3.324,0,0,0-.736,1.8Zm13.31-4.146a3.772,3.772,0,0,1,1.579,3.029h-3.062a1.811,1.811,0,0,0-.333-.935A2.1,2.1,0,0,0,128.62,7.3a2.47,2.47,0,0,0-1.423.312.9.9,0,0,0-.424.73.8.8,0,0,0,.451.763,19.531,19.531,0,0,0,3.19.849,5.86,5.86,0,0,1,2.739,1.3,2.951,2.951,0,0,1,.9,2.2,3.558,3.558,0,0,1-1.294,2.841,7.766,7.766,0,0,1-8.078-.064,3.792,3.792,0,0,1-1.316-2.97h3.1a2.044,2.044,0,0,0,.419,1.16,2.832,2.832,0,0,0,2.105.612,3.209,3.209,0,0,0,1.434-.269.9.9,0,0,0,.1-1.59,17.48,17.48,0,0,0-3.19-.924,6.645,6.645,0,0,1-2.8-1.235,2.678,2.678,0,0,1-.816-2.105,3.652,3.652,0,0,1,1.273-2.788,5.113,5.113,0,0,1,3.583-1.166A6.633,6.633,0,0,1,132.154,5.828Zm20.3,7.734a3.884,3.884,0,0,1-1.085,2.116,5.316,5.316,0,0,1-4.211,1.708,5.938,5.938,0,0,1-3.942-1.439q-1.708-1.439-1.708-4.684A6.51,6.51,0,0,1,143.052,6.6a5.271,5.271,0,0,1,4-1.622,6.136,6.136,0,0,1,2.632.548,4.61,4.61,0,0,1,1.934,1.729,5.9,5.9,0,0,1,.892,2.417,15.608,15.608,0,0,1,.1,2.32h-8.014a2.91,2.91,0,0,0,1.106,2.471,2.606,2.606,0,0,0,1.525.44,2.2,2.2,0,0,0,1.536-.537,2.551,2.551,0,0,0,.569-.806Zm-3.029-3.588a2.665,2.665,0,0,0-.736-1.842,2.285,2.285,0,0,0-1.638-.628,2.079,2.079,0,0,0-1.649.666,3.324,3.324,0,0,0-.736,1.8ZM160.18,7.558a2.132,2.132,0,0,0-2.138,1.321,4.539,4.539,0,0,0-.3,1.783V17h-3.051V5.313h2.954V7.021a5.2,5.2,0,0,1,1.117-1.3,3.883,3.883,0,0,1,2.4-.709,4.52,4.52,0,0,1,2.97.951,3.866,3.866,0,0,1,1.155,3.153V17h-3.137V9.878A3.25,3.25,0,0,0,161.9,8.46,1.738,1.738,0,0,0,160.18,7.558Zm14.1-6.392h3.062V17h-3.062Zm6.488,5.393q1.214-1.547,4.168-1.547a7.405,7.405,0,0,1,3.416.763,2.928,2.928,0,0,1,1.493,2.879v5.371q0,.559.021,1.354a1.7,1.7,0,0,0,.183.816,1.1,1.1,0,0,0,.451.354V17h-3.33a3.411,3.411,0,0,1-.193-.666q-.054-.312-.086-.709a6.29,6.29,0,0,1-1.461,1.171,4.394,4.394,0,0,1-2.234.569,3.842,3.842,0,0,1-2.626-.908,3.238,3.238,0,0,1-1.037-2.573,3.339,3.339,0,0,1,1.665-3.126,7.393,7.393,0,0,1,2.686-.752l1.042-.129a4.779,4.779,0,0,0,1.214-.269.92.92,0,0,0,.655-.87,1.032,1.032,0,0,0-.5-.994,3.12,3.12,0,0,0-1.466-.274,1.91,1.91,0,0,0-1.536.537,2.232,2.232,0,0,0-.43,1.074h-2.954A4.493,4.493,0,0,1,180.773,6.559Zm2.277,8.229a1.6,1.6,0,0,0,1.053.354,3.118,3.118,0,0,0,1.821-.58,2.474,2.474,0,0,0,.865-2.116V11.307a3.327,3.327,0,0,1-.585.3,4.9,4.9,0,0,1-.811.209l-.687.129a4.439,4.439,0,0,0-1.386.419,1.4,1.4,0,0,0-.709,1.3A1.344,1.344,0,0,0,183.05,14.787ZM27,31.691V43.4H23.9V31.691Zm0-4.222v2.825H23.9V27.469Zm8.476,6.488a2.132,2.132,0,0,0-2.138,1.321,4.538,4.538,0,0,0-.3,1.783V43.4H29.99V31.713h2.954v1.708a5.2,5.2,0,0,1,1.117-1.3,3.883,3.883,0,0,1,2.4-.709,4.52,4.52,0,0,1,2.97.951,3.866,3.866,0,0,1,1.155,3.153V43.4H37.445V36.278A3.25,3.25,0,0,0,37.2,34.86,1.738,1.738,0,0,0,35.48,33.958Zm13.288,7.262v2.288l-1.45.054a3.892,3.892,0,0,1-2.965-.752,2.239,2.239,0,0,1-.516-1.622V33.979H42.2V31.8h1.633V28.533h3.029V31.8h1.9v2.181h-1.9v6.188a1.394,1.394,0,0,0,.183.9,2.011,2.011,0,0,0,1.117.177q.14,0,.3-.005T48.768,41.219Zm11.988-1.257a3.884,3.884,0,0,1-1.085,2.116,5.316,5.316,0,0,1-4.211,1.708,5.938,5.938,0,0,1-3.942-1.439q-1.708-1.439-1.708-4.684A6.51,6.51,0,0,1,51.351,33a5.271,5.271,0,0,1,4-1.622,6.136,6.136,0,0,1,2.632.548,4.61,4.61,0,0,1,1.934,1.729,5.9,5.9,0,0,1,.892,2.417,15.609,15.609,0,0,1,.1,2.32H52.893A2.91,2.91,0,0,0,54,40.865a2.606,2.606,0,0,0,1.525.44,2.2,2.2,0,0,0,1.536-.537,2.551,2.551,0,0,0,.569-.806Zm-3.029-3.588a2.665,2.665,0,0,0-.736-1.842,2.285,2.285,0,0,0-1.638-.628,2.079,2.079,0,0,0-1.649.666,3.324,3.324,0,0,0-.736,1.8Zm11.129-1.858a2.539,2.539,0,0,0-2.481,1.2A4.68,4.68,0,0,0,66.02,37.8v5.6H62.937V31.691h2.922v2.041a6.473,6.473,0,0,1,1.235-1.6,3.363,3.363,0,0,1,2.234-.72q.086,0,.145.005t.263.016V34.57q-.29-.032-.516-.043T68.856,34.516Zm12.482-1.568A6.282,6.282,0,0,1,82.756,37.4a7.054,7.054,0,0,1-1.391,4.716,4.5,4.5,0,0,1-3.583,1.622,3.739,3.739,0,0,1-2.32-.7,4.5,4.5,0,0,1-.988-1.128v6.1H71.444V31.691h2.933v1.729a4.915,4.915,0,0,1,1.053-1.2,3.868,3.868,0,0,1,2.428-.784A4.6,4.6,0,0,1,81.338,32.948Zm-1.74,4.6a4.608,4.608,0,0,0-.618-2.4,2.15,2.15,0,0,0-2-1.042,2.279,2.279,0,0,0-2.288,1.579,5.989,5.989,0,0,0-.322,2.127,3.392,3.392,0,0,0,1.085,2.868,2.471,2.471,0,0,0,1.525.483,2.21,2.21,0,0,0,1.95-.988A4.609,4.609,0,0,0,79.6,37.546Zm11.258-3.029a2.539,2.539,0,0,0-2.481,1.2A4.68,4.68,0,0,0,88.02,37.8v5.6H84.937V31.691h2.922v2.041a6.473,6.473,0,0,1,1.235-1.6,3.363,3.363,0,0,1,2.234-.72q.086,0,.145.005t.263.016V34.57q-.29-.032-.516-.043T90.856,34.516Zm12.7,5.446a3.884,3.884,0,0,1-1.085,2.116,5.316,5.316,0,0,1-4.211,1.708,5.938,5.938,0,0,1-3.942-1.439q-1.708-1.439-1.708-4.684A6.51,6.51,0,0,1,94.148,33a5.271,5.271,0,0,1,4-1.622,6.136,6.136,0,0,1,2.632.548,4.61,4.61,0,0,1,1.934,1.729,5.9,5.9,0,0,1,.892,2.417,15.61,15.61,0,0,1,.1,2.32H95.69A2.91,2.91,0,0,0,96.8,40.865a2.606,2.606,0,0,0,1.525.44,2.2,2.2,0,0,0,1.536-.537,2.551,2.551,0,0,0,.569-.806Zm-3.029-3.588a2.665,2.665,0,0,0-.736-1.842,2.285,2.285,0,0,0-1.638-.628,2.079,2.079,0,0,0-1.649.666,3.324,3.324,0,0,0-.736,1.8Zm10.6,4.845v2.288l-1.45.054a3.892,3.892,0,0,1-2.965-.752,2.239,2.239,0,0,1-.516-1.622V33.979h-1.633V31.8H106.2V28.533h3.029V31.8h1.9v2.181h-1.9v6.188a1.394,1.394,0,0,0,.183.9,2.011,2.011,0,0,0,1.117.177q.14,0,.3-.005T111.126,41.219Zm2.406-8.261q1.214-1.547,4.168-1.547a7.405,7.405,0,0,1,3.416.763,2.928,2.928,0,0,1,1.493,2.879v5.371q0,.559.021,1.354a1.7,1.7,0,0,0,.183.816,1.1,1.1,0,0,0,.451.354V43.4h-3.33a3.41,3.41,0,0,1-.193-.666q-.054-.312-.086-.709a6.29,6.29,0,0,1-1.461,1.171,4.394,4.394,0,0,1-2.234.569,3.842,3.842,0,0,1-2.626-.908,3.238,3.238,0,0,1-1.037-2.573,3.339,3.339,0,0,1,1.665-3.126,7.393,7.393,0,0,1,2.686-.752l1.042-.129a4.779,4.779,0,0,0,1.214-.269.92.92,0,0,0,.655-.87,1.032,1.032,0,0,0-.5-.994,3.12,3.12,0,0,0-1.466-.274,1.91,1.91,0,0,0-1.536.537,2.232,2.232,0,0,0-.43,1.074h-2.954A4.493,4.493,0,0,1,113.532,32.959Zm2.277,8.229a1.6,1.6,0,0,0,1.053.354,3.118,3.118,0,0,0,1.821-.58,2.474,2.474,0,0,0,.865-2.116V37.707a3.327,3.327,0,0,1-.585.3,4.9,4.9,0,0,1-.811.209l-.687.129a4.439,4.439,0,0,0-1.386.419,1.4,1.4,0,0,0-.709,1.3A1.344,1.344,0,0,0,115.81,41.187Zm19.647-5.3H132.32a2.717,2.717,0,0,0-.44-1.182,1.847,1.847,0,0,0-1.6-.709,2.108,2.108,0,0,0-2.116,1.536,6.422,6.422,0,0,0-.3,2.17,5.905,5.905,0,0,0,.3,2.073,2.043,2.043,0,0,0,2.063,1.461,1.819,1.819,0,0,0,1.525-.58,2.887,2.887,0,0,0,.548-1.5h3.126a5.122,5.122,0,0,1-1.01,2.643,4.908,4.908,0,0,1-4.265,2.009,4.989,4.989,0,0,1-4.157-1.676,6.781,6.781,0,0,1-1.332-4.351,6.881,6.881,0,0,1,1.472-4.694,5.123,5.123,0,0,1,4.061-1.676,6.114,6.114,0,0,1,3.6.988A4.6,4.6,0,0,1,135.457,35.891Zm5.253-4.2V43.4h-3.1V31.691Zm0-4.222v2.825h-3.1V27.469Zm12.729,5.7a7.276,7.276,0,0,1,0,8.8,6.446,6.446,0,0,1-9,0,7.276,7.276,0,0,1,0-8.8,6.38,6.38,0,0,1,9,0Zm-4.512.73a2.446,2.446,0,0,0-2.068.951,4.4,4.4,0,0,0-.725,2.712,4.423,4.423,0,0,0,.725,2.718,2.709,2.709,0,0,0,4.13,0,4.448,4.448,0,0,0,.72-2.718,4.423,4.423,0,0,0-.72-2.712A2.432,2.432,0,0,0,148.928,33.9Zm-1.8-3.792,2.063-3.212H152.6l-3.266,3.212Zm15.5,3.846a2.132,2.132,0,0,0-2.138,1.321,4.539,4.539,0,0,0-.3,1.783V43.4h-3.051V31.713h2.954v1.708a5.2,5.2,0,0,1,1.117-1.3,3.883,3.883,0,0,1,2.4-.709,4.52,4.52,0,0,1,2.97.951,3.866,3.866,0,0,1,1.155,3.153V43.4H164.59V36.278a3.25,3.25,0,0,0-.247-1.418A1.738,1.738,0,0,0,162.624,33.958Z" transform="translate(983.116 5439.23)" fill="#212429"/>
  </g>
</svg>
