<svg xmlns="http://www.w3.org/2000/svg" xmlns:xlink="http://www.w3.org/1999/xlink" width="113" height="113" viewBox="0 0 113 113">
  <defs>
    <filter id="Trazado_982547" x="0" y="0" width="113" height="113" filterUnits="userSpaceOnUse">
      <feOffset dy="3" input="SourceAlpha"/>
      <feGaussianBlur stdDeviation="3" result="blur"/>
      <feFlood flood-opacity="0.161"/>
      <feComposite operator="in" in2="blur"/>
      <feComposite in="SourceGraphic"/>
    </filter>
  </defs>
  <g id="Grupo_1148582" data-name="Grupo 1148582" transform="translate(-744 -3704.178)">
    <g id="Grupo_1147087" data-name="Grupo 1147087" transform="translate(753 3710.178)">
      <g transform="matrix(1, 0, 0, 1, -9, -6)" filter="url(#Trazado_982547)">
        <g id="Trazado_982547-2" data-name="Trazado 982547" transform="translate(9 6)" fill="#fdeffe">
          <path d="M 47.5 93.5 C 41.28937149047852 93.5 35.26533508300781 92.28397369384766 29.59518623352051 89.88570404052734 C 24.11771965026855 87.56893157958984 19.19813346862793 84.25196075439453 14.97309303283691 80.02691650390625 C 10.74804019927979 75.80186462402344 7.431066513061523 70.88229370117188 5.114293098449707 65.40481567382812 C 2.716026782989502 59.73468017578125 1.5 53.71062850952148 1.5 47.5 C 1.5 41.28937149047852 2.716026782989502 35.26533508300781 5.114293098449707 29.59518623352051 C 7.431066513061523 24.11771965026855 10.74804019927979 19.19813346862793 14.97309303283691 14.97309303283691 C 19.19813346862793 10.74804019927979 24.11771965026855 7.431066513061523 29.59518623352051 5.114293098449707 C 35.26533508300781 2.716026782989502 41.28937149047852 1.5 47.5 1.5 C 53.71062850952148 1.5 59.73468017578125 2.716026782989502 65.40481567382812 5.114293098449707 C 70.88229370117188 7.431066513061523 75.80186462402344 10.74804019927979 80.02691650390625 14.97309303283691 C 84.25196075439453 19.19813346862793 87.56893157958984 24.11771965026855 89.88570404052734 29.59518623352051 C 92.28397369384766 35.26533508300781 93.5 41.28937149047852 93.5 47.5 C 93.5 53.71062850952148 92.28397369384766 59.73468017578125 89.88570404052734 65.40481567382812 C 87.56893157958984 70.88229370117188 84.25196075439453 75.80186462402344 80.02691650390625 80.02691650390625 C 75.80186462402344 84.25196075439453 70.88229370117188 87.56893157958984 65.40481567382812 89.88570404052734 C 59.73468017578125 92.28397369384766 53.71062850952148 93.5 47.5 93.5 Z" stroke="none"/>
          <path d="M 47.5 3 C 41.49121475219727 3 35.66376876831055 4.176155090332031 30.17950439453125 6.495796203613281 C 24.88084411621094 8.736953735351562 20.12152099609375 11.94598388671875 16.03375244140625 16.03375244140625 C 11.94598388671875 20.12152099609375 8.736953735351562 24.88084411621094 6.495796203613281 30.17950439453125 C 4.176155090332031 35.66376876831055 3 41.49121475219727 3 47.5 C 3 53.50878524780273 4.176155090332031 59.33623123168945 6.495796203613281 64.82049560546875 C 8.736953735351562 70.11915588378906 11.94598388671875 74.87847900390625 16.03375244140625 78.96624755859375 C 20.12152099609375 83.05401611328125 24.88084411621094 86.26304626464844 30.17950439453125 88.50419616699219 C 35.66376876831055 90.82384490966797 41.49121475219727 92 47.5 92 C 53.50878524780273 92 59.33623123168945 90.82384490966797 64.82049560546875 88.50419616699219 C 70.11915588378906 86.26304626464844 74.87847900390625 83.05401611328125 78.96624755859375 78.96624755859375 C 83.05401611328125 74.87847900390625 86.26304626464844 70.11915588378906 88.50419616699219 64.82049560546875 C 90.82384490966797 59.33623123168945 92 53.50878524780273 92 47.5 C 92 41.49121475219727 90.82384490966797 35.66376876831055 88.50419616699219 30.17950439453125 C 86.26304626464844 24.88084411621094 83.05401611328125 20.12152099609375 78.96624755859375 16.03375244140625 C 74.87847900390625 11.94598388671875 70.11915588378906 8.736953735351562 64.82049560546875 6.495796203613281 C 59.33623123168945 4.176155090332031 53.50878524780273 3 47.5 3 M 47.5 0 C 73.7335205078125 0 95 21.2664794921875 95 47.5 C 95 73.7335205078125 73.7335205078125 95 47.5 95 C 21.2664794921875 95 0 73.7335205078125 0 47.5 C 0 21.2664794921875 21.2664794921875 0 47.5 0 Z" stroke="none" fill="#ee70f7"/>
        </g>
      </g>
      <g id="Share_user" data-name="Share user" transform="translate(16 16.565)">
        <path id="Trazado_986448" data-name="Trazado 986448" d="M29,55H24v6H40V55H35V51H29Z" fill="#ebbf00"/>
        <path id="Trazado_986449" data-name="Trazado 986449" d="M61,11V43a2.006,2.006,0,0,1-2,2H5a2.006,2.006,0,0,1-2-2V9H59A2.006,2.006,0,0,1,61,11Z" fill="#fe9d52"/>
        <path id="Trazado_986450" data-name="Trazado 986450" d="M27,5a2,2,0,0,0-2-2H5A2,2,0,0,0,3,5V9H27Z" fill="#ebbf00"/>
        <circle id="Elipse_11570" data-name="Elipse 11570" cx="4" cy="4" r="4" transform="translate(27 14)" fill="#57a4ff"/>
        <path id="Trazado_986451" data-name="Trazado 986451" d="M43,25a6,6,0,0,0-5.43,3.45A7.93,7.93,0,0,1,39,33v6H49V31a6.009,6.009,0,0,0-6-6Z" fill="#bddbff"/>
        <circle id="Elipse_11571" data-name="Elipse 11571" cx="3" cy="3" r="3" transform="translate(40 16)" fill="#bddbff"/>
        <path id="Trazado_986452" data-name="Trazado 986452" d="M37.57,28.45a6.892,6.892,0,0,0-.91-1.11,8,8,0,0,0-12.23,1.11A7.93,7.93,0,0,0,23,33v8H39V33A7.93,7.93,0,0,0,37.57,28.45Z" fill="#57a4ff"/>
        <path id="Trazado_986453" data-name="Trazado 986453" d="M24.43,28.45A6,6,0,0,0,13,31v8H23V33A7.93,7.93,0,0,1,24.43,28.45Z" fill="#bddbff"/>
        <circle id="Elipse_11572" data-name="Elipse 11572" cx="3" cy="3" r="3" transform="translate(16 16)" fill="#bddbff"/>
        <path id="Trazado_986454" data-name="Trazado 986454" d="M59,46a3,3,0,0,0,3-3V11a3,3,0,0,0-3-3H28V5a3,3,0,0,0-3-3H5A3,3,0,0,0,2,5V43a3,3,0,0,0,3,3H31v4H29a1,1,0,0,0-1,1v3H24a1,1,0,0,0-1,1v2H3a1,1,0,0,0,0,2H23v2a1,1,0,0,0,1,1H40a1,1,0,0,0,1-1V59H61a1,1,0,0,0,0-2H41V55a1,1,0,0,0-1-1H36V51a1,1,0,0,0-1-1H33V46ZM35,56h4v4H25V56h4a1,1,0,0,0,1-1V52h4v3A1,1,0,0,0,35,56ZM4,5A1,1,0,0,1,5,4H25a1,1,0,0,1,1,1V8H4ZM4,43V10H59a1,1,0,0,1,1,1V43a1,1,0,0,1-1,1H5A1,1,0,0,1,4,43Z" fill="#231f20"/>
        <path id="Trazado_986455" data-name="Trazado 986455" d="M31,23a5,5,0,1,0-5-5A5.006,5.006,0,0,0,31,23Zm0-8a3,3,0,1,1-3,3A3,3,0,0,1,31,15Z" fill="#231f20"/>
        <path id="Trazado_986456" data-name="Trazado 986456" d="M43,23a4,4,0,1,0-4-4A4,4,0,0,0,43,23Zm0-6a2,2,0,1,1-2,2A2,2,0,0,1,43,17Z" fill="#231f20"/>
        <path id="Trazado_986457" data-name="Trazado 986457" d="M40,41V40h9a1,1,0,0,0,1-1V31a7.008,7.008,0,0,0-7-7,7.019,7.019,0,0,0-5.531,2.745c-.036-.038-.067-.077-.1-.115a8.983,8.983,0,0,0-12.825.126A7.019,7.019,0,0,0,19,24a7.009,7.009,0,0,0-7,7v8a1,1,0,0,0,1,1h9v1a1,1,0,0,0,1,1H39A1,1,0,0,0,40,41Zm3-15a5.009,5.009,0,0,1,5,5v7H40V33a8.94,8.94,0,0,0-.1-1.291c-.021-.148-.061-.29-.089-.436-.053-.272-.108-.543-.187-.808-.052-.175-.119-.344-.181-.515-.083-.227-.167-.452-.268-.672-.08-.175-.17-.343-.262-.512-.065-.12-.115-.246-.186-.363A5.026,5.026,0,0,1,43,26ZM14,38V31a5.009,5.009,0,0,1,5-5,5.029,5.029,0,0,1,4.271,2.4c-.073.122-.126.252-.193.376-.084.157-.168.313-.243.474-.11.238-.2.481-.291.727-.057.158-.118.313-.166.473-.082.276-.14.557-.195.84-.027.138-.064.273-.085.413A8.968,8.968,0,0,0,22,33v5H14Zm24,2H24V33a7,7,0,0,1,11.953-4.953,5.968,5.968,0,0,1,.8.976A6.92,6.92,0,0,1,38,33v7Z" fill="#231f20"/>
        <path id="Trazado_986458" data-name="Trazado 986458" d="M19,23a4,4,0,1,0-4-4A4,4,0,0,0,19,23Zm0-6a2,2,0,1,1-2,2A2,2,0,0,1,19,17Z" fill="#231f20"/>
      </g>
    </g>
  </g>
</svg>
