<svg xmlns="http://www.w3.org/2000/svg" xmlns:xlink="http://www.w3.org/1999/xlink" width="113" height="113" viewBox="0 0 113 113">
  <defs>
    <filter id="Trazado_982547" x="0" y="0" width="113" height="113" filterUnits="userSpaceOnUse">
      <feOffset dy="3" input="SourceAlpha"/>
      <feGaussianBlur stdDeviation="3" result="blur"/>
      <feFlood flood-opacity="0.161"/>
      <feComposite operator="in" in2="blur"/>
      <feComposite in="SourceGraphic"/>
    </filter>
  </defs>
  <g id="Grupo_1148591" data-name="Grupo 1148591" transform="translate(-1164 -3704.178)">
    <g id="Grupo_1147088" data-name="Grupo 1147088" transform="translate(1173 3710.178)">
      <g transform="matrix(1, 0, 0, 1, -9, -6)" filter="url(#Trazado_982547)">
        <g id="Trazado_982547-2" data-name="Trazado 982547" transform="translate(9 6)" fill="#fdeffe">
          <path d="M 47.5 93.5 C 41.28937149047852 93.5 35.26533508300781 92.28397369384766 29.59518623352051 89.88570404052734 C 24.11771965026855 87.56893157958984 19.19813346862793 84.25196075439453 14.97309303283691 80.02691650390625 C 10.74804019927979 75.80186462402344 7.431066513061523 70.88229370117188 5.114293098449707 65.40481567382812 C 2.716026782989502 59.73468017578125 1.5 53.71062850952148 1.5 47.5 C 1.5 41.28937149047852 2.716026782989502 35.26533508300781 5.114293098449707 29.59518623352051 C 7.431066513061523 24.11771965026855 10.74804019927979 19.19813346862793 14.97309303283691 14.97309303283691 C 19.19813346862793 10.74804019927979 24.11771965026855 7.431066513061523 29.59518623352051 5.114293098449707 C 35.26533508300781 2.716026782989502 41.28937149047852 1.5 47.5 1.5 C 53.71062850952148 1.5 59.73468017578125 2.716026782989502 65.40481567382812 5.114293098449707 C 70.88229370117188 7.431066513061523 75.80186462402344 10.74804019927979 80.02691650390625 14.97309303283691 C 84.25196075439453 19.19813346862793 87.56893157958984 24.11771965026855 89.88570404052734 29.59518623352051 C 92.28397369384766 35.26533508300781 93.5 41.28937149047852 93.5 47.5 C 93.5 53.71062850952148 92.28397369384766 59.73468017578125 89.88570404052734 65.40481567382812 C 87.56893157958984 70.88229370117188 84.25196075439453 75.80186462402344 80.02691650390625 80.02691650390625 C 75.80186462402344 84.25196075439453 70.88229370117188 87.56893157958984 65.40481567382812 89.88570404052734 C 59.73468017578125 92.28397369384766 53.71062850952148 93.5 47.5 93.5 Z" stroke="none"/>
          <path d="M 47.5 3 C 41.49121475219727 3 35.66376876831055 4.176155090332031 30.17950439453125 6.495796203613281 C 24.88084411621094 8.736953735351562 20.12152099609375 11.94598388671875 16.03375244140625 16.03375244140625 C 11.94598388671875 20.12152099609375 8.736953735351562 24.88084411621094 6.495796203613281 30.17950439453125 C 4.176155090332031 35.66376876831055 3 41.49121475219727 3 47.5 C 3 53.50878524780273 4.176155090332031 59.33623123168945 6.495796203613281 64.82049560546875 C 8.736953735351562 70.11915588378906 11.94598388671875 74.87847900390625 16.03375244140625 78.96624755859375 C 20.12152099609375 83.05401611328125 24.88084411621094 86.26304626464844 30.17950439453125 88.50419616699219 C 35.66376876831055 90.82384490966797 41.49121475219727 92 47.5 92 C 53.50878524780273 92 59.33623123168945 90.82384490966797 64.82049560546875 88.50419616699219 C 70.11915588378906 86.26304626464844 74.87847900390625 83.05401611328125 78.96624755859375 78.96624755859375 C 83.05401611328125 74.87847900390625 86.26304626464844 70.11915588378906 88.50419616699219 64.82049560546875 C 90.82384490966797 59.33623123168945 92 53.50878524780273 92 47.5 C 92 41.49121475219727 90.82384490966797 35.66376876831055 88.50419616699219 30.17950439453125 C 86.26304626464844 24.88084411621094 83.05401611328125 20.12152099609375 78.96624755859375 16.03375244140625 C 74.87847900390625 11.94598388671875 70.11915588378906 8.736953735351562 64.82049560546875 6.495796203613281 C 59.33623123168945 4.176155090332031 53.50878524780273 3 47.5 3 M 47.5 0 C 73.7335205078125 0 95 21.2664794921875 95 47.5 C 95 73.7335205078125 73.7335205078125 95 47.5 95 C 21.2664794921875 95 0 73.7335205078125 0 47.5 C 0 21.2664794921875 21.2664794921875 0 47.5 0 Z" stroke="none" fill="#ee70f7"/>
        </g>
      </g>
      <g id="Share_folder" data-name="Share folder" transform="translate(17 15.565)">
        <path id="Trazado_986459" data-name="Trazado 986459" d="M29,55H24v6H40V55H35V51H29Z" fill="#ebbf00"/>
        <path id="Trazado_986460" data-name="Trazado 986460" d="M61,43V11a2,2,0,0,0-2-2H3V43a2,2,0,0,0,2,2H59A2,2,0,0,0,61,43ZM32,39A12,12,0,1,1,44,27,12,12,0,0,1,32,39Z" fill="#fe9d52"/>
        <path id="Trazado_986461" data-name="Trazado 986461" d="M27,5a2,2,0,0,0-2-2H5A2,2,0,0,0,3,5V9H27Z" fill="#ebbf00"/>
        <path id="Trazado_986462" data-name="Trazado 986462" d="M32,15A12,12,0,1,0,44,27,12,12,0,0,0,32,15ZM30,32l-4.243-4.243L30,32l8.485-8.485Z" fill="#3c97da"/>
        <path id="Trazado_986463" data-name="Trazado 986463" d="M59,46a3,3,0,0,0,3-3V11a3,3,0,0,0-3-3H28V5a3,3,0,0,0-3-3H5A3,3,0,0,0,2,5V43a3,3,0,0,0,3,3H31v4H29a1,1,0,0,0-1,1v3H24a1,1,0,0,0-1,1v2H3a1,1,0,0,0,0,2H23v2a1,1,0,0,0,1,1H40a1,1,0,0,0,1-1V59H61a1,1,0,0,0,0-2H41V55a1,1,0,0,0-1-1H36V51a1,1,0,0,0-1-1H33V46ZM35,56h4v4H25V56h4a1,1,0,0,0,1-1V52h4v3A1,1,0,0,0,35,56ZM4,5A1,1,0,0,1,5,4H25a1,1,0,0,1,1,1V8H4ZM4,43V10H59a1,1,0,0,1,1,1V43a1,1,0,0,1-1,1H5A1,1,0,0,1,4,43Z" fill="#231f20"/>
        <path id="Trazado_986464" data-name="Trazado 986464" d="M45,27A13,13,0,1,0,32,40,13.015,13.015,0,0,0,45,27ZM21,27A11,11,0,1,1,32,38,11.013,11.013,0,0,1,21,27Z" fill="#231f20"/>
        <path id="Trazado_986465" data-name="Trazado 986465" d="M39.192,22.808a1,1,0,0,0-1.414,0L30,30.586,26.464,27.05a1,1,0,1,0-1.414,1.414l4.243,4.243a1,1,0,0,0,1.414,0l8.485-8.485A1,1,0,0,0,39.192,22.808Z" fill="#231f20"/>
      </g>
    </g>
  </g>
</svg>
