<svg xmlns="http://www.w3.org/2000/svg" xmlns:xlink="http://www.w3.org/1999/xlink" width="108" height="108" viewBox="0 0 108 108">
  <defs>
    <filter id="Fondo" x="0" y="0" width="108" height="108" filterUnits="userSpaceOnUse">
      <feOffset dy="3" input="SourceAlpha"/>
      <feGaussianBlur stdDeviation="3" result="blur"/>
      <feFlood flood-opacity="0.161"/>
      <feComposite operator="in" in2="blur"/>
      <feComposite in="SourceGraphic"/>
    </filter>
  </defs>
  <g id="Icono" transform="translate(9 -689)">
    <g transform="matrix(1, 0, 0, 1, -9, 689)" filter="url(#Fondo)">
      <g id="Fondo-2" data-name="Fondo" transform="translate(9 6)" fill="#fee1ca">
        <path d="M 45 88.5 C 39.12687683105469 88.5 33.43022537231445 87.35007476806641 28.06830024719238 85.08217620849609 C 22.88852500915527 82.89131164550781 18.23629951477051 79.75458526611328 14.2408504486084 75.75914764404297 C 10.24541282653809 71.76370239257812 7.108687400817871 67.11147308349609 4.917825222015381 61.93170166015625 C 2.649924993515015 56.56977462768555 1.5 50.87312316894531 1.5 45 C 1.5 39.12687683105469 2.649924993515015 33.43022537231445 4.917825222015381 28.06830024719238 C 7.108687400817871 22.88852500915527 10.24541282653809 18.23629951477051 14.2408504486084 14.2408504486084 C 18.23629951477051 10.24541282653809 22.88852500915527 7.108687400817871 28.06830024719238 4.917825222015381 C 33.43022537231445 2.649924993515015 39.12687683105469 1.5 45 1.5 C 50.87312316894531 1.5 56.56977462768555 2.649924993515015 61.93170166015625 4.917825222015381 C 67.11147308349609 7.108687400817871 71.76370239257812 10.24541282653809 75.75914764404297 14.2408504486084 C 79.75458526611328 18.23629951477051 82.89131164550781 22.88852500915527 85.08217620849609 28.06830024719238 C 87.35007476806641 33.43022537231445 88.5 39.12687683105469 88.5 45 C 88.5 50.87312316894531 87.35007476806641 56.56977462768555 85.08217620849609 61.93170166015625 C 82.89131164550781 67.11147308349609 79.75458526611328 71.76370239257812 75.75914764404297 75.75914764404297 C 71.76370239257812 79.75458526611328 67.11147308349609 82.89131164550781 61.93170166015625 85.08217620849609 C 56.56977462768555 87.35007476806641 50.87312316894531 88.5 45 88.5 Z" stroke="none"/>
        <path d="M 45 3 C 39.32871246337891 3 33.82865524291992 4.110054016113281 28.65262985229492 6.299339294433594 C 23.65165710449219 8.414573669433594 19.15968322753906 11.44334411621094 15.301513671875 15.301513671875 C 11.44334411621094 19.15968322753906 8.414573669433594 23.65165710449219 6.299339294433594 28.65262985229492 C 4.110054016113281 33.82865524291992 3 39.32871246337891 3 45 C 3 50.67128753662109 4.110054016113281 56.17134475708008 6.299339294433594 61.34737396240234 C 8.414573669433594 66.34834289550781 11.44334411621094 70.84031677246094 15.301513671875 74.698486328125 C 19.15968322753906 78.55665588378906 23.65165710449219 81.58542633056641 28.65262985229492 83.70066070556641 C 33.82865524291992 85.88994598388672 39.32871246337891 87 45 87 C 50.67128753662109 87 56.17134475708008 85.88994598388672 61.34737396240234 83.70066070556641 C 66.34834289550781 81.58542633056641 70.84031677246094 78.55665588378906 74.698486328125 74.698486328125 C 78.55665588378906 70.84031677246094 81.58542633056641 66.34834289550781 83.70066070556641 61.34737396240234 C 85.88994598388672 56.17134475708008 87 50.67128753662109 87 45 C 87 39.32871246337891 85.88994598388672 33.82865524291992 83.70066070556641 28.65262985229492 C 81.58542633056641 23.65165710449219 78.55665588378906 19.15968322753906 74.698486328125 15.301513671875 C 70.84031677246094 11.44334411621094 66.34834289550781 8.414573669433594 61.34737396240234 6.299339294433594 C 56.17134475708008 4.110054016113281 50.67128753662109 3 45 3 M 45 0 C 69.85281372070312 0 90 20.14718627929688 90 45 C 90 69.85281372070312 69.85281372070312 90 45 90 C 20.14718627929688 90 0 69.85281372070312 0 45 C 0 20.14718627929688 20.14718627929688 0 45 0 Z" stroke="none" fill="#8a552c"/>
      </g>
    </g>
    <g id="_044-statistics" data-name="044-statistics" transform="translate(18.738 712.727)">
      <g id="Grupo_1148958" data-name="Grupo 1148958" transform="translate(0.78 0.782)">
        <g id="Grupo_1148954" data-name="Grupo 1148954" transform="translate(0 21.047)">
          <path id="Trazado_986476" data-name="Trazado 986476" d="M14.234,232.491h-3.9A2.836,2.836,0,0,0,7.5,235.327v25.466h9.57V235.327a2.836,2.836,0,0,0-2.836-2.836Z" transform="translate(-7.5 -230.129)" fill="#b3e59f"/>
          <path id="Trazado_986477" data-name="Trazado 986477" d="M149.241,328.427h-3.9a2.836,2.836,0,0,0-2.836,2.836v15.484h9.57V331.263A2.836,2.836,0,0,0,149.241,328.427Z" transform="translate(-128.46 -316.083)" fill="#9dc6fb"/>
          <path id="Trazado_986478" data-name="Trazado 986478" d="M284.246,209.79h-3.9a2.836,2.836,0,0,0-2.836,2.836v27.827h9.57V212.626A2.836,2.836,0,0,0,284.246,209.79Z" transform="translate(-249.418 -209.79)" fill="#ffe07d"/>
          <path id="Trazado_986479" data-name="Trazado 986479" d="M419.252,378.274h-3.9a2.836,2.836,0,0,0-2.836,2.836v10.3h9.57v-10.3A2.836,2.836,0,0,0,419.252,378.274Z" transform="translate(-370.378 -360.744)" fill="#e27f83"/>
        </g>
        <g id="Grupo_1148955" data-name="Grupo 1148955" transform="translate(0 21.047)">
          <path id="Trazado_986480" data-name="Trazado 986480" d="M13.542,232.5a2.836,2.836,0,0,0-2.836,2.835V260.8H7.5V235.334a2.836,2.836,0,0,1,2.835-2.835Z" transform="translate(-7.5 -230.136)" fill="#95d6a4"/>
          <path id="Trazado_986481" data-name="Trazado 986481" d="M148.542,328.426a2.836,2.836,0,0,0-2.835,2.836v15.484H142.5V331.262a2.836,2.836,0,0,1,2.836-2.836Z" transform="translate(-128.454 -316.082)" fill="#80b4fb"/>
          <path id="Trazado_986482" data-name="Trazado 986482" d="M283.553,209.788a2.836,2.836,0,0,0-2.836,2.836v27.827h-3.205V212.624a2.836,2.836,0,0,1,2.836-2.836Z" transform="translate(-249.417 -209.788)" fill="#ffd064"/>
          <path id="Trazado_986483" data-name="Trazado 986483" d="M418.562,378.274a2.836,2.836,0,0,0-2.835,2.836v10.3h-3.205v-10.3a2.835,2.835,0,0,1,2.835-2.836Z" transform="translate(-370.381 -360.744)" fill="#c8646d"/>
        </g>
        <g id="Grupo_1148957" data-name="Grupo 1148957" transform="translate(1.362)">
          <path id="Trazado_986484" data-name="Trazado 986484" d="M83.271,46.345a1.7,1.7,0,0,1-2.381-.327l-.161-.212L67.434,28.283l-.213.2L54.055,40.541a1.7,1.7,0,0,1-2.021.2l-14.046-8.4a1.7,1.7,0,0,1,1.744-2.915l12.739,7.622.222.132,13.82-12.662a1.7,1.7,0,0,1,2.5.226L83.6,43.964a1.7,1.7,0,0,1-.327,2.381Z" transform="translate(-35.437 -22.348)" fill="#d3effb"/>
          <g id="Grupo_1148956" data-name="Grupo 1148956" transform="translate(1.724 1.724)">
            <path id="Trazado_986485" data-name="Trazado 986485" d="M55,83.88l-.947.868a1.7,1.7,0,0,1-2.02.2l-14.047-8.4a1.7,1.7,0,0,1,.61-3.136,1.7,1.7,0,0,0,.74,1.994l14.046,8.4A1.7,1.7,0,0,0,55,83.88Z" transform="translate(-37.158 -68.279)" fill="#b1e4f9"/>
            <path id="Trazado_986486" data-name="Trazado 986486" d="M199.117,24.37,182.81,39.31l.156-2.262.222.132,13.82-12.662a1.7,1.7,0,0,1,2.109-.148Z" transform="translate(-167.656 -24.072)" fill="#b1e4f9"/>
            <path id="Trazado_986487" data-name="Trazado 986487" d="M339.492,72.406l-1.124.815L325.074,55.7l-.213.2-.14-.96,1.316-.262Z" transform="translate(-294.8 -51.486)" fill="#b1e4f9"/>
          </g>
          <circle id="Elipse_11575" data-name="Elipse 11575" cx="3.423" cy="3.423" r="3.423" transform="translate(0 5.113)" fill="#b3e59f"/>
          <path id="Trazado_986488" data-name="Trazado 986488" d="M25.346,63.221a3.423,3.423,0,1,1,0-6.31,3.427,3.427,0,0,0,0,6.31Z" transform="translate(-20.589 -51.529)" fill="#95d6a4"/>
          <circle id="Elipse_11576" data-name="Elipse 11576" cx="3.423" cy="3.423" r="3.423" transform="translate(14.047 13.517)" fill="#9dc6fb"/>
          <path id="Trazado_986489" data-name="Trazado 986489" d="M160.353,144a3.423,3.423,0,1,1,0-6.31,3.427,3.427,0,0,0,0,6.31Z" transform="translate(-141.549 -123.902)" fill="#80b4fb"/>
          <circle id="Elipse_11577" data-name="Elipse 11577" cx="3.423" cy="3.423" r="3.423" transform="translate(28.801)" fill="#ffe07d"/>
          <path id="Trazado_986490" data-name="Trazado 986490" d="M302.161,14.083a3.423,3.423,0,1,1,0-6.31,3.427,3.427,0,0,0,0,6.31Z" transform="translate(-268.603 -7.504)" fill="#ffd064"/>
          <circle id="Elipse_11578" data-name="Elipse 11578" cx="3.423" cy="3.423" r="3.423" transform="translate(43.384 19.22)" fill="#e27f83"/>
          <path id="Trazado_986491" data-name="Trazado 986491" d="M442.312,198.811a3.423,3.423,0,1,1,0-6.31,3.427,3.427,0,0,0,0,6.31Z" transform="translate(-394.171 -173.011)" fill="#c8646d"/>
        </g>
      </g>
      <g id="Grupo_1148959" data-name="Grupo 1148959" transform="translate(0 0.002)">
        <path id="Trazado_986492" data-name="Trazado 986492" d="M7.515,224.99h-3.9A3.621,3.621,0,0,0,0,228.607v25.465a.78.78,0,0,0,.78.78h9.57a.78.78,0,0,0,.78-.78v-2.044a.78.78,0,1,0-1.561,0v1.264H1.561V228.607a2.058,2.058,0,0,1,2.056-2.056h3.9a2.058,2.058,0,0,1,2.055,2.056v20.306a.78.78,0,0,0,1.561,0V228.607a3.62,3.62,0,0,0-3.616-3.617Z" transform="translate(0 -201.581)"/>
        <path id="Trazado_986493" data-name="Trazado 986493" d="M142.52,320.927h-3.9a3.62,3.62,0,0,0-3.616,3.616v15.484a.78.78,0,0,0,.78.78h9.57a.78.78,0,0,0,.78-.78V324.543A3.62,3.62,0,0,0,142.52,320.927Zm2.056,18.32h-8.01v-14.7a2.058,2.058,0,0,1,2.056-2.055h3.9a2.058,2.058,0,0,1,2.056,2.055v14.7Z" transform="translate(-120.958 -287.536)"/>
        <path id="Trazado_986494" data-name="Trazado 986494" d="M277.527,202.29h-3.9a3.62,3.62,0,0,0-3.616,3.616v27.827a.78.78,0,0,0,.78.78h9.57a.78.78,0,0,0,.78-.78V205.906A3.62,3.62,0,0,0,277.527,202.29Zm2.056,30.663h-8.01V205.906a2.058,2.058,0,0,1,2.056-2.056h3.9a2.058,2.058,0,0,1,2.056,2.056v27.047Z" transform="translate(-241.918 -181.243)"/>
        <path id="Trazado_986495" data-name="Trazado 986495" d="M412.533,370.774h-3.9a3.62,3.62,0,0,0-3.616,3.616v10.3a.78.78,0,0,0,.78.78h9.57a.78.78,0,0,0,.78-.78v-10.3A3.62,3.62,0,0,0,412.533,370.774Zm2.056,13.133h-8.01V374.39a2.058,2.058,0,0,1,2.056-2.056h3.9a2.058,2.058,0,0,1,2.056,2.056v9.517Z" transform="translate(-362.878 -332.197)"/>
        <path id="Trazado_986496" data-name="Trazado 986496" d="M17.293,13.522a4.181,4.181,0,0,0,1.639-.333l8.222,4.919a4.2,4.2,0,1,0,8.363-.849l9.748-8.932a4.2,4.2,0,0,0,.829.083l.076,0L56.65,22.22a4.2,4.2,0,1,0,4.026-3l-.075,0-4.466-5.885a.78.78,0,1,0-1.243.943L58.93,19.6a4.226,4.226,0,0,0-1.463,1.112L47.841,8.027A4.227,4.227,0,0,0,49.3,6.916l3.7,4.88a.78.78,0,1,0,1.243-.943L50.12,5.412a4.2,4.2,0,1,0-8.2-.742L32.167,13.6a4.2,4.2,0,0,0-2.467.251L21.478,8.933a4.2,4.2,0,1,0-4.185,4.589Zm43.384,7.261a2.643,2.643,0,1,1-2.643,2.643A2.646,2.646,0,0,1,60.676,20.783ZM20.338,12.211a4.208,4.208,0,0,0,.946-1.576l7.011,4.194a4.207,4.207,0,0,0-.946,1.576ZM46.094,1.562a2.643,2.643,0,1,1-2.643,2.643,2.646,2.646,0,0,1,2.643-2.643ZM42.451,6.3a4.234,4.234,0,0,0,1.241,1.354l-8.708,7.979a4.234,4.234,0,0,0-1.242-1.355ZM33.982,17.723A2.643,2.643,0,1,1,31.34,15.08,2.646,2.646,0,0,1,33.982,17.723ZM17.293,6.675A2.643,2.643,0,1,1,14.65,9.318,2.646,2.646,0,0,1,17.293,6.675Z" transform="translate(-11.727 -0.002)"/>
      </g>
    </g>
  </g>
</svg>
