<svg xmlns="http://www.w3.org/2000/svg" xmlns:xlink="http://www.w3.org/1999/xlink" width="108" height="108" viewBox="0 0 108 108">
  <defs>
    <filter id="Fondo" x="0" y="0" width="108" height="108" filterUnits="userSpaceOnUse">
      <feOffset dy="3" input="SourceAlpha"/>
      <feGaussianBlur stdDeviation="3" result="blur"/>
      <feFlood flood-opacity="0.161"/>
      <feComposite operator="in" in2="blur"/>
      <feComposite in="SourceGraphic"/>
    </filter>
  </defs>
  <g id="Icono" transform="translate(9 -689)">
    <g transform="matrix(1, 0, 0, 1, -9, 689)" filter="url(#Fondo)">
      <g id="Fondo-2" data-name="Fondo" transform="translate(9 6)" fill="#fee1ca">
        <path d="M 45 88.5 C 39.12687683105469 88.5 33.43022537231445 87.35007476806641 28.06830024719238 85.08217620849609 C 22.88852500915527 82.89131164550781 18.23629951477051 79.75458526611328 14.2408504486084 75.75914764404297 C 10.24541282653809 71.76370239257812 7.108687400817871 67.11147308349609 4.917825222015381 61.93170166015625 C 2.649924993515015 56.56977462768555 1.5 50.87312316894531 1.5 45 C 1.5 39.12687683105469 2.649924993515015 33.43022537231445 4.917825222015381 28.06830024719238 C 7.108687400817871 22.88852500915527 10.24541282653809 18.23629951477051 14.2408504486084 14.2408504486084 C 18.23629951477051 10.24541282653809 22.88852500915527 7.108687400817871 28.06830024719238 4.917825222015381 C 33.43022537231445 2.649924993515015 39.12687683105469 1.5 45 1.5 C 50.87312316894531 1.5 56.56977462768555 2.649924993515015 61.93170166015625 4.917825222015381 C 67.11147308349609 7.108687400817871 71.76370239257812 10.24541282653809 75.75914764404297 14.2408504486084 C 79.75458526611328 18.23629951477051 82.89131164550781 22.88852500915527 85.08217620849609 28.06830024719238 C 87.35007476806641 33.43022537231445 88.5 39.12687683105469 88.5 45 C 88.5 50.87312316894531 87.35007476806641 56.56977462768555 85.08217620849609 61.93170166015625 C 82.89131164550781 67.11147308349609 79.75458526611328 71.76370239257812 75.75914764404297 75.75914764404297 C 71.76370239257812 79.75458526611328 67.11147308349609 82.89131164550781 61.93170166015625 85.08217620849609 C 56.56977462768555 87.35007476806641 50.87312316894531 88.5 45 88.5 Z" stroke="none"/>
        <path d="M 45 3 C 39.32871246337891 3 33.82865524291992 4.110054016113281 28.65262985229492 6.299339294433594 C 23.65165710449219 8.414573669433594 19.15968322753906 11.44334411621094 15.301513671875 15.301513671875 C 11.44334411621094 19.15968322753906 8.414573669433594 23.65165710449219 6.299339294433594 28.65262985229492 C 4.110054016113281 33.82865524291992 3 39.32871246337891 3 45 C 3 50.67128753662109 4.110054016113281 56.17134475708008 6.299339294433594 61.34737396240234 C 8.414573669433594 66.34834289550781 11.44334411621094 70.84031677246094 15.301513671875 74.698486328125 C 19.15968322753906 78.55665588378906 23.65165710449219 81.58542633056641 28.65262985229492 83.70066070556641 C 33.82865524291992 85.88994598388672 39.32871246337891 87 45 87 C 50.67128753662109 87 56.17134475708008 85.88994598388672 61.34737396240234 83.70066070556641 C 66.34834289550781 81.58542633056641 70.84031677246094 78.55665588378906 74.698486328125 74.698486328125 C 78.55665588378906 70.84031677246094 81.58542633056641 66.34834289550781 83.70066070556641 61.34737396240234 C 85.88994598388672 56.17134475708008 87 50.67128753662109 87 45 C 87 39.32871246337891 85.88994598388672 33.82865524291992 83.70066070556641 28.65262985229492 C 81.58542633056641 23.65165710449219 78.55665588378906 19.15968322753906 74.698486328125 15.301513671875 C 70.84031677246094 11.44334411621094 66.34834289550781 8.414573669433594 61.34737396240234 6.299339294433594 C 56.17134475708008 4.110054016113281 50.67128753662109 3 45 3 M 45 0 C 69.85281372070312 0 90 20.14718627929688 90 45 C 90 69.85281372070312 69.85281372070312 90 45 90 C 20.14718627929688 90 0 69.85281372070312 0 45 C 0 20.14718627929688 20.14718627929688 0 45 0 Z" stroke="none" fill="#8a552c"/>
      </g>
    </g>
    <g id="_050-report" data-name="050-report" transform="translate(-21.463 712.729)">
      <g id="Grupo_1148961" data-name="Grupo 1148961" transform="translate(45.924 0.817)">
        <path id="Trazado_986497" data-name="Trazado 986497" d="M64.229,13.308V55.82H52.613V13.308a5.808,5.808,0,1,1,11.616,0Z" transform="translate(-52.612 -7.5)" fill="#f4fbff"/>
        <path id="Trazado_986498" data-name="Trazado 986498" d="M58.421,7.5V55.82H52.613V13.308A5.809,5.809,0,0,1,58.421,7.5Z" transform="translate(-52.612 -7.5)" fill="#e4f6ff"/>
        <path id="Trazado_986499" data-name="Trazado 986499" d="M91.1,403.648v2.834a2.974,2.974,0,0,1-2.974,2.974H58.414a5.808,5.808,0,1,1,5.808-5.808Z" transform="translate(-52.605 -355.329)" fill="#d3effb"/>
        <path id="Trazado_986500" data-name="Trazado 986500" d="M159.276,60.831h29.711a2.974,2.974,0,0,1,2.974,2.974v36.563a2.974,2.974,0,0,1-2.974,2.974H159.276Z" transform="translate(-147.659 -55.023)" fill="#f4fbff"/>
        <g id="Grupo_1148960" data-name="Grupo 1148960" transform="translate(16.131 9.554)">
          <path id="Trazado_986501" data-name="Trazado 986501" d="M322.1,100.679a6.386,6.386,0,0,1,4.58,4.58h5.452A11.74,11.74,0,0,0,322.1,95.226Z" transform="translate(-308.876 -95.226)" fill="#b3e59f"/>
          <path id="Trazado_986502" data-name="Trazado 986502" d="M206.168,105.259a6.386,6.386,0,0,1,4.58-4.58V95.226a11.739,11.739,0,0,0-10.032,10.033Z" transform="translate(-200.716 -95.226)" fill="#9dc6fb"/>
          <path id="Trazado_986503" data-name="Trazado 986503" d="M210.748,221.19a6.386,6.386,0,0,1-4.58-4.58h-5.452a11.739,11.739,0,0,0,10.032,10.033V221.19Z" transform="translate(-200.716 -203.39)" fill="#ffe07d"/>
          <path id="Trazado_986504" data-name="Trazado 986504" d="M326.675,216.61a6.386,6.386,0,0,1-4.58,4.58v5.453a11.74,11.74,0,0,0,10.032-10.033Z" transform="translate(-308.876 -203.39)" fill="#e27f83"/>
        </g>
      </g>
      <g id="Grupo_1148962" data-name="Grupo 1148962" transform="translate(45.108)">
        <path id="Trazado_986505" data-name="Trazado 986505" d="M315.214,94.792a5.553,5.553,0,0,1,3.992,3.992A.817.817,0,0,0,320,99.4h5.452a.817.817,0,0,0,.809-.927,12.421,12.421,0,0,0-1.817-4.988.817.817,0,0,0-1.381.872,10.789,10.789,0,0,1,1.413,3.41H320.6a7.188,7.188,0,0,0-4.366-4.367V89.525a10.859,10.859,0,0,1,4.868,2.514.817.817,0,0,0,1.09-1.217,12.482,12.482,0,0,0-6.664-3.082.817.817,0,0,0-.927.809V94A.816.816,0,0,0,315.214,94.792Z" transform="translate(-285.251 -78.177)"/>
        <path id="Trazado_986506" data-name="Trazado 986506" d="M194.032,99.393h5.452a.817.817,0,0,0,.791-.613,5.552,5.552,0,0,1,3.992-3.992.817.817,0,0,0,.613-.791V88.543a.817.817,0,0,0-.927-.809,12.567,12.567,0,0,0-10.732,10.732.817.817,0,0,0,.809.927Zm9.215-9.873v3.873a7.187,7.187,0,0,0-4.367,4.366h-3.872A10.941,10.941,0,0,1,203.248,89.519Z" transform="translate(-177.085 -78.172)"/>
        <path id="Trazado_986507" data-name="Trazado 986507" d="M203.954,220.77a.817.817,0,0,0,.927-.809v-5.453a.817.817,0,0,0-.613-.791,5.552,5.552,0,0,1-3.993-3.992.817.817,0,0,0-.791-.613h-5.452a.817.817,0,0,0-.809.927A12.567,12.567,0,0,0,203.954,220.77Zm-5.074-10.025a7.186,7.186,0,0,0,4.367,4.366v3.873a10.94,10.94,0,0,1-8.239-8.239Z" transform="translate(-177.085 -186.337)"/>
        <path id="Trazado_986508" data-name="Trazado 986508" d="M325.444,209.11h-5.452a.817.817,0,0,0-.791.613,5.552,5.552,0,0,1-3.993,3.992.817.817,0,0,0-.613.791v5.453a.817.817,0,0,0,.927.809,12.568,12.568,0,0,0,10.732-10.732.817.817,0,0,0-.809-.927Zm-9.216,9.873V215.11a7.187,7.187,0,0,0,4.367-4.366h3.872A10.941,10.941,0,0,1,316.229,218.983Z" transform="translate(-285.245 -186.336)"/>
        <path id="Trazado_986509" data-name="Trazado 986509" d="M280.119,176.23a.817.817,0,0,0-.111,1.15l1.9,2.31a.817.817,0,0,0,.63.3l.052,0a.817.817,0,0,0,.639-.38l2.848-4.53a.817.817,0,1,0-1.383-.87l-2.246,3.572-1.184-1.437A.817.817,0,0,0,280.119,176.23Z" transform="translate(-254.259 -154.892)"/>
        <path id="Trazado_986510" data-name="Trazado 986510" d="M212.343,335.136H187.716a.817.817,0,1,0,0,1.634h24.627a.817.817,0,1,0,0-1.634Z" transform="translate(-171.457 -298.637)"/>
        <path id="Trazado_986511" data-name="Trazado 986511" d="M212.343,369.042H187.716a.817.817,0,1,0,0,1.634h24.627a.817.817,0,1,0,0-1.634Z" transform="translate(-171.457 -328.85)"/>
        <path id="Trazado_986512" data-name="Trazado 986512" d="M206,402.949H187.717a.817.817,0,1,0,0,1.634H206a.817.817,0,1,0,0-1.634Z" transform="translate(-171.458 -359.064)"/>
        <path id="Trazado_986513" data-name="Trazado 986513" d="M87.253,5.808H58.307a6.625,6.625,0,0,0-13.2.817V39.632a.817.817,0,1,0,1.634,0V6.625a4.992,4.992,0,0,1,9.984,0V44.779q-.189-.215-.4-.416a6.611,6.611,0,0,0-9.581.425V42.9a.817.817,0,1,0-1.634,0s0,6.147,0,6.229a6.625,6.625,0,0,0,6.625,6.633H81.445a3.8,3.8,0,0,0,3.791-3.791V49.953h2.017a3.8,3.8,0,0,0,3.791-3.791V9.6a3.8,3.8,0,0,0-3.791-3.791ZM83.6,51.971a2.16,2.16,0,0,1-2.157,2.157H51.733a4.992,4.992,0,0,1-4.988-5.187,5.007,5.007,0,0,1,4.792-4.792q.1,0,.2,0a4.991,4.991,0,0,1,4.99,4.991.817.817,0,0,0,.817.817H83.6Zm5.808-5.808a2.16,2.16,0,0,1-2.157,2.157H58.359V7.442H87.253A2.16,2.16,0,0,1,89.41,9.6Z" transform="translate(-45.108)"/>
      </g>
    </g>
  </g>
</svg>
