<svg xmlns="http://www.w3.org/2000/svg" xmlns:xlink="http://www.w3.org/1999/xlink" width="113" height="113" viewBox="0 0 113 113">
  <defs>
    <filter id="Trazado_982547" x="0" y="0" width="113" height="113" filterUnits="userSpaceOnUse">
      <feOffset dy="3" input="SourceAlpha"/>
      <feGaussianBlur stdDeviation="3" result="blur"/>
      <feFlood flood-opacity="0.161"/>
      <feComposite operator="in" in2="blur"/>
      <feComposite in="SourceGraphic"/>
    </filter>
  </defs>
  <g id="Grupo_1148933" data-name="Grupo 1148933" transform="translate(-1164 -3704.178)">
    <g id="Grupo_1147088" data-name="Grupo 1147088" transform="translate(1173 3710.178)">
      <g transform="matrix(1, 0, 0, 1, -9, -6)" filter="url(#Trazado_982547)">
        <g id="Trazado_982547-2" data-name="Trazado 982547" transform="translate(9 6)" fill="#fdeffe">
          <path d="M 47.5 93.5 C 41.28937149047852 93.5 35.26533508300781 92.28397369384766 29.59518623352051 89.88570404052734 C 24.11771965026855 87.56893157958984 19.19813346862793 84.25196075439453 14.97309303283691 80.02691650390625 C 10.74804019927979 75.80186462402344 7.431066513061523 70.88229370117188 5.114293098449707 65.40481567382812 C 2.716026782989502 59.73468017578125 1.5 53.71062850952148 1.5 47.5 C 1.5 41.28937149047852 2.716026782989502 35.26533508300781 5.114293098449707 29.59518623352051 C 7.431066513061523 24.11771965026855 10.74804019927979 19.19813346862793 14.97309303283691 14.97309303283691 C 19.19813346862793 10.74804019927979 24.11771965026855 7.431066513061523 29.59518623352051 5.114293098449707 C 35.26533508300781 2.716026782989502 41.28937149047852 1.5 47.5 1.5 C 53.71062850952148 1.5 59.73468017578125 2.716026782989502 65.40481567382812 5.114293098449707 C 70.88229370117188 7.431066513061523 75.80186462402344 10.74804019927979 80.02691650390625 14.97309303283691 C 84.25196075439453 19.19813346862793 87.56893157958984 24.11771965026855 89.88570404052734 29.59518623352051 C 92.28397369384766 35.26533508300781 93.5 41.28937149047852 93.5 47.5 C 93.5 53.71062850952148 92.28397369384766 59.73468017578125 89.88570404052734 65.40481567382812 C 87.56893157958984 70.88229370117188 84.25196075439453 75.80186462402344 80.02691650390625 80.02691650390625 C 75.80186462402344 84.25196075439453 70.88229370117188 87.56893157958984 65.40481567382812 89.88570404052734 C 59.73468017578125 92.28397369384766 53.71062850952148 93.5 47.5 93.5 Z" stroke="none"/>
          <path d="M 47.5 3 C 41.49121475219727 3 35.66376876831055 4.176155090332031 30.17950439453125 6.495796203613281 C 24.88084411621094 8.736953735351562 20.12152099609375 11.94598388671875 16.03375244140625 16.03375244140625 C 11.94598388671875 20.12152099609375 8.736953735351562 24.88084411621094 6.495796203613281 30.17950439453125 C 4.176155090332031 35.66376876831055 3 41.49121475219727 3 47.5 C 3 53.50878524780273 4.176155090332031 59.33623123168945 6.495796203613281 64.82049560546875 C 8.736953735351562 70.11915588378906 11.94598388671875 74.87847900390625 16.03375244140625 78.96624755859375 C 20.12152099609375 83.05401611328125 24.88084411621094 86.26304626464844 30.17950439453125 88.50419616699219 C 35.66376876831055 90.82384490966797 41.49121475219727 92 47.5 92 C 53.50878524780273 92 59.33623123168945 90.82384490966797 64.82049560546875 88.50419616699219 C 70.11915588378906 86.26304626464844 74.87847900390625 83.05401611328125 78.96624755859375 78.96624755859375 C 83.05401611328125 74.87847900390625 86.26304626464844 70.11915588378906 88.50419616699219 64.82049560546875 C 90.82384490966797 59.33623123168945 92 53.50878524780273 92 47.5 C 92 41.49121475219727 90.82384490966797 35.66376876831055 88.50419616699219 30.17950439453125 C 86.26304626464844 24.88084411621094 83.05401611328125 20.12152099609375 78.96624755859375 16.03375244140625 C 74.87847900390625 11.94598388671875 70.11915588378906 8.736953735351562 64.82049560546875 6.495796203613281 C 59.33623123168945 4.176155090332031 53.50878524780273 3 47.5 3 M 47.5 0 C 73.7335205078125 0 95 21.2664794921875 95 47.5 C 95 73.7335205078125 73.7335205078125 95 47.5 95 C 21.2664794921875 95 0 73.7335205078125 0 47.5 C 0 21.2664794921875 21.2664794921875 0 47.5 0 Z" stroke="none" fill="#ee70f7"/>
        </g>
      </g>
      <g id="_031-goal" data-name="031-goal" transform="translate(22.401 10)">
        <g id="Grupo_1148972" data-name="Grupo 1148972" transform="translate(0.919 11.894)">
          <path id="Trazado_986708" data-name="Trazado 986708" d="M56.715,51.2H12.8a3.978,3.978,0,0,0-3.978,3.978v3.547L12.342,63.9h45.7l2.648-5.176V55.181A3.978,3.978,0,0,0,56.715,51.2Z" transform="translate(-8.824 -47.929)" fill="#ee878a"/>
          <path id="Trazado_986709" data-name="Trazado 986709" d="M13.518,51.2H12.8a3.978,3.978,0,0,0-3.978,3.978v3.547L12.342,63.9h1.176Z" transform="translate(-8.824 -47.929)" fill="#ec6e73"/>
          <g id="XMLID_227_" transform="translate(0 10.799)">
            <g id="Grupo_1148970" data-name="Grupo 1148970">
              <path id="Trazado_986710" data-name="Trazado 986710" d="M60.693,123.443V155.12a3.978,3.978,0,0,1-3.978,3.978H12.8a3.978,3.978,0,0,1-3.978-3.978V123.443Z" transform="translate(-8.824 -123.443)" fill="#f9f7f7"/>
            </g>
          </g>
          <g id="Grupo_1148971" data-name="Grupo 1148971" transform="translate(0 0)">
            <path id="Trazado_986711" data-name="Trazado 986711" d="M64.273,56.04a3.077,3.077,0,0,0,3.073-3.073V51.2H61.2v1.764A3.077,3.077,0,0,0,64.273,56.04Z" transform="translate(-55.744 -47.929)" fill="#ec6e73"/>
            <path id="Trazado_986712" data-name="Trazado 986712" d="M77.711,26.323A1.511,1.511,0,0,1,76.2,24.812V21.285a1.511,1.511,0,0,1,3.021,0v3.527A1.511,1.511,0,0,1,77.711,26.323Z" transform="translate(-69.182 -19.774)" fill="#f2eae7"/>
            <path id="Trazado_986713" data-name="Trazado 986713" d="M131.071,56.04a3.077,3.077,0,0,0,3.073-3.073V51.2H128v1.764A3.077,3.077,0,0,0,131.071,56.04Z" transform="translate(-115.584 -47.929)" fill="#ec6e73"/>
            <path id="Trazado_986714" data-name="Trazado 986714" d="M144.51,26.323A1.511,1.511,0,0,1,143,24.812V21.285a1.511,1.511,0,0,1,3.021,0v3.527A1.511,1.511,0,0,1,144.51,26.323Z" transform="translate(-129.023 -19.774)" fill="#f2eae7"/>
            <path id="Trazado_986715" data-name="Trazado 986715" d="M197.869,56.04a3.077,3.077,0,0,0,3.073-3.073V51.2H194.8v1.764A3.077,3.077,0,0,0,197.869,56.04Z" transform="translate(-175.424 -47.929)" fill="#ec6e73"/>
            <path id="Trazado_986716" data-name="Trazado 986716" d="M211.308,26.323a1.511,1.511,0,0,1-1.511-1.511V21.285a1.511,1.511,0,1,1,3.021,0v3.527A1.511,1.511,0,0,1,211.308,26.323Z" transform="translate(-188.863 -19.774)" fill="#f2eae7"/>
            <path id="Trazado_986717" data-name="Trazado 986717" d="M264.668,56.04a3.077,3.077,0,0,0,3.073-3.073V51.2H261.6v1.764A3.077,3.077,0,0,0,264.668,56.04Z" transform="translate(-235.265 -47.929)" fill="#ec6e73"/>
            <path id="Trazado_986718" data-name="Trazado 986718" d="M278.106,26.323a1.511,1.511,0,0,1-1.511-1.511V21.285a1.511,1.511,0,1,1,3.021,0v3.527A1.511,1.511,0,0,1,278.106,26.323Z" transform="translate(-248.703 -19.774)" fill="#f2eae7"/>
            <path id="Trazado_986719" data-name="Trazado 986719" d="M331.467,56.04a3.077,3.077,0,0,0,3.073-3.073V51.2h-6.146v1.764A3.077,3.077,0,0,0,331.467,56.04Z" transform="translate(-295.106 -47.929)" fill="#ec6e73"/>
            <path id="Trazado_986720" data-name="Trazado 986720" d="M344.9,26.323a1.511,1.511,0,0,1-1.511-1.511V21.285a1.511,1.511,0,0,1,3.021,0v3.527A1.511,1.511,0,0,1,344.9,26.323Z" transform="translate(-308.544 -19.774)" fill="#f2eae7"/>
            <path id="Trazado_986721" data-name="Trazado 986721" d="M398.265,56.04a3.077,3.077,0,0,0,3.073-3.073V51.2h-6.146v1.764A3.077,3.077,0,0,0,398.265,56.04Z" transform="translate(-354.946 -47.929)" fill="#ec6e73"/>
            <path id="Trazado_986722" data-name="Trazado 986722" d="M411.7,26.323a1.511,1.511,0,0,1-1.511-1.511V21.285a1.511,1.511,0,1,1,3.021,0v3.527A1.511,1.511,0,0,1,411.7,26.323Z" transform="translate(-368.384 -19.774)" fill="#f2eae7"/>
            <path id="Trazado_986723" data-name="Trazado 986723" d="M50.95,152.767a17.467,17.467,0,1,0-32.767-.011.726.726,0,0,1-.677.984H17.5a3.978,3.978,0,0,1-3.978-3.978V123.443H8.824V155.12A3.978,3.978,0,0,0,12.8,159.1H56.715a3.978,3.978,0,0,0,3.978-3.978v-1.38H51.631A.723.723,0,0,1,50.95,152.767Z" transform="translate(-8.824 -112.644)" fill="#f2eae7"/>
            <path id="Trazado_986724" data-name="Trazado 986724" d="M99.207,161.2H60.219A1.214,1.214,0,0,1,59,159.988v-2.781a1.214,1.214,0,0,1,1.214-1.214H99.206a1.214,1.214,0,0,1,1.214,1.214v2.781A1.214,1.214,0,0,1,99.207,161.2Z" transform="translate(-53.778 -141.804)" fill="#a9e4f9"/>
            <path id="Trazado_986725" data-name="Trazado 986725" d="M183.927,181.9a17.417,17.417,0,0,0-18.949,0Z" transform="translate(-148.712 -162.502)" fill="#5ccef6"/>
            <circle id="Elipse_11587" data-name="Elipse 11587" cx="15.384" cy="15.384" r="15.384" transform="translate(10.361 18.679)" fill="#9de5d1"/>
            <path id="Trazado_986726" data-name="Trazado 986726" d="M111.937,214.669a16.056,16.056,0,0,1,10.408-15.029,15.384,15.384,0,0,0,1.327,30.711q.4,0,.8-.021A16.053,16.053,0,0,1,111.937,214.669Z" transform="translate(-97.928 -180.904)" fill="#82dec5"/>
            <circle id="Elipse_11588" data-name="Elipse 11588" cx="10.878" cy="10.878" r="10.878" transform="translate(14.866 23.185)" fill="#fbe88c"/>
            <circle id="Elipse_11589" data-name="Elipse 11589" cx="5.233" cy="5.233" r="5.233" transform="translate(20.512 28.83)" fill="#a9e4f9"/>
          </g>
          <path id="Trazado_986727" data-name="Trazado 986727" d="M433.9,331.365h-3.382a.385.385,0,0,1-.3-.142l-1.166-1.432a.721.721,0,0,1,0-.91l1.166-1.432a.385.385,0,0,1,.3-.142h3.363a.268.268,0,0,1,.24.387l-.809,1.643.818,1.66a.256.256,0,0,1-.23.369Z" transform="translate(-385.136 -295.273)" fill="#f09ea2"/>
        </g>
        <g id="Grupo_1148973" data-name="Grupo 1148973" transform="translate(0 10.978)">
          <path id="Trazado_986728" data-name="Trazado 986728" d="M48.673,14.252H46.392V13.27a2.292,2.292,0,1,0-4.584,0v.982H39.434V13.27a2.292,2.292,0,0,0-4.584,0v.982H32.476V13.27a2.292,2.292,0,1,0-4.584,0v.982H25.518V13.27a2.292,2.292,0,0,0-4.584,0v.982H18.56V13.27a2.292,2.292,0,0,0-4.584,0v.982H11.6V13.27a2.292,2.292,0,0,0-4.584,0v.982H4.759A4.764,4.764,0,0,0,0,19.011V54.235a4.764,4.764,0,0,0,4.759,4.759h8.047a.781.781,0,1,0,0-1.562H4.759a3.2,3.2,0,0,1-3.2-3.2v-30.9H51.869v30.9a3.2,3.2,0,0,1-3.2,3.2H40.521a.781.781,0,1,0,0,1.562h8.152a4.764,4.764,0,0,0,4.759-4.759V19.011a4.764,4.764,0,0,0-4.759-4.759Zm-5.3-.982a.729.729,0,1,1,1.459,0V16.8a.729.729,0,1,1-1.459,0Zm-6.958,0a.729.729,0,1,1,1.459,0V16.8a.729.729,0,1,1-1.459,0Zm-6.958,0a.729.729,0,1,1,1.459,0V16.8a.729.729,0,1,1-1.459,0Zm-6.958,0a.729.729,0,1,1,1.459,0V16.8a.729.729,0,1,1-1.459,0Zm-6.958,0a.729.729,0,1,1,1.459,0V16.8a.729.729,0,1,1-1.459,0Zm-6.958,0a.729.729,0,1,1,1.459,0V16.8a.729.729,0,1,1-1.459,0ZM1.563,21.776V19.011a3.2,3.2,0,0,1,3.2-3.2H7.018V16.8a2.292,2.292,0,1,0,4.584,0v-.982h2.374V16.8a2.292,2.292,0,1,0,4.584,0v-.982h2.374V16.8a2.292,2.292,0,1,0,4.584,0v-.982h2.374V16.8a2.292,2.292,0,1,0,4.584,0v-.982H34.85V16.8a2.292,2.292,0,1,0,4.584,0v-.982h2.374V16.8a2.292,2.292,0,1,0,4.584,0v-.982h2.281a3.2,3.2,0,0,1,3.2,3.2v2.765Z" transform="translate(0 -10.978)"/>
          <path id="Trazado_986729" data-name="Trazado 986729" d="M206.725,152.408h-8.444a.781.781,0,0,0,0,1.562h8.444a2,2,0,0,0,1.995-1.995v-2.781a2,2,0,0,0-1.995-1.995H179.96a.781.781,0,0,0,0,1.562h26.764a.433.433,0,0,1,.432.432v2.781A.433.433,0,0,1,206.725,152.408Z" transform="translate(-160.515 -133.01)"/>
          <path id="Trazado_986730" data-name="Trazado 986730" d="M52.174,148.76h8.89a.781.781,0,1,0,0-1.562h-8.89a2,2,0,0,0-1.995,1.995v2.781a2,2,0,0,0,1.995,1.995h8.34a.781.781,0,0,0,0-1.562h-8.34a.433.433,0,0,1-.432-.432v-2.781A.433.433,0,0,1,52.174,148.76Z" transform="translate(-44.952 -133.009)"/>
          <path id="Trazado_986731" data-name="Trazado 986731" d="M134.384,208.547l1.3,1.6a1.162,1.162,0,0,0,.9.43h3.794a.781.781,0,0,0,.7-1.126l-.83-1.684.83-1.684a.781.781,0,0,0-.7-1.126h-3.794a1.162,1.162,0,0,0-.9.43l-1.3,1.6H133.1a16.165,16.165,0,0,0-32.311.781,16.02,16.02,0,0,0,3.288,9.772.781.781,0,1,0,1.244-.945,14.471,14.471,0,0,1-2.97-8.827,14.6,14.6,0,0,1,29.184-.781h-2.949a11.614,11.614,0,0,0-3.1-7.161.781.781,0,1,0-1.144,1.065,10.055,10.055,0,0,1,2.673,6.1h-4.1a6.014,6.014,0,1,0,0,1.562h4.105a10.094,10.094,0,1,1-5.1-9.575.781.781,0,1,0,.769-1.36,11.66,11.66,0,1,0,5.9,10.935h2.949A14.6,14.6,0,0,1,107.509,218.9a.781.781,0,0,0-1.011,1.191,16.164,16.164,0,0,0,26.6-11.547h1.286Zm2.395-2.029h2.35l-.445.9a.781.781,0,0,0,0,.69l.445.9h-2.35l-1.016-1.248Zm-19.826,5.7a4.451,4.451,0,1,1,4.381-5.233h-4.381a.781.781,0,0,0,0,1.562h4.381A4.458,4.458,0,0,1,116.953,212.217Z" transform="translate(-90.29 -172.787)"/>
        </g>
      </g>
    </g>
  </g>
</svg>
