<svg xmlns="http://www.w3.org/2000/svg" xmlns:xlink="http://www.w3.org/1999/xlink" width="113" height="113" viewBox="0 0 113 113">
  <defs>
    <filter id="Trazado_982547" x="0" y="0" width="113" height="113" filterUnits="userSpaceOnUse">
      <feOffset dy="3" input="SourceAlpha"/>
      <feGaussianBlur stdDeviation="3" result="blur"/>
      <feFlood flood-opacity="0.161"/>
      <feComposite operator="in" in2="blur"/>
      <feComposite in="SourceGraphic"/>
    </filter>
  </defs>
  <g id="Grupo_1148578" data-name="Grupo 1148578" transform="translate(-324 -3704.178)">
    <g id="Grupo_1147086" data-name="Grupo 1147086" transform="translate(333 3710.178)">
      <g transform="matrix(1, 0, 0, 1, -9, -6)" filter="url(#Trazado_982547)">
        <g id="Trazado_982547-2" data-name="Trazado 982547" transform="translate(9 6)" fill="#fdeffe">
          <path d="M 47.5 93.5 C 41.28937149047852 93.5 35.26533508300781 92.28397369384766 29.59518623352051 89.88570404052734 C 24.11771965026855 87.56893157958984 19.19813346862793 84.25196075439453 14.97309303283691 80.02691650390625 C 10.74804019927979 75.80186462402344 7.431066513061523 70.88229370117188 5.114293098449707 65.40481567382812 C 2.716026782989502 59.73468017578125 1.5 53.71062850952148 1.5 47.5 C 1.5 41.28937149047852 2.716026782989502 35.26533508300781 5.114293098449707 29.59518623352051 C 7.431066513061523 24.11771965026855 10.74804019927979 19.19813346862793 14.97309303283691 14.97309303283691 C 19.19813346862793 10.74804019927979 24.11771965026855 7.431066513061523 29.59518623352051 5.114293098449707 C 35.26533508300781 2.716026782989502 41.28937149047852 1.5 47.5 1.5 C 53.71062850952148 1.5 59.73468017578125 2.716026782989502 65.40481567382812 5.114293098449707 C 70.88229370117188 7.431066513061523 75.80186462402344 10.74804019927979 80.02691650390625 14.97309303283691 C 84.25196075439453 19.19813346862793 87.56893157958984 24.11771965026855 89.88570404052734 29.59518623352051 C 92.28397369384766 35.26533508300781 93.5 41.28937149047852 93.5 47.5 C 93.5 53.71062850952148 92.28397369384766 59.73468017578125 89.88570404052734 65.40481567382812 C 87.56893157958984 70.88229370117188 84.25196075439453 75.80186462402344 80.02691650390625 80.02691650390625 C 75.80186462402344 84.25196075439453 70.88229370117188 87.56893157958984 65.40481567382812 89.88570404052734 C 59.73468017578125 92.28397369384766 53.71062850952148 93.5 47.5 93.5 Z" stroke="none"/>
          <path d="M 47.5 3 C 41.49121475219727 3 35.66376876831055 4.176155090332031 30.17950439453125 6.495796203613281 C 24.88084411621094 8.736953735351562 20.12152099609375 11.94598388671875 16.03375244140625 16.03375244140625 C 11.94598388671875 20.12152099609375 8.736953735351562 24.88084411621094 6.495796203613281 30.17950439453125 C 4.176155090332031 35.66376876831055 3 41.49121475219727 3 47.5 C 3 53.50878524780273 4.176155090332031 59.33623123168945 6.495796203613281 64.82049560546875 C 8.736953735351562 70.11915588378906 11.94598388671875 74.87847900390625 16.03375244140625 78.96624755859375 C 20.12152099609375 83.05401611328125 24.88084411621094 86.26304626464844 30.17950439453125 88.50419616699219 C 35.66376876831055 90.82384490966797 41.49121475219727 92 47.5 92 C 53.50878524780273 92 59.33623123168945 90.82384490966797 64.82049560546875 88.50419616699219 C 70.11915588378906 86.26304626464844 74.87847900390625 83.05401611328125 78.96624755859375 78.96624755859375 C 83.05401611328125 74.87847900390625 86.26304626464844 70.11915588378906 88.50419616699219 64.82049560546875 C 90.82384490966797 59.33623123168945 92 53.50878524780273 92 47.5 C 92 41.49121475219727 90.82384490966797 35.66376876831055 88.50419616699219 30.17950439453125 C 86.26304626464844 24.88084411621094 83.05401611328125 20.12152099609375 78.96624755859375 16.03375244140625 C 74.87847900390625 11.94598388671875 70.11915588378906 8.736953735351562 64.82049560546875 6.495796203613281 C 59.33623123168945 4.176155090332031 53.50878524780273 3 47.5 3 M 47.5 0 C 73.7335205078125 0 95 21.2664794921875 95 47.5 C 95 73.7335205078125 73.7335205078125 95 47.5 95 C 21.2664794921875 95 0 73.7335205078125 0 47.5 C 0 21.2664794921875 21.2664794921875 0 47.5 0 Z" stroke="none" fill="#ee70f7"/>
        </g>
      </g>
      <g id="Security_Cloud" data-name="Security Cloud" transform="translate(15 16.565)">
        <path id="Trazado_986442" data-name="Trazado 986442" d="M49,25V37a25.093,25.093,0,0,1-2.06,10A25.436,25.436,0,0,1,32,61,25.485,25.485,0,0,1,15,37V25l.3.1a16,16,0,0,0,15.59-3.13L32,21l1.11.97A15.976,15.976,0,0,0,48.7,25.1L49,25Z" fill="#fe9d52"/>
        <rect id="Rectángulo_408303" data-name="Rectángulo 408303" width="16" height="14" transform="translate(24 37)" fill="#9cdd05"/>
        <path id="Trazado_986443" data-name="Trazado 986443" d="M38,35a6,6,0,0,0-12,0v2H38Z" fill="#ff7956"/>
        <circle id="Elipse_11569" data-name="Elipse 11569" cx="2" cy="2" r="2" transform="translate(30 40)" fill="#c6c5ca"/>
        <path id="Trazado_986444" data-name="Trazado 986444" d="M50,15a11.052,11.052,0,0,0-3.01.42c.01-.14.01-.28.01-.42A12,12,0,0,0,24.52,9.15,5.887,5.887,0,0,0,21,8a6,6,0,0,0-6,6,5.293,5.293,0,0,0,.1,1.06A10,10,0,0,0,14,15a11,11,0,0,0,0,22h1V25l.3.1a16,16,0,0,0,15.59-3.13L32,21l1.11.97A15.976,15.976,0,0,0,48.7,25.1L49,25V37h1c.34,0,.67-.02,1-.05A11,11,0,0,0,50,15Z" fill="#bddbff"/>
        <path id="Trazado_986445" data-name="Trazado 986445" d="M40,36H39V35a7,7,0,0,0-14,0v1H24a1,1,0,0,0-1,1V51a1,1,0,0,0,1,1H40a1,1,0,0,0,1-1V37A1,1,0,0,0,40,36ZM27,35a5,5,0,0,1,10,0v1H27ZM39,50H25V38H39Z" fill="#231f20"/>
        <path id="Trazado_986446" data-name="Trazado 986446" d="M32,39a2.993,2.993,0,0,0-1,5.816V48a1,1,0,0,0,2,0V44.816A2.993,2.993,0,0,0,32,39Zm0,4a1,1,0,1,1,1-1A1,1,0,0,1,32,43Z" fill="#231f20"/>
        <path id="Trazado_986447" data-name="Trazado 986447" d="M50,14a11.97,11.97,0,0,0-2.026.173,13,13,0,0,0-23.782-6.4A6.9,6.9,0,0,0,21,7a7.009,7.009,0,0,0-7,7,12,12,0,0,0,0,24h.025a26.108,26.108,0,0,0,2.095,9.352A26.552,26.552,0,0,0,31.667,61.944a.993.993,0,0,0,.666,0A26.525,26.525,0,0,0,47.857,47.4,25.907,25.907,0,0,0,49.975,38H50c.371,0,.731-.021,1.089-.054A12,12,0,0,0,50,14ZM46.021,46.607A24.527,24.527,0,0,1,32,59.936a24.554,24.554,0,0,1-14.041-13.37A24.147,24.147,0,0,1,16,37V26.354a17.064,17.064,0,0,0,15.548-3.631l.452-.4.451.394A17.037,17.037,0,0,0,48,26.354V37a23.992,23.992,0,0,1-1.979,9.607Zm4.888-10.653c-.3.027-.6.046-.908.046V25a1,1,0,0,0-.415-.811,1.014,1.014,0,0,0-.254-.129c-.025-.009-.049-.014-.074-.021a1.058,1.058,0,0,0-.209-.033c-.016,0-.031-.007-.047-.007s-.02,0-.03,0a1,1,0,0,0-.286.046l-.3.1A15.02,15.02,0,0,1,33.77,21.216l-1.11-.97a1,1,0,0,0-1.316,0l-1.11.97A15.04,15.04,0,0,1,15.618,24.15l-.3-.1A1,1,0,0,0,14,25V36a10,10,0,0,1,0-20,8.968,8.968,0,0,1,.989.054,1.008,1.008,0,0,0,.849-.319,1,1,0,0,0,.241-.875A4.3,4.3,0,0,1,16,14a5.006,5.006,0,0,1,5-5,4.889,4.889,0,0,1,2.926.955A1,1,0,0,0,25.4,9.64,11,11,0,0,1,46,15c0,.116,0,.233-.008.351a1,1,0,0,0,1.27,1.032A10,10,0,0,1,60,26a9.933,9.933,0,0,1-9.092,9.954Z" fill="#231f20"/>
      </g>
    </g>
  </g>
</svg>
