<svg xmlns="http://www.w3.org/2000/svg" xmlns:xlink="http://www.w3.org/1999/xlink" width="108" height="108" viewBox="0 0 108 108">
  <defs>
    <filter id="Fondo" x="0" y="0" width="108" height="108" filterUnits="userSpaceOnUse">
      <feOffset dy="3" input="SourceAlpha"/>
      <feGaussianBlur stdDeviation="3" result="blur"/>
      <feFlood flood-opacity="0.161"/>
      <feComposite operator="in" in2="blur"/>
      <feComposite in="SourceGraphic"/>
    </filter>
  </defs>
  <g id="Icono" transform="translate(8.5 -689)">
    <g transform="matrix(1, 0, 0, 1, -8.5, 689)" filter="url(#Fondo)">
      <g id="Fondo-2" data-name="Fondo" transform="translate(9 6)" fill="#fee1ca">
        <path d="M 45 88.5 C 39.12687683105469 88.5 33.43022537231445 87.35007476806641 28.06830024719238 85.08217620849609 C 22.88852500915527 82.89131164550781 18.23629951477051 79.75458526611328 14.2408504486084 75.75914764404297 C 10.24541282653809 71.76370239257812 7.108687400817871 67.11147308349609 4.917825222015381 61.93170166015625 C 2.649924993515015 56.56977462768555 1.5 50.87312316894531 1.5 45 C 1.5 39.12687683105469 2.649924993515015 33.43022537231445 4.917825222015381 28.06830024719238 C 7.108687400817871 22.88852500915527 10.24541282653809 18.23629951477051 14.2408504486084 14.2408504486084 C 18.23629951477051 10.24541282653809 22.88852500915527 7.108687400817871 28.06830024719238 4.917825222015381 C 33.43022537231445 2.649924993515015 39.12687683105469 1.5 45 1.5 C 50.87312316894531 1.5 56.56977462768555 2.649924993515015 61.93170166015625 4.917825222015381 C 67.11147308349609 7.108687400817871 71.76370239257812 10.24541282653809 75.75914764404297 14.2408504486084 C 79.75458526611328 18.23629951477051 82.89131164550781 22.88852500915527 85.08217620849609 28.06830024719238 C 87.35007476806641 33.43022537231445 88.5 39.12687683105469 88.5 45 C 88.5 50.87312316894531 87.35007476806641 56.56977462768555 85.08217620849609 61.93170166015625 C 82.89131164550781 67.11147308349609 79.75458526611328 71.76370239257812 75.75914764404297 75.75914764404297 C 71.76370239257812 79.75458526611328 67.11147308349609 82.89131164550781 61.93170166015625 85.08217620849609 C 56.56977462768555 87.35007476806641 50.87312316894531 88.5 45 88.5 Z" stroke="none"/>
        <path d="M 45 3 C 39.32871246337891 3 33.82865524291992 4.110054016113281 28.65262985229492 6.299339294433594 C 23.65165710449219 8.414573669433594 19.15968322753906 11.44334411621094 15.301513671875 15.301513671875 C 11.44334411621094 19.15968322753906 8.414573669433594 23.65165710449219 6.299339294433594 28.65262985229492 C 4.110054016113281 33.82865524291992 3 39.32871246337891 3 45 C 3 50.67128753662109 4.110054016113281 56.17134475708008 6.299339294433594 61.34737396240234 C 8.414573669433594 66.34834289550781 11.44334411621094 70.84031677246094 15.301513671875 74.698486328125 C 19.15968322753906 78.55665588378906 23.65165710449219 81.58542633056641 28.65262985229492 83.70066070556641 C 33.82865524291992 85.88994598388672 39.32871246337891 87 45 87 C 50.67128753662109 87 56.17134475708008 85.88994598388672 61.34737396240234 83.70066070556641 C 66.34834289550781 81.58542633056641 70.84031677246094 78.55665588378906 74.698486328125 74.698486328125 C 78.55665588378906 70.84031677246094 81.58542633056641 66.34834289550781 83.70066070556641 61.34737396240234 C 85.88994598388672 56.17134475708008 87 50.67128753662109 87 45 C 87 39.32871246337891 85.88994598388672 33.82865524291992 83.70066070556641 28.65262985229492 C 81.58542633056641 23.65165710449219 78.55665588378906 19.15968322753906 74.698486328125 15.301513671875 C 70.84031677246094 11.44334411621094 66.34834289550781 8.414573669433594 61.34737396240234 6.299339294433594 C 56.17134475708008 4.110054016113281 50.67128753662109 3 45 3 M 45 0 C 69.85281372070312 0 90 20.14718627929688 90 45 C 90 69.85281372070312 69.85281372070312 90 45 90 C 20.14718627929688 90 0 69.85281372070312 0 45 C 0 20.14718627929688 20.14718627929688 0 45 0 Z" stroke="none" fill="#8a552c"/>
      </g>
    </g>
    <g id="Layer_2" data-name="Layer 2" transform="translate(20.456 713.786)">
      <g id="_1" data-name="1" transform="translate(0 -0.001)">
        <path id="Trazado_986641" data-name="Trazado 986641" d="M36.09,17.528H12.62L4.8,23.113V.76H36.09Z" transform="translate(0.509 0.082)" fill="#b5daff"/>
        <path id="Trazado_986642" data-name="Trazado 986642" d="M35.764,17.205H12.294L7.87,20.391V4.906A1.106,1.106,0,0,1,8.976,3.8H35.764Z" transform="translate(0.835 0.404)" fill="#8eb6ff"/>
        <path id="Trazado_986643" data-name="Trazado 986643" d="M4.885,24.034a.807.807,0,0,1-.387-.1.841.841,0,0,1-.5-.708V.841A.841.841,0,0,1,4.885,0h31.29a.841.841,0,0,1,.841.841V17.608a.841.841,0,0,1-.841.83H12.948L5.371,23.868a.785.785,0,0,1-.487.166ZM5.725,1.681V21.59l6.492-4.645a.874.874,0,0,1,.487-.155H35.345V1.681Z" transform="translate(0.424 0.001)" fill="#2c3d60"/>
        <path id="Trazado_986644" data-name="Trazado 986644" d="M28.726,7.231H22.09a.841.841,0,1,1,0-1.67h6.636a.841.841,0,1,1,0,1.67Z" transform="translate(2.243 0.59)" fill="#2c3d60"/>
        <path id="Trazado_986645" data-name="Trazado 986645" d="M20.06,7.231H9.94a.841.841,0,1,1,0-1.67H20.06a.841.841,0,1,1,0,1.67Z" transform="translate(0.955 0.59)" fill="#2c3d60"/>
        <path id="Trazado_986646" data-name="Trazado 986646" d="M24.723,11.281h-6.7a.841.841,0,1,1,0-1.681h6.7a.841.841,0,1,1,0,1.681Z" transform="translate(1.822 1.019)" fill="#2c3d60"/>
        <path id="Trazado_986647" data-name="Trazado 986647" d="M15.527,11.281h-5.6a.841.841,0,1,1,0-1.681h5.6a.841.841,0,0,1,0,1.681Z" transform="translate(0.964 1.019)" fill="#2c3d60"/>
        <path id="Trazado_986648" data-name="Trazado 986648" d="M32.05,43.8H8.58L.76,49.383V27.03H32.05Z" transform="translate(0.081 2.867)" fill="#5aa874"/>
        <path id="Trazado_986649" data-name="Trazado 986649" d="M27.57,40.449H8.182a2.312,2.312,0,0,0-1.305.409L.76,45.283V27H28.676V39.332a1.106,1.106,0,0,1-1.106,1.117Z" transform="translate(0.081 2.864)" fill="#77d982"/>
        <path id="Trazado_986650" data-name="Trazado 986650" d="M.841,50.307a.94.94,0,0,1-.387-.088A.841.841,0,0,1,0,49.467V27.081a.841.841,0,0,1,.841-.841H32.13a.841.841,0,0,1,.841.841v16.8a.841.841,0,0,1-.841.841H8.9L1.327,50.153a.874.874,0,0,1-.487.155Zm.841-22.353V47.863l6.492-4.645a.852.852,0,0,1,.487-.155H31.29V27.954Z" transform="translate(0 2.784)" fill="#2c3d60"/>
        <path id="Trazado_986651" data-name="Trazado 986651" d="M25.044,33.511H14.991a.841.841,0,1,1,0-1.681H25.044a.841.841,0,1,1,0,1.681Z" transform="translate(1.5 3.376)" fill="#2c3d60"/>
        <path id="Trazado_986652" data-name="Trazado 986652" d="M12.593,33.511h-6.7a.841.841,0,1,1,0-1.681h6.7a.841.841,0,1,1,0,1.681Z" transform="translate(0.536 3.376)" fill="#2c3d60"/>
        <path id="Trazado_986653" data-name="Trazado 986653" d="M18.19,37.551H5.891a.841.841,0,1,1,0-1.681h12.3a.841.841,0,1,1,0,1.681Z" transform="translate(0.536 3.805)" fill="#2c3d60"/>
        <path id="Trazado_986654" data-name="Trazado 986654" d="M18.95,30.658H42.42l7.82,5.585V13.89H18.95Z" transform="translate(2.009 1.474)" fill="#e78251"/>
        <path id="Trazado_986655" data-name="Trazado 986655" d="M19,27.284H42.813a2.212,2.212,0,0,1,1.305.42L46.529,29.5a.232.232,0,0,0,.354-.188V13.89H19Z" transform="translate(2.015 1.474)" fill="#feb166"/>
        <path id="Trazado_986656" data-name="Trazado 986656" d="M50.315,37.163a.8.8,0,0,1-.487-.155l-7.6-5.431H19.081a.841.841,0,0,1-.841-.841V13.97a.841.841,0,0,1,.841-.83H50.315a.841.841,0,0,1,.841.83V36.334a.841.841,0,0,1-.453.741.8.8,0,0,1-.387.088ZM19.866,29.9H42.5a.785.785,0,0,1,.487.166L49.474,34.7V14.788H19.866Z" transform="translate(1.934 1.394)" fill="#2c3d60"/>
        <path id="Trazado_986657" data-name="Trazado 986657" d="M43.236,20.371H33.171a.841.841,0,0,1,0-1.681H43.236a.841.841,0,0,1,0,1.681Z" transform="translate(3.428 1.983)" fill="#2c3d60"/>
        <path id="Trazado_986658" data-name="Trazado 986658" d="M30.783,20.371h-6.7a.841.841,0,0,1,0-1.681h6.7a.841.841,0,0,1,0,1.681Z" transform="translate(2.464 1.983)" fill="#2c3d60"/>
        <path id="Trazado_986659" data-name="Trazado 986659" d="M42.81,24.411H37.28a.841.841,0,1,1,0-1.67h5.53a.841.841,0,1,1,0,1.67Z" transform="translate(3.854 2.412)" fill="#2c3d60"/>
        <path id="Trazado_986660" data-name="Trazado 986660" d="M35.272,24.411H24.09a.841.841,0,1,1,0-1.67H35.272a.841.841,0,0,1,0,1.67Z" transform="translate(2.455 2.412)" fill="#2c3d60"/>
      </g>
    </g>
  </g>
</svg>
