<svg xmlns="http://www.w3.org/2000/svg" xmlns:xlink="http://www.w3.org/1999/xlink" width="108" height="108" viewBox="0 0 108 108">
  <defs>
    <filter id="Fondo" x="0" y="0" width="108" height="108" filterUnits="userSpaceOnUse">
      <feOffset dy="3" input="SourceAlpha"/>
      <feGaussianBlur stdDeviation="3" result="blur"/>
      <feFlood flood-opacity="0.161"/>
      <feComposite operator="in" in2="blur"/>
      <feComposite in="SourceGraphic"/>
    </filter>
  </defs>
  <g id="Icono" transform="translate(8.5 -689)">
    <g transform="matrix(1, 0, 0, 1, -8.5, 689)" filter="url(#Fondo)">
      <g id="Fondo-2" data-name="Fondo" transform="translate(9 6)" fill="#fee1ca">
        <path d="M 45 88.5 C 39.12687683105469 88.5 33.43022537231445 87.35007476806641 28.06830024719238 85.08217620849609 C 22.88852500915527 82.89131164550781 18.23629951477051 79.75458526611328 14.2408504486084 75.75914764404297 C 10.24541282653809 71.76370239257812 7.108687400817871 67.11147308349609 4.917825222015381 61.93170166015625 C 2.649924993515015 56.56977462768555 1.5 50.87312316894531 1.5 45 C 1.5 39.12687683105469 2.649924993515015 33.43022537231445 4.917825222015381 28.06830024719238 C 7.108687400817871 22.88852500915527 10.24541282653809 18.23629951477051 14.2408504486084 14.2408504486084 C 18.23629951477051 10.24541282653809 22.88852500915527 7.108687400817871 28.06830024719238 4.917825222015381 C 33.43022537231445 2.649924993515015 39.12687683105469 1.5 45 1.5 C 50.87312316894531 1.5 56.56977462768555 2.649924993515015 61.93170166015625 4.917825222015381 C 67.11147308349609 7.108687400817871 71.76370239257812 10.24541282653809 75.75914764404297 14.2408504486084 C 79.75458526611328 18.23629951477051 82.89131164550781 22.88852500915527 85.08217620849609 28.06830024719238 C 87.35007476806641 33.43022537231445 88.5 39.12687683105469 88.5 45 C 88.5 50.87312316894531 87.35007476806641 56.56977462768555 85.08217620849609 61.93170166015625 C 82.89131164550781 67.11147308349609 79.75458526611328 71.76370239257812 75.75914764404297 75.75914764404297 C 71.76370239257812 79.75458526611328 67.11147308349609 82.89131164550781 61.93170166015625 85.08217620849609 C 56.56977462768555 87.35007476806641 50.87312316894531 88.5 45 88.5 Z" stroke="none"/>
        <path d="M 45 3 C 39.32871246337891 3 33.82865524291992 4.110054016113281 28.65262985229492 6.299339294433594 C 23.65165710449219 8.414573669433594 19.15968322753906 11.44334411621094 15.301513671875 15.301513671875 C 11.44334411621094 19.15968322753906 8.414573669433594 23.65165710449219 6.299339294433594 28.65262985229492 C 4.110054016113281 33.82865524291992 3 39.32871246337891 3 45 C 3 50.67128753662109 4.110054016113281 56.17134475708008 6.299339294433594 61.34737396240234 C 8.414573669433594 66.34834289550781 11.44334411621094 70.84031677246094 15.301513671875 74.698486328125 C 19.15968322753906 78.55665588378906 23.65165710449219 81.58542633056641 28.65262985229492 83.70066070556641 C 33.82865524291992 85.88994598388672 39.32871246337891 87 45 87 C 50.67128753662109 87 56.17134475708008 85.88994598388672 61.34737396240234 83.70066070556641 C 66.34834289550781 81.58542633056641 70.84031677246094 78.55665588378906 74.698486328125 74.698486328125 C 78.55665588378906 70.84031677246094 81.58542633056641 66.34834289550781 83.70066070556641 61.34737396240234 C 85.88994598388672 56.17134475708008 87 50.67128753662109 87 45 C 87 39.32871246337891 85.88994598388672 33.82865524291992 83.70066070556641 28.65262985229492 C 81.58542633056641 23.65165710449219 78.55665588378906 19.15968322753906 74.698486328125 15.301513671875 C 70.84031677246094 11.44334411621094 66.34834289550781 8.414573669433594 61.34737396240234 6.299339294433594 C 56.17134475708008 4.110054016113281 50.67128753662109 3 45 3 M 45 0 C 69.85281372070312 0 90 20.14718627929688 90 45 C 90 69.85281372070312 69.85281372070312 90 45 90 C 20.14718627929688 90 0 69.85281372070312 0 45 C 0 20.14718627929688 20.14718627929688 0 45 0 Z" stroke="none" fill="#8a552c"/>
      </g>
    </g>
    <g id="Layer_2" data-name="Layer 2" transform="translate(17.632 713.967)">
      <g id="_1" data-name="1" transform="translate(0 0)">
        <path id="Trazado_986661" data-name="Trazado 986661" d="M37.313,44.106H20.053a.813.813,0,1,1,0-1.626h17.26a.813.813,0,1,1,0,1.626Z" transform="translate(1.348 2.976)" fill="#2c3d60"/>
        <path id="Trazado_986662" data-name="Trazado 986662" d="M17.025,47.082a.8.8,0,0,1-.792-.685L9.117,3.66A2.429,2.429,0,0,0,6.709,1.626H.813A.813.813,0,0,1,.813,0h5.9A4.034,4.034,0,0,1,10.7,3.392L17.816,46.1a.813.813,0,0,1-.7.984Z" transform="translate(0 0)" fill="#2c3d60"/>
        <path id="Trazado_986663" data-name="Trazado 986663" d="M44.77,43.48a4.28,4.28,0,1,0-4.28,4.28A4.28,4.28,0,0,0,44.77,43.48Z" transform="translate(2.537 2.746)" fill="#8eb6ff"/>
        <path id="Trazado_986664" data-name="Trazado 986664" d="M43.615,40.46a4.58,4.58,0,0,1,.075.77,4.28,4.28,0,0,1-7.49,2.921,4.28,4.28,0,1,0,7.415-3.692Z" transform="translate(2.536 2.834)" fill="#8396ff"/>
        <path id="Trazado_986665" data-name="Trazado 986665" d="M37.279,46.4a4.58,4.58,0,0,1-.075-.77,4.28,4.28,0,0,1,7.49-2.921A4.28,4.28,0,1,0,37.279,46.4Z" transform="translate(2.538 2.754)" fill="#b5daff"/>
        <path id="Trazado_986666" data-name="Trazado 986666" d="M40.5,48.672a5.136,5.136,0,1,1,3.653-1.493A5.136,5.136,0,0,1,40.5,48.672Zm0-8.646a3.51,3.51,0,1,0,3.51,3.51A3.51,3.51,0,0,0,40.5,40.026Z" transform="translate(2.48 2.69)" fill="#2c3d60"/>
        <path id="Trazado_986667" data-name="Trazado 986667" d="M41.32,43.27a1.07,1.07,0,1,0-1.07,1.07A1.07,1.07,0,0,0,41.32,43.27Z" transform="translate(2.745 2.956)" fill="#2c3d60"/>
        <path id="Trazado_986668" data-name="Trazado 986668" d="M20.56,43.48a4.28,4.28,0,1,0-4.28,4.28A4.28,4.28,0,0,0,20.56,43.48Z" transform="translate(0.841 2.746)" fill="#8eb6ff"/>
        <path id="Trazado_986669" data-name="Trazado 986669" d="M19.49,41.233A4.31,4.31,0,0,1,12,44.112a4.28,4.28,0,1,0,7.415-3.692,4.58,4.58,0,0,1,.075.813Z" transform="translate(0.841 2.832)" fill="#8396ff"/>
        <path id="Trazado_986670" data-name="Trazado 986670" d="M12.945,45.639a4.28,4.28,0,0,1,7.49-2.921,4.28,4.28,0,1,0-7.362,3.692,3.692,3.692,0,0,1-.128-.77Z" transform="translate(0.837 2.749)" fill="#b5daff"/>
        <path id="Trazado_986671" data-name="Trazado 986671" d="M17.07,43.27A1.07,1.07,0,1,0,16,44.34,1.07,1.07,0,0,0,17.07,43.27Z" transform="translate(1.046 2.956)" fill="#2c3d60"/>
        <path id="Trazado_986672" data-name="Trazado 986672" d="M16.256,48.673a5.136,5.136,0,1,1,5.136-5.136A5.136,5.136,0,0,1,16.256,48.673Zm0-8.646a3.51,3.51,0,1,0,3.51,3.51,3.51,3.51,0,0,0-3.51-3.51Z" transform="translate(0.779 2.69)" fill="#2c3d60"/>
        <path id="Trazado_986673" data-name="Trazado 986673" d="M10.36,9.85H49.824L44.42,35.8H14.683Z" transform="translate(0.726 0.69)" fill="#bac4d3"/>
        <path id="Trazado_986674" data-name="Trazado 986674" d="M10.36,9.85h37.3L41.177,31.476l-26.912,1.8Z" transform="translate(0.726 0.69)" fill="#fff"/>
        <path id="Trazado_986675" data-name="Trazado 986675" d="M14.4,13.043,47.154,10.55l-6.26,20.877L14.7,33.182Z" transform="translate(1.009 0.739)" fill="#dfebf7"/>
        <path id="Trazado_986676" data-name="Trazado 986676" d="M44.473,36.664H14.736a.8.8,0,0,1-.8-.674L9.611,10.062A.824.824,0,0,1,9.793,9.4a.8.8,0,0,1,.621-.289H49.877a.813.813,0,0,1,.813.952L45.34,36.011a.8.8,0,0,1-.867.653ZM15.378,35.048H43.81l5.072-24.333H11.366Z" transform="translate(0.672 0.638)" fill="#2c3d60"/>
        <path id="Trazado_986677" data-name="Trazado 986677" d="M33.92,36.665H24.193a.824.824,0,0,1-.813-.738L21.24,9.978a.867.867,0,0,1,.214-.621.8.8,0,0,1,.6-.268h15.12a.813.813,0,0,1,.6.278.781.781,0,0,1,.2.642l-3.21,25.949A.813.813,0,0,1,33.92,36.665Zm-8.978-1.616h8.272l3.039-24.333H22.909Z" transform="translate(1.488 0.637)" fill="#2c3d60"/>
        <path id="Trazado_986678" data-name="Trazado 986678" d="M47.94,19.006H11.793a.813.813,0,0,1,0-1.626H47.94a.813.813,0,1,1,0,1.626Z" transform="translate(0.769 1.218)" fill="#2c3d60"/>
        <path id="Trazado_986679" data-name="Trazado 986679" d="M46.139,26.686H13.053a.813.813,0,1,1,0-1.626H46.118a.813.813,0,1,1,0,1.626Z" transform="translate(0.857 1.756)" fill="#2c3d60"/>
      </g>
    </g>
  </g>
</svg>
