<svg xmlns="http://www.w3.org/2000/svg" xmlns:xlink="http://www.w3.org/1999/xlink" width="108" height="108" viewBox="0 0 108 108">
  <defs>
    <filter id="Fondo" x="0" y="0" width="108" height="108" filterUnits="userSpaceOnUse">
      <feOffset dy="3" input="SourceAlpha"/>
      <feGaussianBlur stdDeviation="3" result="blur"/>
      <feFlood flood-opacity="0.161"/>
      <feComposite operator="in" in2="blur"/>
      <feComposite in="SourceGraphic"/>
    </filter>
  </defs>
  <g id="Icono" transform="translate(9 -689)">
    <g transform="matrix(1, 0, 0, 1, -9, 689)" filter="url(#Fondo)">
      <g id="Fondo-2" data-name="Fondo" transform="translate(9 6)" fill="#fee1ca">
        <path d="M 45 88.5 C 39.12687683105469 88.5 33.43022537231445 87.35007476806641 28.06830024719238 85.08217620849609 C 22.88852500915527 82.89131164550781 18.23629951477051 79.75458526611328 14.2408504486084 75.75914764404297 C 10.24541282653809 71.76370239257812 7.108687400817871 67.11147308349609 4.917825222015381 61.93170166015625 C 2.649924993515015 56.56977462768555 1.5 50.87312316894531 1.5 45 C 1.5 39.12687683105469 2.649924993515015 33.43022537231445 4.917825222015381 28.06830024719238 C 7.108687400817871 22.88852500915527 10.24541282653809 18.23629951477051 14.2408504486084 14.2408504486084 C 18.23629951477051 10.24541282653809 22.88852500915527 7.108687400817871 28.06830024719238 4.917825222015381 C 33.43022537231445 2.649924993515015 39.12687683105469 1.5 45 1.5 C 50.87312316894531 1.5 56.56977462768555 2.649924993515015 61.93170166015625 4.917825222015381 C 67.11147308349609 7.108687400817871 71.76370239257812 10.24541282653809 75.75914764404297 14.2408504486084 C 79.75458526611328 18.23629951477051 82.89131164550781 22.88852500915527 85.08217620849609 28.06830024719238 C 87.35007476806641 33.43022537231445 88.5 39.12687683105469 88.5 45 C 88.5 50.87312316894531 87.35007476806641 56.56977462768555 85.08217620849609 61.93170166015625 C 82.89131164550781 67.11147308349609 79.75458526611328 71.76370239257812 75.75914764404297 75.75914764404297 C 71.76370239257812 79.75458526611328 67.11147308349609 82.89131164550781 61.93170166015625 85.08217620849609 C 56.56977462768555 87.35007476806641 50.87312316894531 88.5 45 88.5 Z" stroke="none"/>
        <path d="M 45 3 C 39.32871246337891 3 33.82865524291992 4.110054016113281 28.65262985229492 6.299339294433594 C 23.65165710449219 8.414573669433594 19.15968322753906 11.44334411621094 15.301513671875 15.301513671875 C 11.44334411621094 19.15968322753906 8.414573669433594 23.65165710449219 6.299339294433594 28.65262985229492 C 4.110054016113281 33.82865524291992 3 39.32871246337891 3 45 C 3 50.67128753662109 4.110054016113281 56.17134475708008 6.299339294433594 61.34737396240234 C 8.414573669433594 66.34834289550781 11.44334411621094 70.84031677246094 15.301513671875 74.698486328125 C 19.15968322753906 78.55665588378906 23.65165710449219 81.58542633056641 28.65262985229492 83.70066070556641 C 33.82865524291992 85.88994598388672 39.32871246337891 87 45 87 C 50.67128753662109 87 56.17134475708008 85.88994598388672 61.34737396240234 83.70066070556641 C 66.34834289550781 81.58542633056641 70.84031677246094 78.55665588378906 74.698486328125 74.698486328125 C 78.55665588378906 70.84031677246094 81.58542633056641 66.34834289550781 83.70066070556641 61.34737396240234 C 85.88994598388672 56.17134475708008 87 50.67128753662109 87 45 C 87 39.32871246337891 85.88994598388672 33.82865524291992 83.70066070556641 28.65262985229492 C 81.58542633056641 23.65165710449219 78.55665588378906 19.15968322753906 74.698486328125 15.301513671875 C 70.84031677246094 11.44334411621094 66.34834289550781 8.414573669433594 61.34737396240234 6.299339294433594 C 56.17134475708008 4.110054016113281 50.67128753662109 3 45 3 M 45 0 C 69.85281372070312 0 90 20.14718627929688 90 45 C 90 69.85281372070312 69.85281372070312 90 45 90 C 20.14718627929688 90 0 69.85281372070312 0 45 C 0 20.14718627929688 20.14718627929688 0 45 0 Z" stroke="none" fill="#8a552c"/>
      </g>
    </g>
    <g id="_036-auditor" data-name="036-auditor" transform="translate(-49.998 709.886)">
      <g id="Grupo_1148952" data-name="Grupo 1148952" transform="translate(72.697 0.858)">
        <path id="Trazado_986466" data-name="Trazado 986466" d="M279.774,245.15h5.052v11.7h-5.052Z" transform="translate(-256.832 -217.948)" fill="#407093"/>
        <path id="Trazado_986467" data-name="Trazado 986467" d="M279.774,245.15H282.3v11.7h-2.526Z" transform="translate(-256.832 -217.948)" fill="#365e7d"/>
        <g id="Grupo_1148951" data-name="Grupo 1148951" transform="translate(0 19.491)">
          <path id="Trazado_986468" data-name="Trazado 986468" d="M83.072,319.148a3.735,3.735,0,0,0,3.735-3.735l2.256-7.47-2.256-7.4a3.735,3.735,0,1,0-7.47,0v14.872a3.735,3.735,0,0,0,3.735,3.735Z" transform="translate(-79.337 -283.182)" fill="#e27f83"/>
          <path id="Trazado_986469" data-name="Trazado 986469" d="M86.806,394.106l4.907,2.854-4.907,4.616a3.735,3.735,0,0,1-7.47,0v-7.47a3.735,3.735,0,0,0,7.47,0Z" transform="translate(-79.336 -369.346)" fill="#c8646d"/>
          <path id="Trazado_986470" data-name="Trazado 986470" d="M168.023,191.33H157.465a2.11,2.11,0,0,1-2.11-2.11v-7.181a4.229,4.229,0,0,0-4.113-4.253,4.184,4.184,0,0,0-4.256,4.184v4.891a5.372,5.372,0,0,0-2.387,4.469v16.678a7.173,7.173,0,0,0,7.173,7.173h12.272a2.673,2.673,0,0,0,2.691-2.563,2.637,2.637,0,0,0-2.636-2.711h1.426a3.145,3.145,0,0,0,3.157-3.157,3.1,3.1,0,0,0-3.1-3.036h1.157a3.145,3.145,0,0,0,3.157-3.157,3.1,3.1,0,0,0-3.1-3.036h1.218a3.1,3.1,0,1,0,0-6.192Z" transform="translate(-137.129 -177.786)" fill="#ffece4"/>
          <path id="Trazado_986471" data-name="Trazado 986471" d="M155.508,215.186h-3.733a7.172,7.172,0,0,1-7.173-7.173V191.335a5.372,5.372,0,0,1,2.386-4.469v-4.89a4.185,4.185,0,0,1,4.256-4.184,4.081,4.081,0,0,1,1.786.442,4.184,4.184,0,0,0-2.309,3.742v4.89a5.373,5.373,0,0,0-2.387,4.469v16.678A7.173,7.173,0,0,0,155.508,215.186Z" transform="translate(-137.132 -177.79)" fill="#ffddce"/>
        </g>
        <circle id="Elipse_11573" data-name="Elipse 11573" cx="14.974" cy="14.974" r="14.974" transform="translate(10.495 0)" fill="#ffe07d"/>
        <path id="Trazado_986472" data-name="Trazado 986472" d="M187.262,37.4q-.625.053-1.264.053A14.974,14.974,0,0,1,186,7.5q.638,0,1.264.053a14.974,14.974,0,0,0,0,29.842Z" transform="translate(-160.529 -7.5)" fill="#ffd064"/>
        <circle id="Elipse_11574" data-name="Elipse 11574" cx="10.586" cy="10.586" r="10.586" transform="translate(14.883 4.388)" fill="#d3effb"/>
        <path id="Trazado_986473" data-name="Trazado 986473" d="M222.056,66.8a10.585,10.585,0,1,1,0-20.751,10.588,10.588,0,0,0,0,20.751Z" transform="translate(-194.478 -41.448)" fill="#b1e4f9"/>
      </g>
      <g id="Grupo_1148953" data-name="Grupo 1148953" transform="translate(71.839 0)">
        <path id="Trazado_986474" data-name="Trazado 986474" d="M114,15.832a15.844,15.844,0,0,0-1.931-7.582.858.858,0,0,0-1.506.824,14.144,14.144,0,1,1-1.852-2.626.858.858,0,0,0,1.283-1.142,15.832,15.832,0,0,0-26.806,15.65A5,5,0,0,0,81.7,24.535v4.453a6.23,6.23,0,0,0-2.387,4.906v.236a4.591,4.591,0,0,0-7.47,3.578V48.6a.858.858,0,0,0,1.717,0V37.708a2.876,2.876,0,1,1,5.753,0V52.58a2.876,2.876,0,1,1-5.753,0v-.557a.858.858,0,0,0-1.717,0v.557a4.592,4.592,0,0,0,8.642,2.166,8.035,8.035,0,0,0,6.86,3.858H99.613a3.547,3.547,0,0,0,3.549-3.4,3.464,3.464,0,0,0-.652-2.136,4.066,4.066,0,0,0,1.469-.955,3.892,3.892,0,0,0,1.131-2.818,3.936,3.936,0,0,0-1.029-2.572,4.058,4.058,0,0,0,1.116-.8,3.893,3.893,0,0,0,1.131-2.818,3.936,3.936,0,0,0-1.014-2.556,3.955,3.955,0,0,0-1.722-7.514H101.55V31.3A15.859,15.859,0,0,0,114,15.832Zm-20.964,17.2a1.253,1.253,0,0,1-1.252-1.251V30.319a15.7,15.7,0,0,0,3,.98v1.736H93.034Zm12.139,2.371a2.238,2.238,0,0,1-1.581,3.821h-1.218a.858.858,0,0,0,0,1.717,2.249,2.249,0,0,1,2.237,2.194,2.188,2.188,0,0,1-.64,1.582,2.339,2.339,0,0,1-1.658.7h-1.157a.858.858,0,0,0,0,1.717,2.25,2.25,0,0,1,2.237,2.194,2.189,2.189,0,0,1-.64,1.582,2.339,2.339,0,0,1-1.658.7H99.668a.858.858,0,0,0,0,1.717,1.778,1.778,0,0,1,1.778,1.829,1.819,1.819,0,0,1-1.832,1.729H87.341a6.322,6.322,0,0,1-6.315-6.315V33.894a4.518,4.518,0,0,1,2.007-3.756.859.859,0,0,0,.38-.713v-4.89a3.309,3.309,0,0,1,.515-1.782,15.941,15.941,0,0,0,6.137,6.677v2.354a2.972,2.972,0,0,0,2.969,2.968h10.558a2.225,2.225,0,0,1,1.581.654Zm-5.339-2.371H96.5V31.577a15.879,15.879,0,0,0,3.336,0v1.459Z" transform="translate(-71.839 0)"/>
        <path id="Trazado_986475" data-name="Trazado 986475" d="M213.306,38.34A11.444,11.444,0,1,0,224.75,49.784,11.457,11.457,0,0,0,213.306,38.34Zm0,21.171a9.727,9.727,0,1,1,9.727-9.727A9.738,9.738,0,0,1,213.306,59.511Z" transform="translate(-186.979 -33.952)"/>
      </g>
    </g>
  </g>
</svg>
